<svg version="1.1" id="Layer_1" xmlns="http://www.w3.org/2000/svg" xmlns:xlink="http://www.w3.org/1999/xlink" x="0px" y="0px"
	 width="100%" viewBox="0 0 2048 1214" enable-background="new 0 0 2048 1214" xml:space="preserve">
<path fill="#FEFFFF" opacity="1.000000" stroke="none" 
	d="
M1560.000000,1215.000000 
	C1508.639771,1215.000000 1457.279663,1215.000000 1405.581543,1214.650391 
	C1415.579468,1211.367065 1420.483887,1205.281494 1420.879028,1194.535767 
	C1421.074707,1189.215332 1420.927734,1183.882080 1420.930176,1178.554688 
	C1420.933228,1171.453003 1420.930908,1164.351440 1420.930908,1157.313721 
	C1418.309937,1157.313721 1416.255859,1157.313721 1414.233154,1157.313721 
	C1414.119385,1159.434570 1414.026367,1161.166504 1413.917725,1163.189819 
	C1401.386353,1154.081421 1390.131592,1153.721558 1382.187622,1161.860718 
	C1375.004639,1169.220337 1374.036621,1181.047363 1380.070190,1189.375854 
	C1384.167969,1195.032593 1390.019897,1197.571045 1396.823975,1197.806396 
	C1403.619995,1198.041504 1409.012329,1194.673706 1413.862305,1189.350586 
	C1414.598389,1198.388550 1412.999878,1203.765015 1408.293701,1206.423462 
	C1398.908325,1211.725098 1390.029053,1209.038452 1381.181152,1203.621704 
	C1380.209717,1205.417358 1379.314331,1207.072266 1378.140503,1209.241943 
	C1382.742920,1211.302734 1386.871460,1213.151367 1391.000000,1215.000000 
	C927.666687,1215.000000 464.333313,1215.000000 1.000000,1215.000000 
	C1.000000,1170.895020 1.000000,1126.907227 1.467052,1082.417725 
	C21.860380,1081.916138 41.786655,1081.916138 62.063717,1081.916138 
	C62.063717,1044.529419 62.063717,1007.783997 62.063717,970.785400 
	C99.745087,970.785400 137.068207,970.785400 174.794998,970.785400 
	C174.794998,1007.966431 174.794998,1044.704834 174.794998,1081.707764 
	C194.802887,1081.707764 214.407944,1081.707764 234.408371,1081.700684 
	C235.132416,1079.995605 235.747849,1078.297607 235.748672,1076.599487 
	C235.797134,977.498474 235.794754,878.397461 235.797256,779.296448 
	C235.797302,777.545776 235.797287,775.795105 235.797287,773.504517 
	C234.063400,774.139404 233.016968,774.522583 231.569000,774.848389 
	C213.947617,779.255371 196.753479,783.823608 179.487213,788.100586 
	C175.820023,789.009094 174.482101,790.342712 174.502350,794.365417 
	C174.692871,832.194946 174.621841,870.025818 174.626266,907.856262 
	C174.626495,909.803772 174.626297,911.751343 174.626297,913.609375 
	C136.736420,913.609375 99.525070,913.609375 61.874260,913.609375 
	C61.874260,881.794739 61.874260,850.416443 61.874260,818.653015 
	C52.848362,820.998779 44.344818,823.268005 35.809978,825.412537 
	C24.219187,828.324890 12.604465,831.142029 1.000003,834.000000 
	C1.000000,556.392700 1.000000,278.785370 1.000000,1.000000 
	C377.360168,1.000000 753.720398,1.000000 1130.273682,1.256521 
	C1090.338623,11.725882 1050.126099,21.621593 1010.118103,32.285561 
	C990.164917,37.604034 977.329590,50.460285 973.771912,71.553429 
	C971.006653,87.947968 967.872009,104.279861 965.036926,120.663025 
	C955.735413,174.414948 946.478577,228.174667 937.256470,281.940277 
	C936.269653,287.693390 935.622864,293.504852 934.739990,299.852570 
	C961.083618,293.045135 986.349060,286.514343 1011.615601,279.987732 
	C1051.542725,269.674103 1091.466187,259.346741 1131.406616,249.084778 
	C1134.377563,248.321426 1135.564453,246.836182 1136.102539,243.688354 
	C1142.856323,204.172012 1149.798096,164.687775 1156.710083,125.198509 
	C1161.697754,96.703499 1166.810547,68.229942 1171.669434,39.713051 
	C1173.704102,27.771797 1171.092651,16.837616 1161.268555,9.152402 
	C1156.585693,5.489037 1150.467896,3.659945 1145.000000,0.999992 
	C1446.264771,1.000000 1747.529663,1.000000 2049.000000,1.000000 
	C2049.000000,314.693481 2049.000000,628.387024 2048.648438,942.334167 
	C2048.166748,941.597961 2048.023438,940.609680 2047.908203,939.618164 
	C2043.427246,901.052307 2021.677856,877.226624 1983.504517,869.672180 
	C1958.473877,864.718689 1933.400146,865.955627 1908.682251,871.618286 
	C1896.171143,874.484497 1884.057739,879.086975 1871.422729,883.010559 
	C1876.828369,899.481018 1881.779541,914.566895 1886.447266,928.788879 
	C1900.643677,925.606506 1914.250977,921.841003 1928.107544,919.655151 
	C1941.435547,917.552673 1954.993896,917.427856 1968.114990,921.963623 
	C1984.684448,927.691467 1993.061279,944.131104 1990.357056,960.120422 
	C1990.032349,960.120422 1989.684204,960.191772 1989.379395,960.107300 
	C1988.419922,959.841370 1987.479126,959.509033 1986.526733,959.216431 
	C1961.223999,951.442749 1935.513306,949.599548 1909.575562,955.016235 
	C1872.095825,962.843323 1852.993530,985.943237 1853.579468,1022.181763 
	C1853.941895,1044.606445 1863.207153,1062.301392 1882.383911,1074.364868 
	C1893.471313,1081.339600 1905.819214,1084.682373 1918.753174,1085.538330 
	C1944.570801,1087.246704 1968.009033,1081.458862 1987.069214,1062.730469 
	C1988.030151,1061.786133 1989.123779,1060.976807 1990.842651,1059.523682 
	C1990.842651,1067.446777 1990.842651,1074.373047 1990.842651,1081.090820 
	C1991.476562,1081.459717 1991.758545,1081.767090 1992.042114,1081.768555 
	C2011.027954,1081.861328 2030.014038,1081.929688 2049.000000,1082.000000 
	C2049.000000,1126.300415 2049.000000,1170.600952 2049.000000,1215.000000 
	C1904.973145,1215.000000 1760.946289,1215.000000 1616.378906,1214.537354 
	C1615.838257,1207.712524 1615.838257,1201.350220 1615.838257,1194.403687 
	C1629.152222,1204.118286 1639.463867,1204.286255 1647.692993,1195.516846 
	C1655.483032,1187.214966 1656.132446,1171.486938 1648.166748,1163.537842 
	C1644.742676,1160.120850 1639.808594,1157.411987 1635.102051,1156.269531 
	C1627.620361,1154.453125 1621.416870,1158.350952 1615.808105,1164.896362 
	C1615.808105,1161.588745 1615.808105,1159.519409 1615.808105,1157.288818 
	C1613.372070,1157.288818 1611.343140,1157.288818 1609.000000,1157.288818 
	C1609.000000,1176.750854 1609.000000,1195.875366 1609.000000,1215.000000 
	C1596.639771,1215.000000 1584.279663,1215.000000 1571.571289,1214.673584 
	C1576.532837,1212.296143 1578.933472,1207.686646 1580.923340,1202.903320 
	C1585.456665,1192.006104 1589.791382,1181.026123 1594.207520,1170.079956 
	C1595.908813,1165.863159 1597.612183,1161.646973 1599.322510,1157.411133 
	C1593.841553,1155.676880 1591.730103,1157.988525 1590.163086,1162.463257 
	C1586.655273,1172.479858 1582.632446,1182.316284 1578.516479,1193.012939 
	C1577.484497,1191.031372 1576.747192,1189.790039 1576.169678,1188.478394 
	C1572.351562,1179.806030 1568.295410,1171.223633 1564.883423,1162.393066 
	C1563.070923,1157.702393 1560.656250,1155.622925 1555.487183,1157.408325 
	C1555.838989,1158.408569 1556.130249,1159.494019 1556.589600,1160.503052 
	C1562.235718,1172.908691 1568.008179,1185.258667 1573.455078,1197.750854 
	C1574.222900,1199.511841 1574.094971,1202.279541 1573.238525,1204.018311 
	C1570.578003,1209.420532 1568.168335,1209.941406 1558.873047,1208.061646 
	C1558.275635,1209.483887 1557.654785,1210.961914 1557.070557,1212.352539 
	C1558.192871,1213.366821 1559.096436,1214.183472 1560.000000,1215.000000 
M1610.247681,994.499451 
	C1610.187500,994.325012 1610.127441,994.150574 1610.235352,993.509705 
	C1610.235352,993.509705 1610.101196,993.032349 1610.386108,992.323120 
	C1610.466431,990.557129 1610.546875,988.791138 1610.869019,986.113098 
	C1610.575073,978.300415 1610.727783,970.440369 1609.904175,962.683899 
	C1607.319092,938.332397 1599.471680,915.932739 1583.230347,897.183167 
	C1565.442871,876.648865 1542.235840,867.046814 1515.539795,865.550232 
	C1477.756714,863.432190 1446.612671,876.652039 1423.973145,907.411926 
	C1405.295532,932.789001 1399.559814,961.819946 1403.362183,992.643127 
	C1407.025513,1022.340820 1420.034302,1047.375854 1444.686646,1065.067139 
	C1476.667969,1088.017944 1512.179443,1091.644897 1549.397461,1081.474365 
	C1570.013794,1075.840454 1586.713501,1063.829224 1600.302124,1046.901611 
	C1588.648804,1036.579224 1577.260132,1026.491577 1565.822998,1016.360718 
	C1564.507202,1017.493713 1563.615723,1018.231812 1562.756348,1019.005615 
	C1547.120361,1033.085571 1528.976318,1039.615601 1507.819336,1037.927490 
	C1485.944458,1036.182007 1468.393066,1021.654175 1463.388672,1000.357300 
	C1463.108398,999.164612 1464.359619,997.612122 1465.663696,996.538818 
	C1509.478516,996.548218 1553.293457,996.565063 1597.108276,996.554321 
	C1601.093018,996.553345 1605.077759,996.376038 1609.721436,996.225342 
	C1609.831177,995.822449 1609.940918,995.419556 1610.247681,994.499451 
M805.996094,345.415619 
	C811.387024,313.939545 816.771484,282.462311 822.170654,250.987640 
	C828.778198,212.468521 835.558716,173.977875 841.884766,135.412628 
	C843.240662,127.146805 844.798767,118.217926 843.080078,110.284149 
	C839.092163,91.874435 820.000183,82.339890 799.621094,87.501053 
	C760.297852,97.460007 720.966919,107.408730 681.804443,117.974281 
	C662.004822,123.315971 649.388611,136.160980 645.836182,157.040329 
	C637.495239,206.065186 629.058044,255.073715 620.617065,304.081482 
	C611.838623,355.048767 603.000610,406.005798 594.209167,456.970825 
	C591.754822,471.198639 596.804138,483.341553 608.467773,490.630371 
	C619.119507,497.286743 630.509216,496.799591 642.198669,493.779022 
	C678.889099,484.298157 715.591125,474.859406 752.342224,465.617340 
	C766.306641,462.105560 777.723694,455.366699 785.833557,443.103851 
	C791.620667,434.353149 792.269714,424.346497 794.018311,414.596527 
	C798.098633,391.845276 801.939636,369.051117 805.996094,345.415619 
M1212.646484,507.077759 
	C1210.148804,521.673828 1207.380127,536.231995 1205.328003,550.890442 
	C1204.754272,554.988525 1205.596802,559.626709 1206.986450,563.598328 
	C1212.834961,580.312683 1230.641357,588.897400 1249.360596,584.155334 
	C1288.704224,574.188660 1328.072510,564.308472 1367.303345,553.911682 
	C1387.790405,548.482178 1400.358643,535.201111 1403.946167,513.814819 
	C1409.888794,478.386475 1416.104614,443.004059 1422.155518,407.593781 
	C1427.898315,373.987274 1433.544922,340.364288 1439.293335,306.758759 
	C1444.536621,276.106812 1449.533936,245.407501 1455.257324,214.844757 
	C1459.381592,192.821243 1443.139771,174.524017 1420.909058,175.943253 
	C1412.558960,176.476349 1404.260010,178.801529 1396.083130,180.881836 
	C1361.110596,189.779495 1326.100708,198.555923 1291.292725,208.065781 
	C1273.977051,212.796600 1261.919922,224.404373 1258.239502,242.151978 
	C1253.074341,267.057678 1249.356201,292.264221 1245.054321,317.348083 
	C1238.784912,353.903473 1232.543335,390.463623 1226.296387,427.022827 
	C1221.785645,453.420563 1217.285156,479.820038 1212.646484,507.077759 
M911.094604,438.655853 
	C906.175781,466.995026 901.277954,495.337830 896.333069,523.672424 
	C889.961487,560.181824 883.410400,596.660645 877.254089,633.206116 
	C875.621765,642.896423 877.427246,652.185852 884.559448,659.667542 
	C894.585693,670.185120 907.010010,673.086060 920.698059,669.660461 
	C960.840637,659.614563 1001.013245,649.649658 1040.932251,638.766357 
	C1059.494873,633.705444 1071.491333,621.026794 1075.019287,601.548645 
	C1079.523926,576.677612 1083.829346,551.770203 1088.151123,526.866333 
	C1095.740723,483.132050 1103.301514,439.392700 1110.813965,395.645142 
	C1112.123657,388.017975 1113.137817,380.340118 1114.358276,372.221649 
	C1111.727661,372.787079 1109.930786,373.110748 1108.166626,373.562408 
	C1094.486694,377.064819 1080.811523,380.585938 1067.137817,384.112488 
	C1018.706055,396.603333 970.296326,409.181335 921.816223,421.481750 
	C916.116394,422.927917 912.046814,424.646027 912.380188,431.439331 
	C912.483154,433.537842 911.651794,435.682251 911.094604,438.655853 
M706.615784,1044.100586 
	C707.675903,1042.410767 708.823242,1040.768921 709.783203,1039.024048 
	C726.227966,1009.133362 728.879822,977.299072 721.943054,944.550476 
	C715.186035,912.650024 697.960571,888.079102 667.853882,873.990662 
	C635.797302,858.989746 592.738403,860.819946 565.413025,895.695190 
	C564.695435,896.610962 563.727051,897.330261 562.169678,898.813599 
	C562.169678,888.350403 562.169678,878.946350 562.169678,869.364685 
	C542.053345,869.364685 522.321167,869.364685 502.415619,869.364685 
	C502.415619,966.602905 502.415619,1063.585693 502.415619,1160.910156 
	C521.180176,1156.038330 539.489807,1151.156128 557.883789,1146.615723 
	C561.625977,1145.692139 562.431519,1143.997681 562.411682,1140.457397 
	C562.266785,1114.631592 562.324463,1088.804565 562.318298,1062.978027 
	C562.317688,1060.569214 562.318237,1058.160522 562.318237,1054.782593 
	C564.758118,1057.190063 566.434326,1058.747070 568.001831,1060.406738 
	C576.238770,1069.127197 585.831299,1075.853516 597.047363,1080.182251 
	C636.228516,1095.303833 681.652344,1080.522705 706.615784,1044.100586 
M1254.811646,878.274048 
	C1247.940918,884.640625 1241.070312,891.007141 1233.860596,897.687805 
	C1233.860596,856.437744 1233.860596,815.275452 1233.860596,773.555664 
	C1213.363647,778.918762 1193.509766,784.113525 1174.108887,789.189880 
	C1174.108887,887.169800 1174.108887,984.398315 1174.108887,1081.572388 
	C1194.249268,1081.572388 1213.981934,1081.572388 1233.989014,1081.572388 
	C1233.989014,1079.393066 1233.988892,1077.577148 1233.988892,1075.761230 
	C1233.989258,1038.763550 1233.960083,1001.765869 1234.030029,964.768372 
	C1234.038208,960.451782 1234.279663,956.086304 1234.954956,951.829529 
	C1237.000488,938.935181 1242.889282,928.721802 1255.392944,923.117310 
	C1272.384888,915.501221 1293.163452,921.174927 1302.029907,936.281311 
	C1306.891357,944.563843 1308.006592,953.836365 1308.012939,963.256897 
	C1308.038330,1000.921143 1308.023560,1038.585327 1308.023682,1076.249634 
	C1308.023682,1078.008667 1308.023804,1079.767700 1308.023804,1081.606934 
	C1328.450806,1081.606934 1348.199829,1081.606934 1368.078491,1081.606934 
	C1368.157593,1080.142456 1368.273804,1078.995239 1368.273926,1077.848022 
	C1368.280884,1033.350952 1368.329956,988.853699 1368.214722,944.356873 
	C1368.198364,938.050842 1367.829590,931.674744 1366.839966,925.455750 
	C1363.896851,906.958130 1356.427734,890.860107 1341.290039,878.929016 
	C1321.075073,862.996094 1280.862671,858.901489 1254.811646,878.274048 
M976.924744,943.602905 
	C972.357178,928.586853 965.083984,915.037842 954.586243,903.347290 
	C933.504150,879.869751 906.876709,867.375916 875.617676,865.711365 
	C829.729492,863.267883 792.404114,879.579956 767.281982,919.176575 
	C738.558777,964.448853 749.069031,1027.979004 791.192810,1060.748901 
	C829.381714,1090.457642 871.798767,1094.536499 915.903992,1075.977173 
	C966.980225,1054.484619 992.428894,998.234436 976.924744,943.602905 
M337.325623,1103.875000 
	C322.242798,1116.802368 307.500122,1109.260498 292.443115,1102.989014 
	C289.631958,1119.393188 286.836700,1135.704468 284.007996,1152.210815 
	C297.562378,1158.276489 311.437286,1160.976074 325.931549,1160.986084 
	C341.503052,1160.996826 355.318329,1156.027344 366.057434,1144.893433 
	C373.492859,1137.184692 380.835724,1128.757690 385.713501,1119.351807 
	C393.949097,1103.471313 400.796692,1086.788452 407.175598,1070.042114 
	C430.799988,1008.022461 453.999939,945.841064 477.338654,883.712585 
	C479.104279,879.012390 480.706879,874.251038 482.484100,869.239380 
	C461.214142,869.239380 440.749298,869.239380 419.959045,869.239380 
	C404.631134,917.047180 389.316284,964.814148 373.633240,1013.729614 
	C357.240753,964.718750 341.245483,916.895569 325.367950,869.424316 
	C303.860413,869.424316 282.971832,869.424316 261.661591,869.424316 
	C262.331543,871.381653 262.802399,872.942322 263.393066,874.456177 
	C289.805908,942.153137 316.125702,1009.886841 342.763306,1077.495239 
	C346.749939,1087.613647 345.615875,1095.911499 337.325623,1103.875000 
M1827.497681,1040.015991 
	C1818.137451,1030.793945 1808.777344,1021.571960 1799.963501,1012.888245 
	C1792.343506,1018.107605 1785.107666,1024.127930 1776.964600,1028.432373 
	C1756.477295,1039.261963 1730.978516,1036.011719 1715.151733,1020.806458 
	C1698.412354,1004.724609 1694.537720,984.452942 1698.269531,962.466309 
	C1704.578369,925.295654 1741.263916,906.548584 1774.854248,923.545044 
	C1782.988281,927.660706 1789.907959,934.175903 1797.744873,939.847351 
	C1809.425171,927.261597 1821.577515,914.167114 1833.664429,901.143127 
	C1802.048584,862.385498 1744.199951,857.850220 1705.356201,873.491150 
	C1660.617065,891.505920 1634.370239,935.197449 1637.800537,985.078613 
	C1641.095825,1032.999390 1673.145508,1071.938354 1720.154175,1083.110962 
	C1765.927612,1093.990234 1808.640381,1080.522949 1835.152710,1046.510010 
	C1832.841919,1044.582520 1830.414551,1042.557861 1827.497681,1040.015991 
M1133.309204,869.116333 
	C1118.057495,869.116333 1102.805786,869.116333 1087.082520,869.116333 
	C1087.082520,849.663452 1087.082520,830.946777 1087.082520,811.869141 
	C1066.683105,817.206421 1046.828247,822.401184 1026.666382,827.676270 
	C1026.666382,841.768250 1026.666382,855.339172 1026.666382,869.312256 
	C1018.100708,869.312256 1009.999268,869.312256 1001.980774,869.312256 
	C1001.980774,886.747009 1001.980774,903.759094 1001.980774,921.187134 
	C1010.540894,921.187134 1018.632812,921.187134 1026.973267,921.187134 
	C1026.973267,923.086304 1026.973022,924.562012 1026.973267,926.037720 
	C1026.979370,957.522583 1026.925415,989.007629 1027.043213,1020.492065 
	C1027.066162,1026.637329 1027.331787,1032.841919 1028.215332,1038.913086 
	C1031.153076,1059.099976 1040.217896,1075.233521 1060.890625,1081.369751 
	C1085.781372,1088.757935 1110.275757,1086.899048 1133.510620,1074.664185 
	C1135.020630,1073.869019 1136.222656,1071.032349 1136.255371,1069.122803 
	C1136.483398,1055.801514 1136.374146,1042.474121 1136.342651,1029.148804 
	C1136.339722,1027.938477 1136.122803,1026.728638 1136.075073,1026.237671 
	C1127.699463,1028.224487 1119.769043,1031.127686 1111.649414,1031.824585 
	C1093.138184,1033.413330 1087.196167,1027.361938 1087.197021,1008.754028 
	C1087.198242,981.433838 1087.204834,954.113647 1087.208984,926.793457 
	C1087.209351,925.005615 1087.209106,923.217712 1087.209106,920.876831 
	C1104.064819,920.876831 1120.457642,920.876831 1137.181885,920.876831 
	C1137.181885,904.186279 1137.230957,888.052856 1137.057495,871.921814 
	C1137.047485,870.976501 1135.240967,870.050476 1133.309204,869.116333 
M791.330688,1182.847168 
	C791.454773,1181.356812 791.705688,1179.864624 791.682373,1178.376587 
	C791.529053,1168.584839 786.249329,1160.293823 777.753540,1157.257080 
	C768.998047,1154.127563 761.417358,1156.312256 755.227234,1163.283813 
	C754.977112,1163.565552 754.452820,1163.603882 753.483154,1163.974854 
	C753.483154,1155.369385 753.483154,1147.147095 753.483154,1138.948975 
	C751.040833,1138.948975 749.108887,1138.948975 747.238464,1138.948975 
	C747.238464,1159.812378 747.238464,1180.374390 747.238464,1200.762817 
	C749.509705,1200.762817 751.435913,1200.762817 753.465454,1200.762817 
	C753.639465,1198.427246 753.790955,1196.393799 753.963074,1194.083618 
	C769.657532,1207.856201 786.899841,1202.849487 791.330688,1182.847168 
M643.479492,1161.468628 
	C646.417480,1154.735352 651.044678,1149.817139 658.267944,1147.673096 
	C668.171753,1144.733398 676.411987,1148.317993 683.873291,1154.689087 
	C685.483765,1152.882568 686.780273,1151.428223 688.051514,1150.002197 
	C676.570740,1137.097168 655.794922,1136.853271 643.322876,1149.249023 
	C631.174255,1161.323364 631.983704,1183.566406 644.984436,1194.903076 
	C657.645142,1205.943359 678.406372,1204.298584 688.436462,1191.176270 
	C687.010437,1189.941772 685.567322,1188.692383 684.133972,1187.451416 
	C681.941162,1189.097412 680.150146,1190.574219 678.230896,1191.859375 
	C670.281006,1197.182739 660.053589,1197.216187 652.417053,1192.013062 
	C643.205200,1185.736572 639.854248,1174.811401 643.479492,1161.468628 
M1508.975830,1174.500000 
	C1508.975830,1183.276489 1508.975830,1192.052979 1508.975830,1200.822266 
	C1511.493774,1200.822266 1513.417969,1200.822266 1515.813721,1200.822266 
	C1515.813721,1192.424194 1515.556274,1184.282104 1515.942871,1176.170776 
	C1516.093262,1173.016602 1517.075928,1169.529297 1518.776245,1166.904297 
	C1521.699585,1162.390747 1527.664551,1161.085205 1533.082031,1162.847290 
	C1538.068848,1164.469360 1540.810425,1168.380981 1540.931641,1174.827271 
	C1541.093750,1183.445190 1540.971558,1192.068359 1540.971558,1200.890869 
	C1543.376953,1200.890869 1545.302124,1200.890869 1547.341797,1200.890869 
	C1547.341797,1190.239502 1547.896851,1179.755005 1547.161011,1169.361938 
	C1546.602173,1161.470215 1540.665771,1156.804688 1532.703125,1156.000977 
	C1526.066162,1155.331177 1520.626831,1157.750610 1515.582764,1163.734009 
	C1515.582764,1154.562866 1515.582764,1146.803833 1515.582764,1138.886230 
	C1513.244141,1138.886230 1511.308960,1138.886230 1508.975830,1138.886230 
	C1508.975830,1150.581177 1508.975830,1162.040527 1508.975830,1174.500000 
M1930.829468,1196.385986 
	C1931.002686,1197.828857 1931.175903,1199.271851 1931.359009,1200.797485 
	C1933.437256,1200.797485 1935.325317,1200.797485 1937.354858,1200.797485 
	C1937.354858,1190.680664 1937.548828,1180.873413 1937.276733,1171.079102 
	C1937.130615,1165.820190 1934.793945,1161.189331 1929.896973,1158.820312 
	C1920.715820,1154.378662 1911.691406,1155.816895 1902.553345,1160.115967 
	C1903.390869,1162.090576 1904.017334,1163.567627 1904.625732,1165.001831 
	C1923.495483,1159.896118 1931.449951,1162.975342 1930.619019,1175.212524 
	C1928.864746,1174.922607 1927.108032,1174.337402 1925.374512,1174.399658 
	C1919.451050,1174.612061 1913.399780,1174.397339 1907.656372,1175.592041 
	C1902.033081,1176.761597 1898.870483,1181.914307 1898.752319,1187.445190 
	C1898.619751,1193.653076 1901.295532,1198.130615 1906.953857,1200.380249 
	C1915.479858,1203.769897 1923.230225,1202.235474 1930.829468,1196.385986 
M1759.433472,1148.569580 
	C1759.433472,1145.439697 1759.433472,1142.309814 1759.433472,1139.081421 
	C1757.002197,1139.081421 1754.996094,1139.081421 1752.798340,1139.081421 
	C1752.798340,1149.621338 1752.798340,1159.776123 1752.798340,1169.930908 
	C1752.798340,1180.208252 1752.798340,1190.485596 1752.798340,1200.808228 
	C1755.248657,1200.808228 1757.159058,1200.808228 1759.433105,1200.808228 
	C1759.433105,1196.914062 1759.389404,1193.269165 1759.443359,1189.625732 
	C1759.527344,1183.969849 1759.244629,1178.263062 1759.911987,1172.672729 
	C1760.699341,1166.077271 1766.188354,1161.966064 1772.928223,1162.010010 
	C1779.243042,1162.051147 1783.613159,1165.901489 1784.491821,1172.758789 
	C1784.975952,1176.535889 1784.806396,1180.403076 1784.839111,1184.230469 
	C1784.886841,1189.812866 1784.851318,1195.395874 1784.851318,1200.868652 
	C1787.406372,1200.868652 1789.204590,1200.868652 1791.266602,1200.868652 
	C1791.266602,1191.194092 1791.421143,1181.715820 1791.212524,1172.245483 
	C1791.072510,1165.893677 1788.768677,1160.489746 1782.505371,1157.732788 
	C1775.722290,1154.747070 1769.225952,1155.181030 1763.245728,1159.852417 
	C1762.171753,1160.691284 1761.129639,1161.571045 1759.432861,1162.953125 
	C1759.432861,1157.832397 1759.432861,1153.686646 1759.433472,1148.569580 
M1841.276489,1193.100586 
	C1840.161499,1192.159912 1839.046631,1191.219238 1837.863159,1190.220703 
	C1831.379272,1196.341553 1824.228760,1198.219971 1816.260498,1194.252319 
	C1811.360107,1191.812134 1808.776978,1186.556641 1809.631348,1181.329956 
	C1820.777832,1181.329956 1832.007446,1181.329956 1843.163452,1181.329956 
	C1845.174194,1165.408936 1833.463135,1153.640503 1818.766846,1156.289917 
	C1807.460205,1158.328369 1800.152588,1170.286011 1802.063721,1183.621826 
	C1803.312622,1192.337158 1809.961304,1199.567383 1818.601440,1201.605957 
	C1827.494995,1203.704590 1836.699951,1200.526978 1841.276489,1193.100586 
M884.292175,1158.645264 
	C875.382507,1164.529297 871.745972,1173.613770 873.898682,1184.609131 
	C875.601013,1193.304443 882.047119,1200.126831 890.694092,1201.647583 
	C899.544495,1203.203857 907.415405,1201.311523 913.495239,1193.721680 
	C912.064819,1192.396118 910.879211,1191.297241 909.607849,1190.119019 
	C903.644592,1195.740723 896.938843,1198.044800 889.329529,1194.935059 
	C883.856995,1192.698608 880.971436,1188.218018 880.385559,1181.623047 
	C892.046143,1181.623047 903.418640,1181.623047 914.718506,1181.623047 
	C916.683655,1162.276123 902.256531,1151.251099 884.292175,1158.645264 
M1339.583130,1156.977417 
	C1336.768921,1157.832397 1333.954712,1158.687256 1330.751343,1159.660522 
	C1331.464722,1161.734863 1332.030396,1163.379761 1332.583862,1164.989258 
	C1352.342773,1160.340698 1360.916260,1163.746948 1358.502441,1174.660278 
	C1352.980469,1174.418579 1347.509644,1173.783203 1342.079712,1174.033813 
	C1333.905029,1174.411133 1328.068726,1179.159790 1327.049561,1185.464722 
	C1325.624878,1194.277588 1331.636719,1201.212891 1341.409058,1202.017456 
	C1348.004639,1202.560425 1353.779053,1200.599731 1358.838501,1195.617920 
	C1359.159790,1197.805298 1359.386841,1199.351807 1359.612671,1200.888672 
	C1361.734619,1200.888672 1363.520020,1200.888672 1365.791260,1200.888672 
	C1365.791260,1192.254639 1365.845337,1183.806030 1365.779053,1175.358154 
	C1365.671997,1161.731079 1357.967407,1154.887329 1344.377930,1156.275391 
	C1343.055542,1156.410400 1341.745483,1156.667725 1339.583130,1156.977417 
M2012.198975,1191.306152 
	C2010.674927,1188.341919 2009.151001,1185.377686 2007.123779,1181.434570 
	C2019.974976,1181.434570 2031.378418,1181.434570 2042.717163,1181.434570 
	C2043.758545,1170.329224 2039.121338,1161.109985 2030.998047,1157.724609 
	C2022.858765,1154.332642 2015.054199,1155.275879 2008.693237,1161.267944 
	C2001.082886,1168.436768 1999.451050,1177.520996 2002.693970,1187.423218 
	C2005.455566,1195.855347 2011.484619,1200.721802 2020.085938,1201.875610 
	C2028.403687,1202.991089 2035.836914,1200.897827 2041.423584,1193.703369 
	C2039.970703,1192.399048 2038.769165,1191.320312 2037.606079,1190.276123 
	C2027.395508,1197.918823 2020.825317,1198.305420 2012.198975,1191.306152 
M981.701904,1175.239746 
	C980.156555,1186.756958 985.471191,1196.895996 994.960754,1200.533813 
	C1004.876282,1204.335083 1015.905701,1201.433105 1021.356201,1193.421753 
	C1020.143433,1192.382690 1018.909973,1191.325928 1017.527466,1190.141479 
	C1011.489807,1195.986938 1004.580566,1198.152710 996.882507,1194.728882 
	C991.730103,1192.437256 988.897156,1188.063477 988.442383,1181.453491 
	C1000.156860,1181.453491 1011.507874,1181.453491 1023.006104,1181.453491 
	C1023.409363,1172.493896 1021.661804,1165.064697 1014.738342,1159.909058 
	C1002.021790,1150.439331 985.477783,1157.804565 981.701904,1175.239746 
M1468.691528,1197.270142 
	C1469.827637,1196.201782 1470.963623,1195.133301 1472.268311,1193.906250 
	C1470.536865,1192.371948 1469.336304,1191.307983 1468.070190,1190.186035 
	C1461.486938,1196.029053 1454.458618,1198.403809 1446.427856,1194.208374 
	C1441.445923,1191.605591 1438.976074,1186.831909 1439.652710,1181.310059 
	C1450.826904,1181.310059 1462.070190,1181.310059 1474.020020,1181.310059 
	C1473.595581,1177.834351 1473.450928,1174.873535 1472.843750,1172.010742 
	C1471.083496,1163.713379 1464.651245,1157.449097 1456.832031,1156.151001 
	C1448.119385,1154.704712 1440.065796,1158.365112 1435.496216,1165.848267 
	C1429.503662,1175.661621 1430.882812,1188.527710 1438.748413,1196.188477 
	C1446.302246,1203.545532 1458.170654,1204.164062 1468.691528,1197.270142 
M726.518066,1175.034668 
	C725.209839,1174.836426 723.899902,1174.458130 722.593750,1174.470947 
	C716.977722,1174.526123 711.254639,1174.057495 705.774841,1174.985718 
	C698.914307,1176.147705 695.045898,1181.527100 694.996887,1188.061279 
	C694.950012,1194.308105 698.686279,1199.207886 705.301453,1201.137939 
	C713.400452,1203.501099 720.650452,1201.653564 726.974243,1195.750366 
	C727.305969,1197.806885 727.558228,1199.371094 727.801575,1200.879883 
	C729.901367,1200.879883 731.691711,1200.879883 733.707458,1200.879883 
	C733.707458,1190.415894 734.175171,1180.111328 733.537292,1169.875610 
	C733.135681,1163.432007 728.956726,1158.971313 722.441223,1157.237793 
	C714.360291,1155.087769 706.712341,1156.449341 698.949463,1160.084229 
	C699.679077,1161.887939 700.325012,1163.485107 700.942566,1165.011841 
	C704.836121,1164.034180 708.310486,1162.834351 711.883179,1162.327881 
	C721.337708,1160.987915 726.934570,1165.551758 726.518066,1175.034668 
M1183.462280,1156.849243 
	C1170.112671,1153.620117 1158.291504,1160.387451 1154.893188,1173.204346 
	C1151.649658,1185.437256 1158.319580,1197.627808 1170.184082,1201.151489 
	C1182.475220,1204.801880 1195.017822,1198.446045 1199.046997,1186.525391 
	C1203.257812,1174.067261 1197.004639,1161.554565 1183.462280,1156.849243 
M1697.249878,1198.871094 
	C1698.306885,1198.067017 1699.430542,1197.336304 1700.410156,1196.447144 
	C1707.482056,1190.027222 1709.621216,1182.002075 1707.372437,1172.935181 
	C1705.063477,1163.625732 1698.698853,1157.987305 1689.448608,1156.321411 
	C1680.042603,1154.627441 1672.000977,1157.715698 1666.290161,1165.628784 
	C1660.243896,1174.006470 1660.719116,1186.223511 1667.156738,1193.951538 
	C1674.240601,1202.455444 1684.960938,1204.377197 1697.249878,1198.871094 
M862.227112,1167.599854 
	C857.081970,1154.020752 844.304077,1151.963867 831.291016,1162.800903 
	C831.074402,1160.832642 830.871155,1158.985718 830.686707,1157.310303 
	C828.406311,1157.310303 826.513672,1157.310303 824.613770,1157.310303 
	C824.613770,1172.060913 824.613770,1186.444580 824.613770,1200.761230 
	C826.910095,1200.761230 828.816956,1200.761230 831.012817,1200.761230 
	C831.012817,1192.476074 830.725098,1184.488892 831.150696,1176.539917 
	C831.327393,1173.238159 832.368530,1169.577881 834.183411,1166.859619 
	C837.205322,1162.333618 843.427673,1160.973267 848.560852,1162.709839 
	C853.284485,1164.308105 856.068604,1168.313110 856.170959,1174.387695 
	C856.318970,1183.166260 856.208862,1191.949097 856.208862,1200.875977 
	C858.737183,1200.875977 860.665771,1200.875977 863.065125,1200.875977 
	C863.065125,1193.565186 863.126587,1186.445435 863.039551,1179.327637 
	C862.994995,1175.684326 862.684509,1172.044434 862.227112,1167.599854 
M1227.041748,1195.832031 
	C1220.108643,1193.728027 1217.216431,1190.059570 1217.136230,1182.846558 
	C1217.040894,1174.262573 1217.113892,1165.676636 1217.113892,1157.240723 
	C1214.482178,1157.240723 1212.560791,1157.240723 1210.821289,1157.240723 
	C1210.821289,1167.801758 1210.229492,1178.113037 1211.000732,1188.321289 
	C1211.666870,1197.139771 1218.152222,1201.894775 1227.068726,1202.082397 
	C1233.118652,1202.209595 1237.900879,1199.744507 1242.176758,1194.475952 
	C1242.332886,1197.244629 1242.430664,1198.976074 1242.538940,1200.894897 
	C1244.748291,1200.894897 1246.667847,1200.894897 1248.742432,1200.894897 
	C1248.742432,1186.208618 1248.742432,1171.683105 1248.742432,1157.283203 
	C1246.478394,1157.283203 1244.579102,1157.283203 1242.346191,1157.283203 
	C1242.346191,1165.415039 1242.378418,1173.209229 1242.338135,1181.003296 
	C1242.286255,1191.031616 1237.799683,1195.626099 1227.041748,1195.832031 
M1065.627808,1158.705078 
	C1056.423218,1153.898071 1048.154541,1155.065674 1040.695801,1163.314087 
	C1040.479858,1160.840942 1040.325684,1159.076782 1040.162354,1157.205688 
	C1038.036865,1157.205688 1036.131226,1157.205688 1034.187744,1157.205688 
	C1034.187744,1171.957275 1034.187744,1186.471191 1034.187744,1200.916504 
	C1036.382202,1200.916504 1038.194214,1200.916504 1040.445068,1200.916504 
	C1040.445068,1197.465698 1040.401611,1194.162476 1040.454590,1190.860840 
	C1040.550537,1184.879028 1040.385986,1178.869141 1040.927002,1172.925293 
	C1041.427246,1167.431274 1044.885864,1163.889038 1050.231323,1162.488892 
	C1059.009644,1160.189575 1065.625366,1165.613525 1065.826904,1175.413696 
	C1066.000366,1183.850586 1065.862915,1192.293823 1065.862915,1200.848389 
	C1068.276245,1200.848389 1070.187988,1200.848389 1072.232666,1200.848389 
	C1072.232666,1190.668213 1072.795776,1180.669800 1071.958374,1170.790039 
	C1071.618286,1166.776001 1068.231445,1163.019897 1065.627808,1158.705078 
M1147.719238,1194.141479 
	C1146.693237,1192.660278 1145.667236,1191.179077 1144.664551,1189.731323 
	C1132.529297,1197.719116 1125.136230,1197.950073 1118.859619,1190.877808 
	C1112.995972,1184.270874 1112.669800,1173.418945 1118.807495,1167.203979 
	C1121.206665,1164.774536 1124.825073,1163.003418 1128.191650,1162.193481 
	C1134.375977,1160.705200 1139.207764,1164.319458 1143.667725,1168.354370 
	C1145.154663,1166.792603 1146.383301,1165.502075 1147.547852,1164.279053 
	C1143.312256,1156.551270 1128.860596,1152.792725 1118.782349,1159.034302 
	C1110.324951,1164.271851 1106.748901,1172.101440 1107.795776,1181.940674 
	C1108.788330,1191.269775 1113.900513,1197.791992 1122.624146,1200.814087 
	C1131.913330,1204.032104 1140.338501,1201.911743 1147.719238,1194.141479 
M1861.942505,1198.646729 
	C1873.331665,1204.730469 1884.827515,1202.726318 1891.845947,1193.294800 
	C1890.553833,1192.136108 1889.249634,1190.966553 1888.015747,1189.860107 
	C1877.626343,1197.622681 1869.479370,1198.037720 1863.209839,1191.379272 
	C1856.901978,1184.680054 1856.552124,1174.017944 1862.417847,1167.241821 
	C1868.635254,1160.058960 1876.192261,1160.283325 1886.505249,1167.316406 
	C1888.488525,1166.264893 1890.249634,1165.331299 1892.173096,1164.311646 
	C1885.232544,1156.842163 1877.606812,1154.549683 1868.855469,1156.613403 
	C1859.549683,1158.807983 1853.840576,1164.966553 1851.955444,1174.248047 
	C1849.952637,1184.109009 1853.100586,1192.239380 1861.942505,1198.646729 
M1298.937744,1191.972290 
	C1300.955566,1199.924194 1306.355835,1203.269165 1314.622559,1201.687622 
	C1319.615723,1200.732178 1320.011475,1200.033691 1318.495361,1194.667847 
	C1316.901367,1195.048462 1315.319214,1195.607544 1313.695923,1195.779907 
	C1308.982666,1196.279907 1305.815552,1193.796265 1305.711548,1189.103149 
	C1305.520874,1180.514648 1305.657227,1171.918823 1305.657227,1162.765137 
	C1310.521240,1162.765137 1314.922119,1162.765137 1319.362549,1162.765137 
	C1319.362549,1160.600464 1319.362549,1159.004272 1319.362549,1156.863037 
	C1314.712280,1156.863037 1310.305786,1156.863037 1305.550537,1156.863037 
	C1305.550537,1152.207397 1305.550537,1148.094238 1305.550537,1143.875122 
	C1303.144165,1143.875122 1301.121704,1143.875122 1298.736816,1143.875122 
	C1298.736816,1148.351562 1298.736816,1152.468872 1298.736816,1156.744019 
	C1296.626099,1156.881836 1294.871460,1156.996460 1293.130005,1157.110229 
	C1293.130005,1159.159790 1293.130005,1160.896729 1293.130005,1162.644531 
	C1295.175049,1162.885498 1296.914673,1163.090576 1298.925293,1163.327515 
	C1298.925293,1172.804199 1298.925293,1181.938721 1298.937744,1191.972290 
M1741.189575,1157.064575 
	C1736.930908,1157.064575 1732.672241,1157.064575 1728.025879,1157.064575 
	C1728.025879,1152.194702 1728.025879,1148.104858 1728.025879,1143.954102 
	C1725.587036,1143.954102 1723.561523,1143.954102 1721.098633,1143.954102 
	C1721.098633,1148.477173 1721.098633,1152.567017 1721.098633,1156.663574 
	C1718.917847,1156.901733 1717.172852,1157.092407 1715.372314,1157.289062 
	C1715.372314,1159.191406 1715.372314,1160.777832 1715.372314,1162.475220 
	C1717.480103,1162.789673 1719.364502,1163.070801 1721.256836,1163.353027 
	C1721.256836,1171.906006 1721.202759,1180.052612 1721.270508,1188.198120 
	C1721.354858,1198.319458 1727.332153,1203.444458 1736.893311,1201.797974 
	C1741.007568,1201.089478 1743.291992,1199.358643 1741.461182,1194.790894 
	C1739.586426,1195.151367 1737.801392,1195.759277 1736.008545,1195.782959 
	C1732.501953,1195.829468 1728.731201,1195.018188 1728.549194,1190.888062 
	C1728.142578,1181.669312 1728.422119,1172.420288 1728.422119,1162.831543 
	C1733.053345,1162.831543 1737.328369,1162.831543 1741.917114,1162.831543 
	C1741.917114,1160.866699 1741.917114,1159.258179 1741.189575,1157.064575 
M926.355896,1156.932739 
	C924.929626,1157.027344 923.503296,1157.121948 921.861450,1157.230835 
	C921.970337,1159.250122 922.056885,1160.854736 922.157898,1162.727783 
	C924.148804,1162.848389 925.891602,1162.953979 928.003357,1163.081909 
	C928.003357,1172.007812 927.893005,1180.622681 928.033020,1189.233521 
	C928.187561,1198.732910 934.732605,1203.694336 944.058228,1201.725708 
	C948.037170,1200.885742 949.721802,1198.943726 948.135559,1194.790283 
	C946.055969,1195.166138 944.115173,1195.813599 942.178162,1195.802490 
	C938.624573,1195.781982 935.207092,1194.671265 935.083313,1190.483032 
	C934.815369,1181.416870 935.000732,1172.337280 935.000732,1162.687378 
	C939.842529,1162.687378 944.224365,1162.687378 948.891907,1162.687378 
	C948.769409,1160.497314 948.680481,1158.907349 948.565063,1156.843506 
	C943.850830,1156.843506 939.447937,1156.843506 934.558289,1156.843506 
	C934.558289,1152.127441 934.558289,1147.906250 934.558289,1143.802490 
	C932.117065,1143.802490 930.185486,1143.802490 928.402283,1143.802490 
	C928.007446,1148.355469 927.640930,1152.581665 926.355896,1156.932739 
M1978.894653,1190.487793 
	C1978.899902,1188.655762 1978.894531,1186.823486 1978.911865,1184.991577 
	C1979.044312,1171.054810 1983.154053,1165.927002 1996.716309,1162.850586 
	C1996.716309,1160.763428 1996.716309,1158.664429 1996.716309,1156.321655 
	C1988.582642,1155.445068 1983.869263,1160.398438 1978.831787,1166.921631 
	C1978.831787,1162.862427 1978.831787,1160.129883 1978.831787,1157.322998 
	C1976.358765,1157.322998 1974.344482,1157.322998 1972.462646,1157.322998 
	C1972.462646,1172.111938 1972.462646,1186.495850 1972.462646,1200.733398 
	C1974.765625,1200.733398 1976.677124,1200.733398 1978.894775,1200.733398 
	C1978.894775,1197.417480 1978.894775,1194.442871 1978.894653,1190.487793 
M1276.746704,1159.150391 
	C1274.362061,1161.087280 1271.977295,1163.024292 1269.849609,1164.752563 
	C1269.752930,1162.842773 1269.615601,1160.126465 1269.472290,1157.294189 
	C1267.151733,1157.294189 1265.125122,1157.294189 1263.185669,1157.294189 
	C1263.185669,1172.031494 1263.185669,1186.419434 1263.185669,1200.813477 
	C1265.404785,1200.813477 1267.319458,1200.813477 1269.888794,1200.813477 
	C1269.888794,1193.596436 1269.581055,1186.628296 1269.966797,1179.698730 
	C1270.446533,1171.084839 1275.645508,1165.393433 1283.757446,1163.691040 
	C1285.003906,1163.429321 1286.235352,1163.095825 1287.613647,1162.761597 
	C1287.508057,1160.418701 1287.414551,1158.344238 1287.271362,1155.164185 
	C1283.444946,1156.570679 1280.418579,1157.683105 1276.746704,1159.150391 
M1951.052368,1196.335571 
	C1951.125122,1197.788696 1951.197876,1199.241943 1951.270630,1200.696045 
	C1953.610352,1200.696045 1955.642456,1200.696045 1957.560547,1200.696045 
	C1957.560547,1185.929199 1957.560547,1171.544800 1957.560547,1157.241699 
	C1955.277588,1157.241699 1953.355957,1157.241699 1951.052734,1157.241699 
	C1951.052734,1170.144043 1951.052734,1182.755981 1951.052368,1196.335571 
M810.026245,1178.500000 
	C810.026245,1171.412598 810.026245,1164.325195 810.026245,1157.218750 
	C807.525513,1157.218750 805.615540,1157.218750 803.480103,1157.218750 
	C803.480103,1171.852783 803.480103,1186.221558 803.480103,1200.725342 
	C805.744385,1200.725342 807.764709,1200.725342 810.026245,1200.725342 
	C810.026245,1193.410522 810.026245,1186.455322 810.026245,1178.500000 
M1834.267090,1140.749512 
	C1832.251709,1139.766113 1830.236328,1138.782715 1828.146729,1137.763062 
	C1825.420532,1141.990356 1822.962280,1145.802246 1819.718262,1150.832520 
	C1822.870361,1150.155396 1825.093384,1150.298706 1826.394043,1149.272827 
	C1829.344360,1146.945923 1831.840576,1144.043457 1834.267090,1140.749512 
M809.727966,1147.246216 
	C810.057617,1144.959106 810.387268,1142.671875 810.743103,1140.202881 
	C807.719421,1140.202881 805.482849,1140.202881 803.207520,1140.202881 
	C803.207520,1142.667114 803.207520,1144.875610 803.207520,1147.360352 
	C805.320740,1147.360352 807.118591,1147.360352 809.727966,1147.246216 
M1956.472290,1147.306885 
	C1957.241699,1145.087524 1958.011108,1142.868164 1958.901611,1140.299561 
	C1955.371948,1140.299561 1953.161621,1140.299561 1950.967773,1140.299561 
	C1950.967773,1142.685547 1950.967773,1144.764893 1950.967773,1147.323120 
	C1952.621460,1147.323120 1954.053467,1147.323120 1956.472290,1147.306885 
z"/>
<path fill="#12ABC2" opacity="1.000000" stroke="none" 
	d="
M1144.535400,0.999992 
	C1150.467896,3.659945 1156.585693,5.489037 1161.268555,9.152402 
	C1171.092651,16.837616 1173.704102,27.771797 1171.669434,39.713051 
	C1166.810547,68.229942 1161.697754,96.703499 1156.710083,125.198509 
	C1149.798096,164.687775 1142.856323,204.172012 1136.102539,243.688354 
	C1135.564453,246.836182 1134.377563,248.321426 1131.406616,249.084778 
	C1091.466187,259.346741 1051.542725,269.674103 1011.615601,279.987732 
	C986.349060,286.514343 961.083618,293.045135 934.739990,299.852570 
	C935.622864,293.504852 936.269653,287.693390 937.256470,281.940277 
	C946.478577,228.174667 955.735413,174.414948 965.036926,120.663025 
	C967.872009,104.279861 971.006653,87.947968 973.771912,71.553429 
	C977.329590,50.460285 990.164917,37.604034 1010.118103,32.285561 
	C1050.126099,21.621593 1090.338623,11.725882 1130.733398,1.256521 
	C1135.356934,1.000000 1139.713745,1.000000 1144.535400,0.999992 
z"/>
<path fill="#314053" opacity="1.000000" stroke="none" 
	d="
M234.012985,1081.707764 
	C214.407944,1081.707764 194.802887,1081.707764 174.794998,1081.707764 
	C174.794998,1044.704834 174.794998,1007.966431 174.794998,970.785400 
	C137.068207,970.785400 99.745087,970.785400 62.063717,970.785400 
	C62.063717,1007.783997 62.063717,1044.529419 62.063717,1081.916138 
	C41.786655,1081.916138 21.860380,1081.916138 1.467052,1081.958008 
	C1.000000,999.645752 1.000000,917.291565 1.000003,834.468628 
	C12.604465,831.142029 24.219187,828.324890 35.809978,825.412537 
	C44.344818,823.268005 52.848362,820.998779 61.874260,818.653015 
	C61.874260,850.416443 61.874260,881.794739 61.874260,913.609375 
	C99.525070,913.609375 136.736420,913.609375 174.626297,913.609375 
	C174.626297,911.751343 174.626495,909.803772 174.626266,907.856262 
	C174.621841,870.025818 174.692871,832.194946 174.502350,794.365417 
	C174.482101,790.342712 175.820023,789.009094 179.487213,788.100586 
	C196.753479,783.823608 213.947617,779.255371 231.788330,775.178833 
	C232.940292,777.701172 233.934265,779.835266 233.935974,781.970154 
	C234.015869,881.882629 234.009491,981.795227 234.012985,1081.707764 
z"/>
<path fill="#314053" opacity="1.000000" stroke="none" 
	d="
M2049.000000,1081.531494 
	C2030.014038,1081.929688 2011.027954,1081.861328 1992.042114,1081.768555 
	C1991.758545,1081.767090 1991.476562,1081.459717 1990.842651,1081.090820 
	C1990.842651,1074.373047 1990.842651,1067.446777 1990.842651,1059.523682 
	C1989.123779,1060.976807 1988.030151,1061.786133 1987.069214,1062.730469 
	C1968.009033,1081.458862 1944.570801,1087.246704 1918.753174,1085.538330 
	C1905.819214,1084.682373 1893.471313,1081.339600 1882.383911,1074.364868 
	C1863.207153,1062.301392 1853.941895,1044.606445 1853.579468,1022.181763 
	C1852.993530,985.943237 1872.095825,962.843323 1909.575562,955.016235 
	C1935.513306,949.599548 1961.223999,951.442749 1986.526733,959.216431 
	C1987.479126,959.509033 1988.419922,959.841370 1989.379395,960.107300 
	C1989.684204,960.191772 1990.032349,960.120422 1990.357056,960.120422 
	C1993.061279,944.131104 1984.684448,927.691467 1968.114990,921.963623 
	C1954.993896,917.427856 1941.435547,917.552673 1928.107544,919.655151 
	C1914.250977,921.841003 1900.643677,925.606506 1886.447266,928.788879 
	C1881.779541,914.566895 1876.828369,899.481018 1871.422729,883.010559 
	C1884.057739,879.086975 1896.171143,874.484497 1908.682251,871.618286 
	C1933.400146,865.955627 1958.473877,864.718689 1983.504517,869.672180 
	C2021.677856,877.226624 2043.427246,901.052307 2047.908203,939.618164 
	C2048.023438,940.609680 2048.166748,941.597961 2048.648438,942.793884 
	C2049.000000,989.020935 2049.000000,1035.041870 2049.000000,1081.531494 
M1913.682373,1007.486816 
	C1908.116699,1025.449585 1915.817749,1039.139038 1934.157593,1042.879639 
	C1939.769043,1044.024292 1945.749268,1044.103882 1951.495850,1043.714111 
	C1977.931152,1041.920776 1992.483521,1025.963013 1991.941406,999.989624 
	C1991.886719,997.366516 1991.376953,995.863159 1988.629883,994.815613 
	C1971.589722,988.317993 1954.155762,986.226868 1936.291992,990.219116 
	C1926.573730,992.390930 1918.263184,996.999207 1913.682373,1007.486816 
z"/>
<path fill="#3A4552" opacity="1.000000" stroke="none" 
	d="
M1391.464600,1215.000000 
	C1386.871460,1213.151367 1382.742920,1211.302734 1378.140503,1209.241943 
	C1379.314331,1207.072266 1380.209717,1205.417358 1381.181152,1203.621704 
	C1390.029053,1209.038452 1398.908325,1211.725098 1408.293701,1206.423462 
	C1412.999878,1203.765015 1414.598389,1198.388550 1413.862305,1189.350586 
	C1409.012329,1194.673706 1403.619995,1198.041504 1396.823975,1197.806396 
	C1390.019897,1197.571045 1384.167969,1195.032593 1380.070190,1189.375854 
	C1374.036621,1181.047363 1375.004639,1169.220337 1382.187622,1161.860718 
	C1390.131592,1153.721558 1401.386353,1154.081421 1413.917725,1163.189819 
	C1414.026367,1161.166504 1414.119385,1159.434570 1414.233154,1157.313721 
	C1416.255859,1157.313721 1418.309937,1157.313721 1420.930908,1157.313721 
	C1420.930908,1164.351440 1420.933228,1171.453003 1420.930176,1178.554688 
	C1420.927734,1183.882080 1421.074707,1189.215332 1420.879028,1194.535767 
	C1420.483887,1205.281494 1415.579468,1211.367065 1405.121826,1214.650391 
	C1400.643066,1215.000000 1396.286255,1215.000000 1391.464600,1215.000000 
M1412.005249,1168.765625 
	C1411.232544,1167.894775 1410.531982,1166.944458 1409.675537,1166.165527 
	C1401.691406,1158.902588 1387.972290,1161.289551 1384.245483,1170.566284 
	C1381.469604,1177.475952 1383.403442,1184.656250 1389.162842,1188.824707 
	C1394.990601,1193.042847 1403.429688,1192.688599 1409.151978,1187.985474 
	C1414.579956,1183.524170 1415.755371,1176.944580 1412.005249,1168.765625 
z"/>
<path fill="#3A4552" opacity="1.000000" stroke="none" 
	d="
M1609.437500,1215.000000 
	C1609.000000,1195.875366 1609.000000,1176.750854 1609.000000,1157.288818 
	C1611.343140,1157.288818 1613.372070,1157.288818 1615.808105,1157.288818 
	C1615.808105,1159.519409 1615.808105,1161.588745 1615.808105,1164.896362 
	C1621.416870,1158.350952 1627.620361,1154.453125 1635.102051,1156.269531 
	C1639.808594,1157.411987 1644.742676,1160.120850 1648.166748,1163.537842 
	C1656.132446,1171.486938 1655.483032,1187.214966 1647.692993,1195.516846 
	C1639.463867,1204.286255 1629.152222,1204.118286 1615.838257,1194.403687 
	C1615.838257,1201.350220 1615.838257,1207.712524 1615.919189,1214.537354 
	C1613.958374,1215.000000 1611.916626,1215.000000 1609.437500,1215.000000 
M1646.539551,1175.266602 
	C1646.317993,1174.466797 1646.150635,1173.647339 1645.866821,1172.870361 
	C1642.567383,1163.839844 1633.276001,1159.529785 1625.063599,1163.204346 
	C1616.522583,1167.026001 1612.833618,1178.899658 1617.502808,1187.540039 
	C1621.935181,1195.742188 1631.959473,1198.564209 1639.686768,1193.549805 
	C1646.020752,1189.439575 1647.244385,1183.060059 1646.539551,1175.266602 
z"/>
<path fill="#3A4552" opacity="1.000000" stroke="none" 
	d="
M1560.458008,1215.000000 
	C1559.096436,1214.183472 1558.192871,1213.366821 1557.070557,1212.352539 
	C1557.654785,1210.961914 1558.275635,1209.483887 1558.873047,1208.061646 
	C1568.168335,1209.941406 1570.578003,1209.420532 1573.238525,1204.018311 
	C1574.094971,1202.279541 1574.222900,1199.511841 1573.455078,1197.750854 
	C1568.008179,1185.258667 1562.235718,1172.908691 1556.589600,1160.503052 
	C1556.130249,1159.494019 1555.838989,1158.408569 1555.487183,1157.408325 
	C1560.656250,1155.622925 1563.070923,1157.702393 1564.883423,1162.393066 
	C1568.295410,1171.223633 1572.351562,1179.806030 1576.169678,1188.478394 
	C1576.747192,1189.790039 1577.484497,1191.031372 1578.516479,1193.012939 
	C1582.632446,1182.316284 1586.655273,1172.479858 1590.163086,1162.463257 
	C1591.730103,1157.988525 1593.841553,1155.676880 1599.322510,1157.411133 
	C1597.612183,1161.646973 1595.908813,1165.863159 1594.207520,1170.079956 
	C1589.791382,1181.026123 1585.456665,1192.006104 1580.923340,1202.903320 
	C1578.933472,1207.686646 1576.532837,1212.296143 1571.111572,1214.673584 
	C1567.638672,1215.000000 1564.277466,1215.000000 1560.458008,1215.000000 
z"/>
<path fill="#12ABC2" opacity="1.000000" stroke="none" 
	d="
M805.936829,345.844971 
	C801.939636,369.051117 798.098633,391.845276 794.018311,414.596527 
	C792.269714,424.346497 791.620667,434.353149 785.833557,443.103851 
	C777.723694,455.366699 766.306641,462.105560 752.342224,465.617340 
	C715.591125,474.859406 678.889099,484.298157 642.198669,493.779022 
	C630.509216,496.799591 619.119507,497.286743 608.467773,490.630371 
	C596.804138,483.341553 591.754822,471.198639 594.209167,456.970825 
	C603.000610,406.005798 611.838623,355.048767 620.617065,304.081482 
	C629.058044,255.073715 637.495239,206.065186 645.836182,157.040329 
	C649.388611,136.160980 662.004822,123.315971 681.804443,117.974281 
	C720.966919,107.408730 760.297852,97.460007 799.621094,87.501053 
	C820.000183,82.339890 839.092163,91.874435 843.080078,110.284149 
	C844.798767,118.217926 843.240662,127.146805 841.884766,135.412628 
	C835.558716,173.977875 828.778198,212.468521 822.170654,250.987640 
	C816.771484,282.462311 811.387024,313.939545 805.936829,345.844971 
z"/>
<path fill="#12ABC2" opacity="1.000000" stroke="none" 
	d="
M1212.713379,506.648254 
	C1217.285156,479.820038 1221.785645,453.420563 1226.296387,427.022827 
	C1232.543335,390.463623 1238.784912,353.903473 1245.054321,317.348083 
	C1249.356201,292.264221 1253.074341,267.057678 1258.239502,242.151978 
	C1261.919922,224.404373 1273.977051,212.796600 1291.292725,208.065781 
	C1326.100708,198.555923 1361.110596,189.779495 1396.083130,180.881836 
	C1404.260010,178.801529 1412.558960,176.476349 1420.909058,175.943253 
	C1443.139771,174.524017 1459.381592,192.821243 1455.257324,214.844757 
	C1449.533936,245.407501 1444.536621,276.106812 1439.293335,306.758759 
	C1433.544922,340.364288 1427.898315,373.987274 1422.155518,407.593781 
	C1416.104614,443.004059 1409.888794,478.386475 1403.946167,513.814819 
	C1400.358643,535.201111 1387.790405,548.482178 1367.303345,553.911682 
	C1328.072510,564.308472 1288.704224,574.188660 1249.360596,584.155334 
	C1230.641357,588.897400 1212.834961,580.312683 1206.986450,563.598328 
	C1205.596802,559.626709 1204.754272,554.988525 1205.328003,550.890442 
	C1207.380127,536.231995 1210.148804,521.673828 1212.713379,506.648254 
z"/>
<path fill="#13ABC2" opacity="1.000000" stroke="none" 
	d="
M911.171448,438.230743 
	C911.651794,435.682251 912.483154,433.537842 912.380188,431.439331 
	C912.046814,424.646027 916.116394,422.927917 921.816223,421.481750 
	C970.296326,409.181335 1018.706055,396.603333 1067.137817,384.112488 
	C1080.811523,380.585938 1094.486694,377.064819 1108.166626,373.562408 
	C1109.930786,373.110748 1111.727661,372.787079 1114.358276,372.221649 
	C1113.137817,380.340118 1112.123657,388.017975 1110.813965,395.645142 
	C1103.301514,439.392700 1095.740723,483.132050 1088.151123,526.866333 
	C1083.829346,551.770203 1079.523926,576.677612 1075.019287,601.548645 
	C1071.491333,621.026794 1059.494873,633.705444 1040.932251,638.766357 
	C1001.013245,649.649658 960.840637,659.614563 920.698059,669.660461 
	C907.010010,673.086060 894.585693,670.185120 884.559448,659.667542 
	C877.427246,652.185852 875.621765,642.896423 877.254089,633.206116 
	C883.410400,596.660645 889.961487,560.181824 896.333069,523.672424 
	C901.277954,495.337830 906.175781,466.995026 911.171448,438.230743 
z"/>
<path fill="#314054" opacity="1.000000" stroke="none" 
	d="
M706.401245,1044.392334 
	C681.652344,1080.522705 636.228516,1095.303833 597.047363,1080.182251 
	C585.831299,1075.853516 576.238770,1069.127197 568.001831,1060.406738 
	C566.434326,1058.747070 564.758118,1057.190063 562.318237,1054.782593 
	C562.318237,1058.160522 562.317688,1060.569214 562.318298,1062.978027 
	C562.324463,1088.804565 562.266785,1114.631592 562.411682,1140.457397 
	C562.431519,1143.997681 561.625977,1145.692139 557.883789,1146.615723 
	C539.489807,1151.156128 521.180176,1156.038330 502.415619,1160.910156 
	C502.415619,1063.585693 502.415619,966.602905 502.415619,869.364685 
	C522.321167,869.364685 542.053345,869.364685 562.169678,869.364685 
	C562.169678,878.946350 562.169678,888.350403 562.169678,898.813599 
	C563.727051,897.330261 564.695435,896.610962 565.413025,895.695190 
	C592.738403,860.819946 635.797302,858.989746 667.853882,873.990662 
	C697.960571,888.079102 715.186035,912.650024 721.943054,944.550476 
	C728.879822,977.299072 726.227966,1009.133362 709.783203,1039.024048 
	C708.823242,1040.768921 707.675903,1042.410767 706.401245,1044.392334 
M594.723877,920.115051 
	C587.212708,923.230896 580.608887,927.684631 575.640442,934.150696 
	C558.647156,956.266052 557.413940,980.493347 568.167969,1005.198853 
	C575.912659,1022.990723 590.553040,1033.220581 610.148804,1034.405273 
	C629.483704,1035.574341 644.704895,1027.306763 655.261047,1011.092957 
	C664.928101,996.244812 666.440735,979.765747 663.929504,962.633545 
	C658.955261,928.697754 627.271484,908.885559 594.723877,920.115051 
z"/>
<path fill="#313F53" opacity="1.000000" stroke="none" 
	d="
M1255.104858,878.066895 
	C1280.862671,858.901489 1321.075073,862.996094 1341.290039,878.929016 
	C1356.427734,890.860107 1363.896851,906.958130 1366.839966,925.455750 
	C1367.829590,931.674744 1368.198364,938.050842 1368.214722,944.356873 
	C1368.329956,988.853699 1368.280884,1033.350952 1368.273926,1077.848022 
	C1368.273804,1078.995239 1368.157593,1080.142456 1368.078491,1081.606934 
	C1348.199829,1081.606934 1328.450806,1081.606934 1308.023804,1081.606934 
	C1308.023804,1079.767700 1308.023682,1078.008667 1308.023682,1076.249634 
	C1308.023560,1038.585327 1308.038330,1000.921143 1308.012939,963.256897 
	C1308.006592,953.836365 1306.891357,944.563843 1302.029907,936.281311 
	C1293.163452,921.174927 1272.384888,915.501221 1255.392944,923.117310 
	C1242.889282,928.721802 1237.000488,938.935181 1234.954956,951.829529 
	C1234.279663,956.086304 1234.038208,960.451782 1234.030029,964.768372 
	C1233.960083,1001.765869 1233.989258,1038.763550 1233.988892,1075.761230 
	C1233.988892,1077.577148 1233.989014,1079.393066 1233.989014,1081.572388 
	C1213.981934,1081.572388 1194.249268,1081.572388 1174.108887,1081.572388 
	C1174.108887,984.398315 1174.108887,887.169800 1174.108887,789.189880 
	C1193.509766,784.113525 1213.363647,778.918762 1233.860596,773.555664 
	C1233.860596,815.275452 1233.860596,856.437744 1233.860596,897.687805 
	C1241.070312,891.007141 1247.940918,884.640625 1255.104858,878.066895 
z"/>
<path fill="#314053" opacity="1.000000" stroke="none" 
	d="
M976.983704,944.002380 
	C992.428894,998.234436 966.980225,1054.484619 915.903992,1075.977173 
	C871.798767,1094.536499 829.381714,1090.457642 791.192810,1060.748901 
	C749.069031,1027.979004 738.558777,964.448853 767.281982,919.176575 
	C792.404114,879.579956 829.729492,863.267883 875.617676,865.711365 
	C906.876709,867.375916 933.504150,879.869751 954.586243,903.347290 
	C965.083984,915.037842 972.357178,928.586853 976.983704,944.002380 
M894.229492,1027.773315 
	C896.175476,1026.501587 898.252502,1025.391113 900.047180,1023.933289 
	C918.854919,1008.654724 924.747864,988.348450 920.845520,965.385315 
	C913.093872,919.771057 865.439819,905.211548 833.956848,927.186951 
	C816.682983,939.244202 810.666626,957.268982 811.002502,977.728088 
	C811.714661,1021.109009 855.515137,1047.808105 894.229492,1027.773315 
z"/>
<path fill="#324054" opacity="1.000000" stroke="none" 
	d="
M1610.101196,993.032349 
	C1610.101196,993.032349 1610.235352,993.509705 1609.916504,993.847656 
	C1609.398560,994.456787 1609.199341,994.728027 1609.000000,994.999634 
	C1609.000000,995.000000 1609.000000,995.000916 1608.531372,994.999390 
	C1562.356812,994.997986 1516.651001,994.982483 1470.945190,995.050293 
	C1468.928955,995.053284 1466.913696,995.817505 1464.897949,996.227173 
	C1464.359619,997.612122 1463.108398,999.164612 1463.388672,1000.357300 
	C1468.393066,1021.654175 1485.944458,1036.182007 1507.819336,1037.927490 
	C1528.976318,1039.615601 1547.120361,1033.085571 1562.756348,1019.005615 
	C1563.615723,1018.231812 1564.507202,1017.493713 1565.822998,1016.360718 
	C1577.260132,1026.491577 1588.648804,1036.579224 1600.302124,1046.901611 
	C1586.713501,1063.829224 1570.013794,1075.840454 1549.397461,1081.474365 
	C1512.179443,1091.644897 1476.667969,1088.017944 1444.686646,1065.067139 
	C1420.034302,1047.375854 1407.025513,1022.340820 1403.362183,992.643127 
	C1399.559814,961.819946 1405.295532,932.789001 1423.973145,907.411926 
	C1446.612671,876.652039 1477.756714,863.432190 1515.539795,865.550232 
	C1542.235840,867.046814 1565.442871,876.648865 1583.230347,897.183167 
	C1599.471680,915.932739 1607.319092,938.332397 1609.904175,962.683899 
	C1610.727783,970.440369 1610.575073,978.300415 1610.413818,986.678833 
	C1610.006104,989.173889 1610.053589,991.103088 1610.101196,993.032349 
M1498.413086,914.650330 
	C1478.092407,918.070374 1463.781494,938.275330 1462.302612,958.596924 
	C1492.158081,958.596924 1522.010742,958.596924 1551.896118,958.596924 
	C1548.815186,930.406494 1529.586670,909.685242 1498.413086,914.650330 
z"/>
<path fill="#324053" opacity="1.000000" stroke="none" 
	d="
M337.585022,1103.625488 
	C345.615875,1095.911499 346.749939,1087.613647 342.763306,1077.495239 
	C316.125702,1009.886841 289.805908,942.153137 263.393066,874.456177 
	C262.802399,872.942322 262.331543,871.381653 261.661591,869.424316 
	C282.971832,869.424316 303.860413,869.424316 325.367950,869.424316 
	C341.245483,916.895569 357.240753,964.718750 373.633240,1013.729614 
	C389.316284,964.814148 404.631134,917.047180 419.959045,869.239380 
	C440.749298,869.239380 461.214142,869.239380 482.484100,869.239380 
	C480.706879,874.251038 479.104279,879.012390 477.338654,883.712585 
	C453.999939,945.841064 430.799988,1008.022461 407.175598,1070.042114 
	C400.796692,1086.788452 393.949097,1103.471313 385.713501,1119.351807 
	C380.835724,1128.757690 373.492859,1137.184692 366.057434,1144.893433 
	C355.318329,1156.027344 341.503052,1160.996826 325.931549,1160.986084 
	C311.437286,1160.976074 297.562378,1158.276489 284.007996,1152.210815 
	C286.836700,1135.704468 289.631958,1119.393188 292.443115,1102.989014 
	C307.500122,1109.260498 322.242798,1116.802368 337.585022,1103.625488 
z"/>
<path fill="#314053" opacity="1.000000" stroke="none" 
	d="
M1827.742432,1040.274658 
	C1830.414551,1042.557861 1832.841919,1044.582520 1835.152710,1046.510010 
	C1808.640381,1080.522949 1765.927612,1093.990234 1720.154175,1083.110962 
	C1673.145508,1071.938354 1641.095825,1032.999390 1637.800537,985.078613 
	C1634.370239,935.197449 1660.617065,891.505920 1705.356201,873.491150 
	C1744.199951,857.850220 1802.048584,862.385498 1833.664429,901.143127 
	C1821.577515,914.167114 1809.425171,927.261597 1797.744873,939.847351 
	C1789.907959,934.175903 1782.988281,927.660706 1774.854248,923.545044 
	C1741.263916,906.548584 1704.578369,925.295654 1698.269531,962.466309 
	C1694.537720,984.452942 1698.412354,1004.724609 1715.151733,1020.806458 
	C1730.978516,1036.011719 1756.477295,1039.261963 1776.964600,1028.432373 
	C1785.107666,1024.127930 1792.343506,1018.107605 1799.963501,1012.888245 
	C1808.777344,1021.571960 1818.137451,1030.793945 1827.742432,1040.274658 
z"/>
<path fill="#314053" opacity="1.000000" stroke="none" 
	d="
M1133.789795,869.115906 
	C1135.240967,870.050476 1137.047485,870.976501 1137.057495,871.921814 
	C1137.230957,888.052856 1137.181885,904.186279 1137.181885,920.876831 
	C1120.457642,920.876831 1104.064819,920.876831 1087.209106,920.876831 
	C1087.209106,923.217712 1087.209351,925.005615 1087.208984,926.793457 
	C1087.204834,954.113647 1087.198242,981.433838 1087.197021,1008.754028 
	C1087.196167,1027.361938 1093.138184,1033.413330 1111.649414,1031.824585 
	C1119.769043,1031.127686 1127.699463,1028.224487 1136.075073,1026.237671 
	C1136.122803,1026.728638 1136.339722,1027.938477 1136.342651,1029.148804 
	C1136.374146,1042.474121 1136.483398,1055.801514 1136.255371,1069.122803 
	C1136.222656,1071.032349 1135.020630,1073.869019 1133.510620,1074.664185 
	C1110.275757,1086.899048 1085.781372,1088.757935 1060.890625,1081.369751 
	C1040.217896,1075.233521 1031.153076,1059.099976 1028.215332,1038.913086 
	C1027.331787,1032.841919 1027.066162,1026.637329 1027.043213,1020.492065 
	C1026.925415,989.007629 1026.979370,957.522583 1026.973267,926.037720 
	C1026.973022,924.562012 1026.973267,923.086304 1026.973267,921.187134 
	C1018.632812,921.187134 1010.540894,921.187134 1001.980774,921.187134 
	C1001.980774,903.759094 1001.980774,886.747009 1001.980774,869.312256 
	C1009.999268,869.312256 1018.100708,869.312256 1026.666382,869.312256 
	C1026.666382,855.339172 1026.666382,841.768250 1026.666382,827.676270 
	C1046.828247,822.401184 1066.683105,817.206421 1087.082520,811.869141 
	C1087.082520,830.946777 1087.082520,849.663452 1087.082520,869.116333 
	C1102.805786,869.116333 1118.057495,869.116333 1133.789795,869.115906 
z"/>
<path fill="#3A4552" opacity="1.000000" stroke="none" 
	d="
M791.281067,1183.265015 
	C786.899841,1202.849487 769.657532,1207.856201 753.963074,1194.083618 
	C753.790955,1196.393799 753.639465,1198.427246 753.465454,1200.762817 
	C751.435913,1200.762817 749.509705,1200.762817 747.238464,1200.762817 
	C747.238464,1180.374390 747.238464,1159.812378 747.238464,1138.948975 
	C749.108887,1138.948975 751.040833,1138.948975 753.483154,1138.948975 
	C753.483154,1147.147095 753.483154,1155.369385 753.483154,1163.974854 
	C754.452820,1163.603882 754.977112,1163.565552 755.227234,1163.283813 
	C761.417358,1156.312256 768.998047,1154.127563 777.753540,1157.257080 
	C786.249329,1160.293823 791.529053,1168.584839 791.682373,1178.376587 
	C791.705688,1179.864624 791.454773,1181.356812 791.281067,1183.265015 
M783.740784,1185.791748 
	C784.086853,1183.334961 784.726074,1180.877930 784.724121,1178.421387 
	C784.718384,1171.103027 780.313965,1164.921509 773.852173,1162.734375 
	C767.838074,1160.698853 761.387878,1162.700684 757.067139,1168.239258 
	C752.691772,1173.848022 752.112610,1180.159790 755.035706,1186.500366 
	C757.813599,1192.525757 762.690674,1196.064087 769.547363,1195.985596 
	C776.181213,1195.909668 780.861023,1192.723877 783.740784,1185.791748 
z"/>
<path fill="#3A4552" opacity="1.000000" stroke="none" 
	d="
M643.383057,1161.856689 
	C639.854248,1174.811401 643.205200,1185.736572 652.417053,1192.013062 
	C660.053589,1197.216187 670.281006,1197.182739 678.230896,1191.859375 
	C680.150146,1190.574219 681.941162,1189.097412 684.133972,1187.451416 
	C685.567322,1188.692383 687.010437,1189.941772 688.436462,1191.176270 
	C678.406372,1204.298584 657.645142,1205.943359 644.984436,1194.903076 
	C631.983704,1183.566406 631.174255,1161.323364 643.322876,1149.249023 
	C655.794922,1136.853271 676.570740,1137.097168 688.051514,1150.002197 
	C686.780273,1151.428223 685.483765,1152.882568 683.873291,1154.689087 
	C676.411987,1148.317993 668.171753,1144.733398 658.267944,1147.673096 
	C651.044678,1149.817139 646.417480,1154.735352 643.383057,1161.856689 
z"/>
<path fill="#3B4755" opacity="1.000000" stroke="none" 
	d="
M1508.975830,1174.000000 
	C1508.975830,1162.040527 1508.975830,1150.581177 1508.975830,1138.886230 
	C1511.308960,1138.886230 1513.244141,1138.886230 1515.582764,1138.886230 
	C1515.582764,1146.803833 1515.582764,1154.562866 1515.582764,1163.734009 
	C1520.626831,1157.750610 1526.066162,1155.331177 1532.703125,1156.000977 
	C1540.665771,1156.804688 1546.602173,1161.470215 1547.161011,1169.361938 
	C1547.896851,1179.755005 1547.341797,1190.239502 1547.341797,1200.890869 
	C1545.302124,1200.890869 1543.376953,1200.890869 1540.971558,1200.890869 
	C1540.971558,1192.068359 1541.093750,1183.445190 1540.931641,1174.827271 
	C1540.810425,1168.380981 1538.068848,1164.469360 1533.082031,1162.847290 
	C1527.664551,1161.085205 1521.699585,1162.390747 1518.776245,1166.904297 
	C1517.075928,1169.529297 1516.093262,1173.016602 1515.942871,1176.170776 
	C1515.556274,1184.282104 1515.813721,1192.424194 1515.813721,1200.822266 
	C1513.417969,1200.822266 1511.493774,1200.822266 1508.975830,1200.822266 
	C1508.975830,1192.052979 1508.975830,1183.276489 1508.975830,1174.000000 
z"/>
<path fill="#3A4552" opacity="1.000000" stroke="none" 
	d="
M1930.455811,1196.264160 
	C1923.230225,1202.235474 1915.479858,1203.769897 1906.953857,1200.380249 
	C1901.295532,1198.130615 1898.619751,1193.653076 1898.752319,1187.445190 
	C1898.870483,1181.914307 1902.033081,1176.761597 1907.656372,1175.592041 
	C1913.399780,1174.397339 1919.451050,1174.612061 1925.374512,1174.399658 
	C1927.108032,1174.337402 1928.864746,1174.922607 1930.619019,1175.212524 
	C1931.449951,1162.975342 1923.495483,1159.896118 1904.625732,1165.001831 
	C1904.017334,1163.567627 1903.390869,1162.090576 1902.553345,1160.115967 
	C1911.691406,1155.816895 1920.715820,1154.378662 1929.896973,1158.820312 
	C1934.793945,1161.189331 1937.130615,1165.820190 1937.276733,1171.079102 
	C1937.548828,1180.873413 1937.354858,1190.680664 1937.354858,1200.797485 
	C1935.325317,1200.797485 1933.437256,1200.797485 1931.359009,1200.797485 
	C1931.175903,1199.271851 1931.002686,1197.828857 1930.455811,1196.264160 
M1927.611084,1179.826660 
	C1922.188721,1179.855591 1916.575928,1179.011719 1911.393677,1180.141724 
	C1905.362183,1181.456909 1903.579346,1188.982910 1907.496338,1193.308105 
	C1910.811768,1196.969482 1917.976196,1197.740479 1923.819214,1195.064697 
	C1929.238892,1192.582764 1931.941284,1188.216431 1931.028076,1182.789307 
	C1930.848022,1181.719482 1929.370972,1180.868042 1927.611084,1179.826660 
z"/>
<path fill="#32404E" opacity="1.000000" stroke="none" 
	d="
M1759.433105,1149.055176 
	C1759.432861,1153.686646 1759.432861,1157.832397 1759.432861,1162.953125 
	C1761.129639,1161.571045 1762.171753,1160.691284 1763.245728,1159.852417 
	C1769.225952,1155.181030 1775.722290,1154.747070 1782.505371,1157.732788 
	C1788.768677,1160.489746 1791.072510,1165.893677 1791.212524,1172.245483 
	C1791.421143,1181.715820 1791.266602,1191.194092 1791.266602,1200.868652 
	C1789.204590,1200.868652 1787.406372,1200.868652 1784.851318,1200.868652 
	C1784.851318,1195.395874 1784.886841,1189.812866 1784.839111,1184.230469 
	C1784.806396,1180.403076 1784.975952,1176.535889 1784.491821,1172.758789 
	C1783.613159,1165.901489 1779.243042,1162.051147 1772.928223,1162.010010 
	C1766.188354,1161.966064 1760.699341,1166.077271 1759.911987,1172.672729 
	C1759.244629,1178.263062 1759.527344,1183.969849 1759.443359,1189.625732 
	C1759.389404,1193.269165 1759.433105,1196.914062 1759.433105,1200.808228 
	C1757.159058,1200.808228 1755.248657,1200.808228 1752.798340,1200.808228 
	C1752.798340,1190.485596 1752.798340,1180.208252 1752.798340,1169.930908 
	C1752.798340,1159.776123 1752.798340,1149.621338 1752.798340,1139.081421 
	C1754.996094,1139.081421 1757.002197,1139.081421 1759.433472,1139.081421 
	C1759.433472,1142.309814 1759.433472,1145.439697 1759.433105,1149.055176 
z"/>
<path fill="#3A4552" opacity="1.000000" stroke="none" 
	d="
M1841.455078,1193.377930 
	C1836.699951,1200.526978 1827.494995,1203.704590 1818.601440,1201.605957 
	C1809.961304,1199.567383 1803.312622,1192.337158 1802.063721,1183.621826 
	C1800.152588,1170.286011 1807.460205,1158.328369 1818.766846,1156.289917 
	C1833.463135,1153.640503 1845.174194,1165.408936 1843.163452,1181.329956 
	C1832.007446,1181.329956 1820.777832,1181.329956 1809.631348,1181.329956 
	C1808.776978,1186.556641 1811.360107,1191.812134 1816.260498,1194.252319 
	C1824.228760,1198.219971 1831.379272,1196.341553 1837.863159,1190.220703 
	C1839.046631,1191.219238 1840.161499,1192.159912 1841.455078,1193.377930 
M1813.751099,1176.595703 
	C1821.315796,1176.595703 1828.880615,1176.595703 1836.492065,1176.595703 
	C1835.583984,1166.817993 1830.311035,1161.444092 1822.485962,1161.674805 
	C1814.796875,1161.901367 1809.514038,1167.520874 1809.045288,1176.318970 
	C1810.296143,1176.411865 1811.559937,1176.505859 1813.751099,1176.595703 
z"/>
<path fill="#394550" opacity="1.000000" stroke="none" 
	d="
M884.607788,1158.433960 
	C902.256531,1151.251099 916.683655,1162.276123 914.718506,1181.623047 
	C903.418640,1181.623047 892.046143,1181.623047 880.385559,1181.623047 
	C880.971436,1188.218018 883.856995,1192.698608 889.329529,1194.935059 
	C896.938843,1198.044800 903.644592,1195.740723 909.607849,1190.119019 
	C910.879211,1191.297241 912.064819,1192.396118 913.495239,1193.721680 
	C907.415405,1201.311523 899.544495,1203.203857 890.694092,1201.647583 
	C882.047119,1200.126831 875.601013,1193.304443 873.898682,1184.609131 
	C871.745972,1173.613770 875.382507,1164.529297 884.607788,1158.433960 
M899.426270,1176.560425 
	C902.216309,1176.560425 905.006348,1176.560425 907.741211,1176.560425 
	C908.792847,1167.973511 901.145996,1161.575317 894.841614,1161.633911 
	C886.902466,1161.707642 880.975708,1167.548706 880.567322,1176.237427 
	C880.868591,1176.341797 881.169434,1176.536133 881.471130,1176.537354 
	C887.129028,1176.559326 892.786987,1176.558472 899.426270,1176.560425 
z"/>
<path fill="#3C4853" opacity="1.000000" stroke="none" 
	d="
M1340.006348,1156.922852 
	C1341.745483,1156.667725 1343.055542,1156.410400 1344.377930,1156.275391 
	C1357.967407,1154.887329 1365.671997,1161.731079 1365.779053,1175.358154 
	C1365.845337,1183.806030 1365.791260,1192.254639 1365.791260,1200.888672 
	C1363.520020,1200.888672 1361.734619,1200.888672 1359.612671,1200.888672 
	C1359.386841,1199.351807 1359.159790,1197.805298 1358.838501,1195.617920 
	C1353.779053,1200.599731 1348.004639,1202.560425 1341.409058,1202.017456 
	C1331.636719,1201.212891 1325.624878,1194.277588 1327.049561,1185.464722 
	C1328.068726,1179.159790 1333.905029,1174.411133 1342.079712,1174.033813 
	C1347.509644,1173.783203 1352.980469,1174.418579 1358.502441,1174.660278 
	C1360.916260,1163.746948 1352.342773,1160.340698 1332.583862,1164.989258 
	C1332.030396,1163.379761 1331.464722,1161.734863 1330.751343,1159.660522 
	C1333.954712,1158.687256 1336.768921,1157.832397 1340.006348,1156.922852 
M1344.551392,1196.837646 
	C1354.809326,1195.673340 1359.711914,1191.356201 1359.259277,1183.636597 
	C1359.189209,1182.439453 1358.129028,1180.317383 1357.461548,1180.291260 
	C1351.279907,1180.049805 1344.973022,1179.521973 1338.952393,1180.545898 
	C1336.841675,1180.905151 1334.566162,1185.138428 1333.908325,1187.961914 
	C1333.099487,1191.434082 1335.491821,1194.237671 1338.962769,1195.548218 
	C1340.496948,1196.127563 1342.145752,1196.403442 1344.551392,1196.837646 
z"/>
<path fill="#3A4552" opacity="1.000000" stroke="none" 
	d="
M2012.439453,1191.596436 
	C2020.825317,1198.305420 2027.395508,1197.918823 2037.606079,1190.276123 
	C2038.769165,1191.320312 2039.970703,1192.399048 2041.423584,1193.703369 
	C2035.836914,1200.897827 2028.403687,1202.991089 2020.085938,1201.875610 
	C2011.484619,1200.721802 2005.455566,1195.855347 2002.693970,1187.423218 
	C1999.451050,1177.520996 2001.082886,1168.436768 2008.693237,1161.267944 
	C2015.054199,1155.275879 2022.858765,1154.332642 2030.998047,1157.724609 
	C2039.121338,1161.109985 2043.758545,1170.329224 2042.717163,1181.434570 
	C2031.378418,1181.434570 2019.974976,1181.434570 2007.123779,1181.434570 
	C2009.151001,1185.377686 2010.674927,1188.341919 2012.439453,1191.596436 
M2012.018921,1176.539795 
	C2019.932129,1176.539795 2027.845337,1176.539795 2035.747803,1176.539795 
	C2035.835938,1168.074219 2030.760254,1162.194214 2023.297363,1161.708618 
	C2015.275269,1161.186646 2009.301147,1166.971069 2008.354248,1176.420898 
	C2009.322266,1176.480591 2010.280762,1176.539551 2012.018921,1176.539795 
z"/>
<path fill="#394550" opacity="1.000000" stroke="none" 
	d="
M981.765503,1174.825439 
	C985.477783,1157.804565 1002.021790,1150.439331 1014.738342,1159.909058 
	C1021.661804,1165.064697 1023.409363,1172.493896 1023.006104,1181.453491 
	C1011.507874,1181.453491 1000.156860,1181.453491 988.442383,1181.453491 
	C988.897156,1188.063477 991.730103,1192.437256 996.882507,1194.728882 
	C1004.580566,1198.152710 1011.489807,1195.986938 1017.527466,1190.141479 
	C1018.909973,1191.325928 1020.143433,1192.382690 1021.356201,1193.421753 
	C1015.905701,1201.433105 1004.876282,1204.335083 994.960754,1200.533813 
	C985.471191,1196.895996 980.156555,1186.756958 981.765503,1174.825439 
M1014.184448,1168.570923 
	C1009.930969,1162.614502 1004.853577,1160.435425 998.976929,1162.044067 
	C993.038757,1163.669678 989.239746,1168.831177 988.633301,1176.238037 
	C997.766235,1176.238037 1006.881958,1176.238037 1016.615173,1176.238037 
	C1015.846741,1173.553955 1015.225586,1171.384521 1014.184448,1168.570923 
z"/>
<path fill="#394550" opacity="1.000000" stroke="none" 
	d="
M1468.415771,1197.495117 
	C1458.170654,1204.164062 1446.302246,1203.545532 1438.748413,1196.188477 
	C1430.882812,1188.527710 1429.503662,1175.661621 1435.496216,1165.848267 
	C1440.065796,1158.365112 1448.119385,1154.704712 1456.832031,1156.151001 
	C1464.651245,1157.449097 1471.083496,1163.713379 1472.843750,1172.010742 
	C1473.450928,1174.873535 1473.595581,1177.834351 1474.020020,1181.310059 
	C1462.070190,1181.310059 1450.826904,1181.310059 1439.652710,1181.310059 
	C1438.976074,1186.831909 1441.445923,1191.605591 1446.427856,1194.208374 
	C1454.458618,1198.403809 1461.486938,1196.029053 1468.070190,1190.186035 
	C1469.336304,1191.307983 1470.536865,1192.371948 1472.268311,1193.906250 
	C1470.963623,1195.133301 1469.827637,1196.201782 1468.415771,1197.495117 
M1463.945190,1176.596436 
	C1464.841553,1175.703369 1466.585815,1174.720703 1466.502319,1173.931152 
	C1465.714844,1166.477539 1459.456787,1161.335083 1452.043457,1161.730469 
	C1444.809692,1162.116333 1439.355469,1168.221436 1439.212036,1176.590820 
	C1447.157227,1176.590820 1455.104248,1176.590820 1463.945190,1176.596436 
z"/>
<path fill="#3A4552" opacity="1.000000" stroke="none" 
	d="
M726.876221,1174.767700 
	C726.934570,1165.551758 721.337708,1160.987915 711.883179,1162.327881 
	C708.310486,1162.834351 704.836121,1164.034180 700.942566,1165.011841 
	C700.325012,1163.485107 699.679077,1161.887939 698.949463,1160.084229 
	C706.712341,1156.449341 714.360291,1155.087769 722.441223,1157.237793 
	C728.956726,1158.971313 733.135681,1163.432007 733.537292,1169.875610 
	C734.175171,1180.111328 733.707458,1190.415894 733.707458,1200.879883 
	C731.691711,1200.879883 729.901367,1200.879883 727.801575,1200.879883 
	C727.558228,1199.371094 727.305969,1197.806885 726.974243,1195.750366 
	C720.650452,1201.653564 713.400452,1203.501099 705.301453,1201.137939 
	C698.686279,1199.207886 694.950012,1194.308105 694.996887,1188.061279 
	C695.045898,1181.527100 698.914307,1176.147705 705.774841,1174.985718 
	C711.254639,1174.057495 716.977722,1174.526123 722.593750,1174.470947 
	C723.899902,1174.458130 725.209839,1174.836426 726.876221,1174.767700 
M720.070129,1178.995605 
	C715.530029,1179.523560 710.756592,1179.385986 706.548584,1180.861206 
	C704.455200,1181.595093 702.149536,1185.317627 702.207642,1187.631226 
	C702.271851,1190.190430 704.347290,1193.583130 706.574707,1195.025269 
	C711.647522,1198.309570 720.262817,1197.139038 723.907227,1192.512939 
	C726.046814,1189.796875 726.848572,1185.736938 727.250122,1182.168701 
	C727.338013,1181.387207 723.166992,1180.126343 720.070129,1178.995605 
z"/>
<path fill="#3A4552" opacity="1.000000" stroke="none" 
	d="
M1183.870117,1156.910767 
	C1197.004639,1161.554565 1203.257812,1174.067261 1199.046997,1186.525391 
	C1195.017822,1198.446045 1182.475220,1204.801880 1170.184082,1201.151489 
	C1158.319580,1197.627808 1151.649658,1185.437256 1154.893188,1173.204346 
	C1158.291504,1160.387451 1170.112671,1153.620117 1183.870117,1156.910767 
M1173.302734,1162.260742 
	C1172.210083,1162.664917 1171.080811,1162.991455 1170.030396,1163.485596 
	C1162.223999,1167.158081 1158.704590,1177.823975 1162.494629,1186.239502 
	C1166.379883,1194.866455 1175.627930,1198.433105 1184.137085,1194.586548 
	C1191.018066,1191.475952 1194.853760,1182.766968 1192.884399,1174.725342 
	C1190.756104,1166.033813 1184.015015,1161.499146 1173.302734,1162.260742 
z"/>
<path fill="#394550" opacity="1.000000" stroke="none" 
	d="
M1696.924316,1199.050293 
	C1684.960938,1204.377197 1674.240601,1202.455444 1667.156738,1193.951538 
	C1660.719116,1186.223511 1660.243896,1174.006470 1666.290161,1165.628784 
	C1672.000977,1157.715698 1680.042603,1154.627441 1689.448608,1156.321411 
	C1698.698853,1157.987305 1705.063477,1163.625732 1707.372437,1172.935181 
	C1709.621216,1182.002075 1707.482056,1190.027222 1700.410156,1196.447144 
	C1699.430542,1197.336304 1698.306885,1198.067017 1696.924316,1199.050293 
M1676.268921,1164.522583 
	C1666.493896,1172.591187 1666.576172,1187.049194 1676.434082,1193.520020 
	C1682.813110,1197.707275 1691.371704,1196.788696 1696.576294,1191.358154 
	C1702.349976,1185.333496 1702.911621,1175.185547 1697.847168,1168.397949 
	C1692.833984,1161.678833 1685.196289,1160.115723 1676.268921,1164.522583 
z"/>
<path fill="#3B4755" opacity="1.000000" stroke="none" 
	d="
M862.360718,1168.001465 
	C862.684509,1172.044434 862.994995,1175.684326 863.039551,1179.327637 
	C863.126587,1186.445435 863.065125,1193.565186 863.065125,1200.875977 
	C860.665771,1200.875977 858.737183,1200.875977 856.208862,1200.875977 
	C856.208862,1191.949097 856.318970,1183.166260 856.170959,1174.387695 
	C856.068604,1168.313110 853.284485,1164.308105 848.560852,1162.709839 
	C843.427673,1160.973267 837.205322,1162.333618 834.183411,1166.859619 
	C832.368530,1169.577881 831.327393,1173.238159 831.150696,1176.539917 
	C830.725098,1184.488892 831.012817,1192.476074 831.012817,1200.761230 
	C828.816956,1200.761230 826.910095,1200.761230 824.613770,1200.761230 
	C824.613770,1186.444580 824.613770,1172.060913 824.613770,1157.310303 
	C826.513672,1157.310303 828.406311,1157.310303 830.686707,1157.310303 
	C830.871155,1158.985718 831.074402,1160.832642 831.291016,1162.800903 
	C844.304077,1151.963867 857.081970,1154.020752 862.360718,1168.001465 
z"/>
<path fill="#3D4855" opacity="1.000000" stroke="none" 
	d="
M1227.441895,1195.885986 
	C1237.799683,1195.626099 1242.286255,1191.031616 1242.338135,1181.003296 
	C1242.378418,1173.209229 1242.346191,1165.415039 1242.346191,1157.283203 
	C1244.579102,1157.283203 1246.478394,1157.283203 1248.742432,1157.283203 
	C1248.742432,1171.683105 1248.742432,1186.208618 1248.742432,1200.894897 
	C1246.667847,1200.894897 1244.748291,1200.894897 1242.538940,1200.894897 
	C1242.430664,1198.976074 1242.332886,1197.244629 1242.176758,1194.475952 
	C1237.900879,1199.744507 1233.118652,1202.209595 1227.068726,1202.082397 
	C1218.152222,1201.894775 1211.666870,1197.139771 1211.000732,1188.321289 
	C1210.229492,1178.113037 1210.821289,1167.801758 1210.821289,1157.240723 
	C1212.560791,1157.240723 1214.482178,1157.240723 1217.113892,1157.240723 
	C1217.113892,1165.676636 1217.040894,1174.262573 1217.136230,1182.846558 
	C1217.216431,1190.059570 1220.108643,1193.728027 1227.441895,1195.885986 
z"/>
<path fill="#32404E" opacity="1.000000" stroke="none" 
	d="
M1065.929321,1158.925781 
	C1068.231445,1163.019897 1071.618286,1166.776001 1071.958374,1170.790039 
	C1072.795776,1180.669800 1072.232666,1190.668213 1072.232666,1200.848389 
	C1070.187988,1200.848389 1068.276245,1200.848389 1065.862915,1200.848389 
	C1065.862915,1192.293823 1066.000366,1183.850586 1065.826904,1175.413696 
	C1065.625366,1165.613525 1059.009644,1160.189575 1050.231323,1162.488892 
	C1044.885864,1163.889038 1041.427246,1167.431274 1040.927002,1172.925293 
	C1040.385986,1178.869141 1040.550537,1184.879028 1040.454590,1190.860840 
	C1040.401611,1194.162476 1040.445068,1197.465698 1040.445068,1200.916504 
	C1038.194214,1200.916504 1036.382202,1200.916504 1034.187744,1200.916504 
	C1034.187744,1186.471191 1034.187744,1171.957275 1034.187744,1157.205688 
	C1036.131226,1157.205688 1038.036865,1157.205688 1040.162354,1157.205688 
	C1040.325684,1159.076782 1040.479858,1160.840942 1040.695801,1163.314087 
	C1048.154541,1155.065674 1056.423218,1153.898071 1065.929321,1158.925781 
z"/>
<path fill="#394550" opacity="1.000000" stroke="none" 
	d="
M1147.496094,1194.421631 
	C1140.338501,1201.911743 1131.913330,1204.032104 1122.624146,1200.814087 
	C1113.900513,1197.791992 1108.788330,1191.269775 1107.795776,1181.940674 
	C1106.748901,1172.101440 1110.324951,1164.271851 1118.782349,1159.034302 
	C1128.860596,1152.792725 1143.312256,1156.551270 1147.547852,1164.279053 
	C1146.383301,1165.502075 1145.154663,1166.792603 1143.667725,1168.354370 
	C1139.207764,1164.319458 1134.375977,1160.705200 1128.191650,1162.193481 
	C1124.825073,1163.003418 1121.206665,1164.774536 1118.807495,1167.203979 
	C1112.669800,1173.418945 1112.995972,1184.270874 1118.859619,1190.877808 
	C1125.136230,1197.950073 1132.529297,1197.719116 1144.664551,1189.731323 
	C1145.667236,1191.179077 1146.693237,1192.660278 1147.496094,1194.421631 
z"/>
<path fill="#394550" opacity="1.000000" stroke="none" 
	d="
M1861.637695,1198.444214 
	C1853.100586,1192.239380 1849.952637,1184.109009 1851.955444,1174.248047 
	C1853.840576,1164.966553 1859.549683,1158.807983 1868.855469,1156.613403 
	C1877.606812,1154.549683 1885.232544,1156.842163 1892.173096,1164.311646 
	C1890.249634,1165.331299 1888.488525,1166.264893 1886.505249,1167.316406 
	C1876.192261,1160.283325 1868.635254,1160.058960 1862.417847,1167.241821 
	C1856.552124,1174.017944 1856.901978,1184.680054 1863.209839,1191.379272 
	C1869.479370,1198.037720 1877.626343,1197.622681 1888.015747,1189.860107 
	C1889.249634,1190.966553 1890.553833,1192.136108 1891.845947,1193.294800 
	C1884.827515,1202.726318 1873.331665,1204.730469 1861.637695,1198.444214 
z"/>
<path fill="#2A343E" opacity="1.000000" stroke="none" 
	d="
M234.408371,1081.700684 
	C234.009491,981.795227 234.015869,881.882629 233.935974,781.970154 
	C233.934265,779.835266 232.940292,777.701172 232.189865,775.236206 
	C233.016968,774.522583 234.063400,774.139404 235.797287,773.504517 
	C235.797287,775.795105 235.797302,777.545776 235.797256,779.296448 
	C235.794754,878.397461 235.797134,977.498474 235.748672,1076.599487 
	C235.747849,1078.297607 235.132416,1079.995605 234.408371,1081.700684 
z"/>
<path fill="#3D4855" opacity="1.000000" stroke="none" 
	d="
M1298.931519,1191.522827 
	C1298.925293,1181.938721 1298.925293,1172.804199 1298.925293,1163.327515 
	C1296.914673,1163.090576 1295.175049,1162.885498 1293.130005,1162.644531 
	C1293.130005,1160.896729 1293.130005,1159.159790 1293.130005,1157.110229 
	C1294.871460,1156.996460 1296.626099,1156.881836 1298.736816,1156.744019 
	C1298.736816,1152.468872 1298.736816,1148.351562 1298.736816,1143.875122 
	C1301.121704,1143.875122 1303.144165,1143.875122 1305.550537,1143.875122 
	C1305.550537,1148.094238 1305.550537,1152.207397 1305.550537,1156.863037 
	C1310.305786,1156.863037 1314.712280,1156.863037 1319.362549,1156.863037 
	C1319.362549,1159.004272 1319.362549,1160.600464 1319.362549,1162.765137 
	C1314.922119,1162.765137 1310.521240,1162.765137 1305.657227,1162.765137 
	C1305.657227,1171.918823 1305.520874,1180.514648 1305.711548,1189.103149 
	C1305.815552,1193.796265 1308.982666,1196.279907 1313.695923,1195.779907 
	C1315.319214,1195.607544 1316.901367,1195.048462 1318.495361,1194.667847 
	C1320.011475,1200.033691 1319.615723,1200.732178 1314.622559,1201.687622 
	C1306.355835,1203.269165 1300.955566,1199.924194 1298.931519,1191.522827 
z"/>
<path fill="#3D4855" opacity="1.000000" stroke="none" 
	d="
M1741.553345,1157.357056 
	C1741.917114,1159.258179 1741.917114,1160.866699 1741.917114,1162.831543 
	C1737.328369,1162.831543 1733.053345,1162.831543 1728.422119,1162.831543 
	C1728.422119,1172.420288 1728.142578,1181.669312 1728.549194,1190.888062 
	C1728.731201,1195.018188 1732.501953,1195.829468 1736.008545,1195.782959 
	C1737.801392,1195.759277 1739.586426,1195.151367 1741.461182,1194.790894 
	C1743.291992,1199.358643 1741.007568,1201.089478 1736.893311,1201.797974 
	C1727.332153,1203.444458 1721.354858,1198.319458 1721.270508,1188.198120 
	C1721.202759,1180.052612 1721.256836,1171.906006 1721.256836,1163.353027 
	C1719.364502,1163.070801 1717.480103,1162.789673 1715.372314,1162.475220 
	C1715.372314,1160.777832 1715.372314,1159.191406 1715.372314,1157.289062 
	C1717.172852,1157.092407 1718.917847,1156.901733 1721.098633,1156.663574 
	C1721.098633,1152.567017 1721.098633,1148.477173 1721.098633,1143.954102 
	C1723.561523,1143.954102 1725.587036,1143.954102 1728.025879,1143.954102 
	C1728.025879,1148.104858 1728.025879,1152.194702 1728.025879,1157.064575 
	C1732.672241,1157.064575 1736.930908,1157.064575 1741.553345,1157.357056 
z"/>
<path fill="#3C4853" opacity="1.000000" stroke="none" 
	d="
M926.815186,1156.870361 
	C927.640930,1152.581665 928.007446,1148.355469 928.402283,1143.802490 
	C930.185486,1143.802490 932.117065,1143.802490 934.558289,1143.802490 
	C934.558289,1147.906250 934.558289,1152.127441 934.558289,1156.843506 
	C939.447937,1156.843506 943.850830,1156.843506 948.565063,1156.843506 
	C948.680481,1158.907349 948.769409,1160.497314 948.891907,1162.687378 
	C944.224365,1162.687378 939.842529,1162.687378 935.000732,1162.687378 
	C935.000732,1172.337280 934.815369,1181.416870 935.083313,1190.483032 
	C935.207092,1194.671265 938.624573,1195.781982 942.178162,1195.802490 
	C944.115173,1195.813599 946.055969,1195.166138 948.135559,1194.790283 
	C949.721802,1198.943726 948.037170,1200.885742 944.058228,1201.725708 
	C934.732605,1203.694336 928.187561,1198.732910 928.033020,1189.233521 
	C927.893005,1180.622681 928.003357,1172.007812 928.003357,1163.081909 
	C925.891602,1162.953979 924.148804,1162.848389 922.157898,1162.727783 
	C922.056885,1160.854736 921.970337,1159.250122 921.861450,1157.230835 
	C923.503296,1157.121948 924.929626,1157.027344 926.815186,1156.870361 
z"/>
<path fill="#3D4855" opacity="1.000000" stroke="none" 
	d="
M1978.894775,1190.978027 
	C1978.894775,1194.442871 1978.894775,1197.417480 1978.894775,1200.733398 
	C1976.677124,1200.733398 1974.765625,1200.733398 1972.462646,1200.733398 
	C1972.462646,1186.495850 1972.462646,1172.111938 1972.462646,1157.322998 
	C1974.344482,1157.322998 1976.358765,1157.322998 1978.831787,1157.322998 
	C1978.831787,1160.129883 1978.831787,1162.862427 1978.831787,1166.921631 
	C1983.869263,1160.398438 1988.582642,1155.445068 1996.716309,1156.321655 
	C1996.716309,1158.664429 1996.716309,1160.763428 1996.716309,1162.850586 
	C1983.154053,1165.927002 1979.044312,1171.054810 1978.911865,1184.991577 
	C1978.894531,1186.823486 1978.899902,1188.655762 1978.894775,1190.978027 
z"/>
<path fill="#3C4853" opacity="1.000000" stroke="none" 
	d="
M1277.069458,1158.972900 
	C1280.418579,1157.683105 1283.444946,1156.570679 1287.271362,1155.164185 
	C1287.414551,1158.344238 1287.508057,1160.418701 1287.613647,1162.761597 
	C1286.235352,1163.095825 1285.003906,1163.429321 1283.757446,1163.691040 
	C1275.645508,1165.393433 1270.446533,1171.084839 1269.966797,1179.698730 
	C1269.581055,1186.628296 1269.888794,1193.596436 1269.888794,1200.813477 
	C1267.319458,1200.813477 1265.404785,1200.813477 1263.185669,1200.813477 
	C1263.185669,1186.419434 1263.185669,1172.031494 1263.185669,1157.294189 
	C1265.125122,1157.294189 1267.151733,1157.294189 1269.472290,1157.294189 
	C1269.615601,1160.126465 1269.752930,1162.842773 1269.849609,1164.752563 
	C1271.977295,1163.024292 1274.362061,1161.087280 1277.069458,1158.972900 
z"/>
<path fill="#3C4853" opacity="1.000000" stroke="none" 
	d="
M1951.052490,1195.851807 
	C1951.052734,1182.755981 1951.052734,1170.144043 1951.052734,1157.241699 
	C1953.355957,1157.241699 1955.277588,1157.241699 1957.560547,1157.241699 
	C1957.560547,1171.544800 1957.560547,1185.929199 1957.560547,1200.696045 
	C1955.642456,1200.696045 1953.610352,1200.696045 1951.270630,1200.696045 
	C1951.197876,1199.241943 1951.125122,1197.788696 1951.052490,1195.851807 
z"/>
<path fill="#3D4855" opacity="1.000000" stroke="none" 
	d="
M810.026245,1179.000000 
	C810.026245,1186.455322 810.026245,1193.410522 810.026245,1200.725342 
	C807.764709,1200.725342 805.744385,1200.725342 803.480103,1200.725342 
	C803.480103,1186.221558 803.480103,1171.852783 803.480103,1157.218750 
	C805.615540,1157.218750 807.525513,1157.218750 810.026245,1157.218750 
	C810.026245,1164.325195 810.026245,1171.412598 810.026245,1179.000000 
z"/>
<path fill="#2A343E" opacity="1.000000" stroke="none" 
	d="
M1465.280884,996.382996 
	C1466.913696,995.817505 1468.928955,995.053284 1470.945190,995.050293 
	C1516.651001,994.982483 1562.356812,994.997986 1608.540039,995.319641 
	C1609.032593,995.854553 1609.047607,996.067627 1609.062500,996.280640 
	C1605.077759,996.376038 1601.093018,996.553345 1597.108276,996.554321 
	C1553.293457,996.565063 1509.478516,996.548218 1465.280884,996.382996 
z"/>
<path fill="#3C4853" opacity="1.000000" stroke="none" 
	d="
M1834.394287,1141.062256 
	C1831.840576,1144.043457 1829.344360,1146.945923 1826.394043,1149.272827 
	C1825.093384,1150.298706 1822.870361,1150.155396 1819.718262,1150.832520 
	C1822.962280,1145.802246 1825.420532,1141.990356 1828.146729,1137.763062 
	C1830.236328,1138.782715 1832.251709,1139.766113 1834.394287,1141.062256 
z"/>
<path fill="#3A4552" opacity="1.000000" stroke="none" 
	d="
M809.322266,1147.303223 
	C807.118591,1147.360352 805.320740,1147.360352 803.207520,1147.360352 
	C803.207520,1144.875610 803.207520,1142.667114 803.207520,1140.202881 
	C805.482849,1140.202881 807.719421,1140.202881 810.743103,1140.202881 
	C810.387268,1142.671875 810.057617,1144.959106 809.322266,1147.303223 
z"/>
<path fill="#32404E" opacity="1.000000" stroke="none" 
	d="
M1955.978882,1147.314941 
	C1954.053467,1147.323120 1952.621460,1147.323120 1950.967773,1147.323120 
	C1950.967773,1144.764893 1950.967773,1142.685547 1950.967773,1140.299561 
	C1953.161621,1140.299561 1955.371948,1140.299561 1958.901611,1140.299561 
	C1958.011108,1142.868164 1957.241699,1145.087524 1955.978882,1147.314941 
z"/>
<path fill="#2A343E" opacity="1.000000" stroke="none" 
	d="
M1610.243652,992.677734 
	C1610.053589,991.103088 1610.006104,989.173889 1610.292969,987.134888 
	C1610.546875,988.791138 1610.466431,990.557129 1610.243652,992.677734 
z"/>
<path fill="#324054" opacity="1.000000" stroke="none" 
	d="
M1609.391968,996.252991 
	C1609.047607,996.067627 1609.032593,995.854553 1609.008789,995.321167 
	C1609.000000,995.000916 1609.000000,995.000000 1609.262695,995.008179 
	C1609.700439,995.016479 1609.875488,995.016602 1610.050537,995.016724 
	C1609.940918,995.419556 1609.831177,995.822449 1609.391968,996.252991 
z"/>
<path fill="#2A343E" opacity="1.000000" stroke="none" 
	d="
M1610.149170,994.758057 
	C1609.875488,995.016602 1609.700439,995.016479 1609.262695,995.007812 
	C1609.199341,994.728027 1609.398560,994.456787 1609.832520,994.080811 
	C1610.127441,994.150574 1610.187500,994.325012 1610.149170,994.758057 
z"/>
<path fill="#FCFCFD" opacity="1.000000" stroke="none" 
	d="
M1913.826538,1007.121155 
	C1918.263184,996.999207 1926.573730,992.390930 1936.291992,990.219116 
	C1954.155762,986.226868 1971.589722,988.317993 1988.629883,994.815613 
	C1991.376953,995.863159 1991.886719,997.366516 1991.941406,999.989624 
	C1992.483521,1025.963013 1977.931152,1041.920776 1951.495850,1043.714111 
	C1945.749268,1044.103882 1939.769043,1044.024292 1934.157593,1042.879639 
	C1915.817749,1039.139038 1908.116699,1025.449585 1913.826538,1007.121155 
z"/>
<path fill="#F8FAFA" opacity="1.000000" stroke="none" 
	d="
M1412.239380,1169.079102 
	C1415.755371,1176.944580 1414.579956,1183.524170 1409.151978,1187.985474 
	C1403.429688,1192.688599 1394.990601,1193.042847 1389.162842,1188.824707 
	C1383.403442,1184.656250 1381.469604,1177.475952 1384.245483,1170.566284 
	C1387.972290,1161.289551 1401.691406,1158.902588 1409.675537,1166.165527 
	C1410.531982,1166.944458 1411.232544,1167.894775 1412.239380,1169.079102 
z"/>
<path fill="#F8FAFA" opacity="1.000000" stroke="none" 
	d="
M1646.616333,1175.670898 
	C1647.244385,1183.060059 1646.020752,1189.439575 1639.686768,1193.549805 
	C1631.959473,1198.564209 1621.935181,1195.742188 1617.502808,1187.540039 
	C1612.833618,1178.899658 1616.522583,1167.026001 1625.063599,1163.204346 
	C1633.276001,1159.529785 1642.567383,1163.839844 1645.866821,1172.870361 
	C1646.150635,1173.647339 1646.317993,1174.466797 1646.616333,1175.670898 
z"/>
<path fill="#FDFDFE" opacity="1.000000" stroke="none" 
	d="
M595.087402,919.980591 
	C627.271484,908.885559 658.955261,928.697754 663.929504,962.633545 
	C666.440735,979.765747 664.928101,996.244812 655.261047,1011.092957 
	C644.704895,1027.306763 629.483704,1035.574341 610.148804,1034.405273 
	C590.553040,1033.220581 575.912659,1022.990723 568.167969,1005.198853 
	C557.413940,980.493347 558.647156,956.266052 575.640442,934.150696 
	C580.608887,927.684631 587.212708,923.230896 595.087402,919.980591 
z"/>
<path fill="#FDFDFE" opacity="1.000000" stroke="none" 
	d="
M893.891602,1027.925415 
	C855.515137,1047.808105 811.714661,1021.109009 811.002502,977.728088 
	C810.666626,957.268982 816.682983,939.244202 833.956848,927.186951 
	C865.439819,905.211548 913.093872,919.771057 920.845520,965.385315 
	C924.747864,988.348450 918.854919,1008.654724 900.047180,1023.933289 
	C898.252502,1025.391113 896.175476,1026.501587 893.891602,1027.925415 
z"/>
<path fill="#FBFCFB" opacity="1.000000" stroke="none" 
	d="
M1498.839844,914.562561 
	C1529.586670,909.685242 1548.815186,930.406494 1551.896118,958.596924 
	C1522.010742,958.596924 1492.158081,958.596924 1462.302612,958.596924 
	C1463.781494,938.275330 1478.092407,918.070374 1498.839844,914.562561 
z"/>
<path fill="#F8FAFA" opacity="1.000000" stroke="none" 
	d="
M783.510620,1186.114258 
	C780.861023,1192.723877 776.181213,1195.909668 769.547363,1195.985596 
	C762.690674,1196.064087 757.813599,1192.525757 755.035706,1186.500366 
	C752.112610,1180.159790 752.691772,1173.848022 757.067139,1168.239258 
	C761.387878,1162.700684 767.838074,1160.698853 773.852173,1162.734375 
	C780.313965,1164.921509 784.718384,1171.103027 784.724121,1178.421387 
	C784.726074,1180.877930 784.086853,1183.334961 783.510620,1186.114258 
z"/>
<path fill="#F6F8FA" opacity="1.000000" stroke="none" 
	d="
M1928.051636,1179.871338 
	C1929.370972,1180.868042 1930.848022,1181.719482 1931.028076,1182.789307 
	C1931.941284,1188.216431 1929.238892,1192.582764 1923.819214,1195.064697 
	C1917.976196,1197.740479 1910.811768,1196.969482 1907.496338,1193.308105 
	C1903.579346,1188.982910 1905.362183,1181.456909 1911.393677,1180.141724 
	C1916.575928,1179.011719 1922.188721,1179.855591 1928.051636,1179.871338 
z"/>
<path fill="#F0F2F3" opacity="1.000000" stroke="none" 
	d="
M1813.287354,1176.597778 
	C1811.559937,1176.505859 1810.296143,1176.411865 1809.045288,1176.318970 
	C1809.514038,1167.520874 1814.796875,1161.901367 1822.485962,1161.674805 
	C1830.311035,1161.444092 1835.583984,1166.817993 1836.492065,1176.595703 
	C1828.880615,1176.595703 1821.315796,1176.595703 1813.287354,1176.597778 
z"/>
<path fill="#F0F2F3" opacity="1.000000" stroke="none" 
	d="
M898.935608,1176.561523 
	C892.786987,1176.558472 887.129028,1176.559326 881.471130,1176.537354 
	C881.169434,1176.536133 880.868591,1176.341797 880.568481,1176.234009 
	C880.975708,1167.548706 886.902466,1161.707642 894.841614,1161.633911 
	C901.145996,1161.575317 908.792847,1167.973511 907.741211,1176.560425 
	C905.006348,1176.560425 902.216309,1176.560425 898.935608,1176.561523 
z"/>
<path fill="#F6F8FA" opacity="1.000000" stroke="none" 
	d="
M1344.146973,1196.827393 
	C1342.145752,1196.403442 1340.496948,1196.127563 1338.962769,1195.548218 
	C1335.491821,1194.237671 1333.099487,1191.434082 1333.908325,1187.961914 
	C1334.566162,1185.138428 1336.841675,1180.905151 1338.952393,1180.545898 
	C1344.973022,1179.521973 1351.279907,1180.049805 1357.461548,1180.291260 
	C1358.129028,1180.317383 1359.189209,1182.439453 1359.259277,1183.636597 
	C1359.711914,1191.356201 1354.809326,1195.673340 1344.146973,1196.827393 
z"/>
<path fill="#F0F2F3" opacity="1.000000" stroke="none" 
	d="
M2011.629150,1176.569092 
	C2010.280762,1176.539551 2009.322266,1176.480591 2008.354248,1176.420898 
	C2009.301147,1166.971069 2015.275269,1161.186646 2023.297363,1161.708618 
	C2030.760254,1162.194214 2035.835938,1168.074219 2035.747803,1176.539795 
	C2027.845337,1176.539795 2019.932129,1176.539795 2011.629150,1176.569092 
z"/>
<path fill="#F0F2F3" opacity="1.000000" stroke="none" 
	d="
M1014.394409,1168.892944 
	C1015.225586,1171.384521 1015.846741,1173.553955 1016.615173,1176.238037 
	C1006.881958,1176.238037 997.766235,1176.238037 988.633301,1176.238037 
	C989.239746,1168.831177 993.038757,1163.669678 998.976929,1162.044067 
	C1004.853577,1160.435425 1009.930969,1162.614502 1014.394409,1168.892944 
z"/>
<path fill="#F0F2F3" opacity="1.000000" stroke="none" 
	d="
M1463.498291,1176.593628 
	C1455.104248,1176.590820 1447.157227,1176.590820 1439.212036,1176.590820 
	C1439.355469,1168.221436 1444.809692,1162.116333 1452.043457,1161.730469 
	C1459.456787,1161.335083 1465.714844,1166.477539 1466.502319,1173.931152 
	C1466.585815,1174.720703 1464.841553,1175.703369 1463.498291,1176.593628 
z"/>
<path fill="#F6F8FA" opacity="1.000000" stroke="none" 
	d="
M720.513733,1179.041016 
	C723.166992,1180.126343 727.338013,1181.387207 727.250122,1182.168701 
	C726.848572,1185.736938 726.046814,1189.796875 723.907227,1192.512939 
	C720.262817,1197.139038 711.647522,1198.309570 706.574707,1195.025269 
	C704.347290,1193.583130 702.271851,1190.190430 702.207642,1187.631226 
	C702.149536,1185.317627 704.455200,1181.595093 706.548584,1180.861206 
	C710.756592,1179.385986 715.530029,1179.523560 720.513733,1179.041016 
z"/>
<path fill="#F8FAFA" opacity="1.000000" stroke="none" 
	d="
M1173.709961,1162.180664 
	C1184.015015,1161.499146 1190.756104,1166.033813 1192.884399,1174.725342 
	C1194.853760,1182.766968 1191.018066,1191.475952 1184.137085,1194.586548 
	C1175.627930,1198.433105 1166.379883,1194.866455 1162.494629,1186.239502 
	C1158.704590,1177.823975 1162.223999,1167.158081 1170.030396,1163.485596 
	C1171.080811,1162.991455 1172.210083,1162.664917 1173.709961,1162.180664 
z"/>
<path fill="#F8FAFA" opacity="1.000000" stroke="none" 
	d="
M1676.591064,1164.317993 
	C1685.196289,1160.115723 1692.833984,1161.678833 1697.847168,1168.397949 
	C1702.911621,1175.185547 1702.349976,1185.333496 1696.576294,1191.358154 
	C1691.371704,1196.788696 1682.813110,1197.707275 1676.434082,1193.520020 
	C1666.576172,1187.049194 1666.493896,1172.591187 1676.591064,1164.317993 
z"/>
</svg>