<svg version="1.1" id="Layer_1" xmlns="http://www.w3.org/2000/svg" xmlns:xlink="http://www.w3.org/1999/xlink" x="0px" y="0px" width="100%" viewBox="0 0 6199 6199" enable-background="new 0 0 6199 6199" xml:space="preserve">

<path fill="#324153" opacity="1.000000" stroke="none" d="
M4.000004,3805.874512 
	C10.505620,3803.093262 17.169830,3802.804199 23.491776,3801.181641 
	C74.424706,3788.108643 125.289551,3774.770508 176.187866,3761.562012 
	C180.651276,3760.403809 185.205368,3759.595215 189.662247,3758.635986 
	C195.589355,3763.672119 192.989212,3770.130127 193.002106,3775.695801 
	C193.192108,3857.660156 193.118698,3939.625488 193.157867,4021.590332 
	C193.161301,4028.778809 193.514908,4035.967285 193.700989,4042.971924 
	C196.678131,4044.067871 198.496719,4045.321533 200.317413,4045.324707 
	C308.264801,4045.506836 416.212341,4045.593750 524.159851,4045.625488 
	C526.675537,4045.626221 529.191528,4044.891602 532.927917,4044.310059 
	C534.706116,4031.318848 533.608337,4018.761230 533.808594,4006.298340 
	C534.001221,3994.306641 533.850220,3982.309326 533.850220,3970.314453 
	C533.850220,3957.653320 533.850220,3944.991943 533.850220,3932.330811 
	C533.850220,3919.669434 533.850220,3907.008301 533.850220,3894.346924 
	C533.850220,3881.685791 533.850220,3869.024414 533.850220,3856.363281 
	C533.850220,3844.368408 533.850220,3832.373535 533.850220,3820.378662 
	C533.850220,3807.717529 533.850220,3795.056152 533.850220,3782.395020 
	C533.850220,3769.733643 533.850220,3757.072510 533.850220,3744.411133 
	C533.850220,3732.416260 533.850220,3720.421631 533.850220,3708.426758 
	C533.850220,3695.819824 533.850220,3683.212646 533.850220,3669.482910 
	C594.988098,3652.877930 655.351379,3637.289551 717.254517,3621.546875 
	C718.028503,3625.778320 718.871765,3628.723877 719.042786,3631.708008 
	C719.309265,3636.357666 719.122437,3641.033447 719.122437,3645.697998 
	C719.122925,3940.238525 719.122925,4234.779297 719.122925,4529.319824 
	C719.122925,4536.574219 719.122925,4543.828125 719.122925,4551.376953 
	C715.430725,4552.254395 712.907288,4553.374023 710.381836,4553.378418 
	C652.503418,4553.477051 594.624817,4553.454590 536.485352,4553.454590 
	C532.473816,4545.613770 533.933472,4538.205078 533.925354,4531.146484 
	C533.813843,4434.520996 533.850220,4337.895996 533.850220,4241.270508 
	C533.850220,4233.999023 533.850220,4226.727539 533.850220,4220.405762 
	C526.920776,4214.157715 519.949280,4216.463867 513.607544,4216.454102 
	C413.650574,4216.303223 313.693329,4216.334961 213.736145,4216.378418 
	C207.824142,4216.381348 201.912323,4216.835938 195.760406,4217.089844 
	C191.704742,4224.495117 193.215347,4231.914062 193.206726,4238.976074 
	C193.095322,4330.270508 193.132935,4421.564453 193.132904,4512.858887 
	C193.132904,4525.463379 193.132919,4538.067871 193.132919,4552.018555 
	C187.266296,4552.576660 182.223404,4553.462402 177.178635,4553.473145 
	C127.866676,4553.579102 78.554352,4553.520508 29.242163,4553.558105 
	C21.917723,4553.563477 14.593467,4553.821777 5.634562,4554.981445 
	C4.000000,4306.583008 4.000000,4057.166260 4.000004,3805.874512 
z" data-index="1"></path>
<path fill="#324052" opacity="1.000000" stroke="none" d="
M6204.000000,4554.125488 
	C6197.974609,4551.747559 6191.100098,4553.641113 6184.613281,4553.616699 
	C6140.631836,4553.450684 6096.648926,4553.585449 6052.666504,4553.469238 
	C6046.099121,4553.452148 6039.336426,4554.736328 6031.568359,4551.131348 
	C6031.568359,4531.314453 6031.568359,4510.907227 6031.568359,4489.443359 
	C6023.929688,4489.624023 6021.197754,4494.717285 6017.686523,4498.055176 
	C5986.043945,4528.133301 5949.126953,4548.629883 5906.473633,4557.883301 
	C5849.288574,4570.288086 5792.520996,4569.222656 5737.435547,4547.735352 
	C5682.288574,4526.223145 5643.212891,4488.383789 5624.935059,4431.144043 
	C5615.047363,4400.181152 5613.761230,4368.254395 5617.718262,4336.208008 
	C5619.260742,4323.713379 5621.894043,4311.179688 5625.626953,4299.159668 
	C5639.064453,4255.893555 5666.120605,4223.228027 5704.956543,4200.166992 
	C5732.797852,4183.634766 5763.054199,4173.671387 5794.751953,4168.080078 
	C5868.203613,4155.122070 5940.690430,4159.705566 6012.172363,4180.874512 
	C6017.828613,4182.549805 6023.542969,4184.027832 6030.385254,4185.916016 
	C6034.413086,4167.449219 6031.014160,4150.752441 6026.088379,4134.411621 
	C6017.973633,4107.489258 6000.817383,4087.914795 5975.585449,4075.517090 
	C5954.919434,4065.362793 5932.840332,4060.951660 5909.998047,4059.885986 
	C5851.323730,4057.148438 5794.552734,4066.789795 5739.270508,4086.161865 
	C5733.012207,4088.354980 5726.622559,4090.176270 5720.274902,4092.108887 
	C5719.711914,4092.280273 5719.011719,4091.998047 5717.438477,4091.821777 
	C5716.444824,4090.069092 5714.762695,4087.973633 5713.975586,4085.583008 
	C5699.855957,4042.681641 5685.844727,3999.744873 5671.537109,3955.980713 
	C5675.729980,3953.639404 5678.933105,3951.472900 5682.418945,3949.958740 
	C5749.827148,3920.680176 5820.269043,3905.261475 5893.763184,3903.727783 
	C5933.128418,3902.906006 5972.501465,3902.779785 6011.063965,3911.981201 
	C6029.781250,3916.447021 6048.577148,3921.513184 6066.391113,3928.664795 
	C6125.272461,3952.301758 6165.395508,3994.687256 6187.538086,4054.092529 
	C6194.772949,4073.502197 6199.882324,4093.432617 6202.686035,4115.090332 
	C6204.000000,4261.416992 6204.000000,4406.833984 6204.000000,4554.125488 
M6000.957031,4403.038574 
	C6033.348633,4373.548828 6038.110352,4335.819824 6033.934082,4294.825195 
	C6029.889160,4292.841797 6026.462891,4290.842773 6022.811035,4289.419922 
	C5977.750000,4271.863770 5931.009277,4267.409180 5883.310547,4272.871582 
	C5864.736816,4274.999512 5846.815430,4280.453613 5830.630859,4290.459961 
	C5800.665039,4308.986328 5789.228516,4336.702637 5792.954102,4370.567383 
	C5796.459473,4402.436035 5816.214844,4421.769531 5845.603516,4432.201660 
	C5848.739746,4433.314941 5851.869629,4434.602051 5855.114258,4435.230957 
	C5907.249512,4445.334961 5955.821289,4438.415039 6000.957031,4403.038574 
z" data-index="2" style="opacity: 1;"></path>
<path fill="#01AAC1" opacity="1.000000" stroke="none" d="
M2230.384277,2698.465820 
	C2146.268799,2720.079102 2063.734131,2741.215332 1981.181396,2762.282715 
	C1965.703003,2766.232666 1950.218506,2770.199951 1934.621338,2773.635498 
	C1914.001465,2778.176758 1893.525024,2776.728271 1873.487549,2770.285156 
	C1831.983032,2756.939697 1794.998901,2717.762695 1805.020020,2656.129883 
	C1811.535767,2616.056396 1819.051025,2576.145996 1826.039917,2536.148682 
	C1837.382935,2471.233154 1848.674683,2406.308594 1859.962891,2341.383301 
	C1869.883179,2284.326660 1879.750977,2227.260498 1889.675171,2170.204590 
	C1899.826782,2111.839844 1910.005005,2053.479980 1920.196655,1995.122559 
	C1930.159668,1938.075073 1940.145996,1881.031616 1950.138916,1823.989258 
	C1955.652222,1792.518066 1961.242188,1761.060181 1966.724609,1729.583740 
	C1977.619507,1667.031128 2016.175903,1629.810059 2075.219727,1611.807129 
	C2094.304932,1605.987915 2113.809326,1601.536255 2133.143555,1596.542725 
	C2229.815186,1571.574951 2326.519531,1546.734497 2423.146973,1521.597412 
	C2441.381348,1516.853760 2459.674316,1514.248535 2478.483154,1515.728394 
	C2498.937988,1517.337769 2517.682861,1524.002563 2533.722412,1536.703247 
	C2562.772705,1559.706055 2575.076904,1590.212646 2569.551025,1626.728027 
	C2562.579834,1672.794556 2554.318604,1718.667480 2546.467529,1764.598999 
	C2536.374512,1823.648560 2526.137695,1882.673706 2515.960449,1941.708862 
	C2504.426025,2008.617432 2492.819824,2075.513672 2481.372070,2142.437012 
	C2470.036377,2208.705811 2458.939209,2275.015625 2447.590576,2341.282227 
	C2436.354248,2406.892090 2424.937012,2472.471436 2413.592529,2538.062744 
	C2412.117920,2546.589600 2410.612061,2555.110596 2409.109619,2563.632324 
	C2398.530273,2623.639648 2361.376465,2659.864014 2305.432373,2679.033936 
	C2296.641357,2682.046387 2287.427979,2683.831543 2278.399170,2686.141357 
	C2262.923584,2690.100342 2247.439209,2694.025635 2230.384277,2698.465820 
z" data-index="3"></path>
<path fill="#01AAC1" opacity="1.000000" stroke="none" d="
M3701.928223,3046.780273 
	C3674.049561,3031.527588 3656.643799,3009.931641 3649.822510,2980.181885 
	C3646.797363,2966.990479 3646.869873,2953.625000 3649.108154,2940.453857 
	C3660.035156,2876.148193 3671.353516,2811.908936 3682.422607,2747.627197 
	C3693.717773,2682.031738 3704.848145,2616.407715 3716.116455,2550.807617 
	C3726.145264,2492.424072 3736.282471,2434.059082 3746.338623,2375.680176 
	C3756.168945,2318.613037 3765.996094,2261.544922 3775.751953,2204.465088 
	C3785.507568,2147.385254 3794.732666,2090.209961 3805.000488,2033.222778 
	C3815.731445,1973.665405 3852.293701,1936.163574 3908.691650,1917.742920 
	C3933.951416,1909.492432 3960.125000,1904.029663 3985.903076,1897.377319 
	C4078.704834,1873.428955 4171.539551,1849.606079 4264.305664,1825.522705 
	C4289.272461,1819.041016 4314.230957,1816.643677 4339.178223,1824.513306 
	C4373.364258,1835.297241 4396.559570,1857.399048 4406.104492,1892.507935 
	C4410.191406,1907.543091 4409.711914,1922.981934 4407.211914,1938.154541 
	C4397.798828,1995.292969 4387.990234,2052.366455 4378.317383,2109.462158 
	C4368.199707,2169.180664 4358.068848,2228.896973 4347.940918,2288.613770 
	C4337.812988,2348.330322 4327.642578,2408.039551 4317.562012,2467.764160 
	C4307.592285,2526.835205 4297.763184,2585.929443 4287.779297,2644.997803 
	C4277.795410,2704.063477 4267.698242,2763.109863 4257.643066,2822.163574 
	C4256.190430,2830.692871 4254.758789,2839.226562 4253.208984,2847.738281 
	C4242.451172,2906.822021 4205.914062,2943.046631 4150.562500,2961.577148 
	C4130.419922,2968.320557 4109.410156,2972.481934 4088.781250,2977.763428 
	C3990.129883,3003.020996 3891.408691,3028.010742 3792.856934,3053.650879 
	C3762.021484,3061.673340 3732.320801,3061.279297 3701.928223,3046.780273 
z" data-index="4"></path>
<path fill="#01AAC1" opacity="1.000000" stroke="none" d="
M2878.289062,2178.176758 
	C2862.500244,2180.956787 2849.120117,2187.648193 2832.743652,2187.775146 
	C2833.127930,2183.533691 2833.191650,2180.400879 2833.720703,2177.349121 
	C2845.209717,2111.077148 2856.715088,2044.807739 2868.291748,1978.550903 
	C2879.639404,1913.605957 2891.111084,1848.682495 2902.451416,1783.736328 
	C2913.677979,1719.443237 2924.823975,1655.135986 2935.975098,1590.829712 
	C2942.916260,1550.802979 2948.885986,1510.581299 2956.931641,1470.778687 
	C2968.414551,1413.971191 3004.245605,1377.979004 3058.316650,1360.163086 
	C3082.934326,1352.051636 3108.477295,1346.731445 3133.633301,1340.273682 
	C3226.519287,1316.429077 3319.435547,1292.702271 3412.299805,1268.774048 
	C3431.183105,1263.908325 3450.156494,1261.380737 3469.667969,1263.201538 
	C3529.199219,1268.757324 3568.624023,1318.976562 3558.656006,1377.893311 
	C3546.769531,1448.150879 3534.031250,1518.264160 3521.733154,1588.452393 
	C3510.469238,1652.738037 3499.302002,1717.040405 3488.088867,1781.334961 
	C3476.761230,1846.284912 3465.429199,1911.234253 3454.100098,1976.183960 
	C3452.040283,1987.992676 3450.046143,1999.813354 3447.906982,2011.607544 
	C3446.610107,2018.755371 3445.092773,2025.863281 3443.536133,2033.684570 
	C3421.077393,2039.546509 3399.273193,2045.344971 3377.413574,2050.926514 
	C3214.813477,2092.443604 3052.202393,2133.918701 2889.592041,2175.395508 
	C2886.364990,2176.218506 2883.102539,2176.902100 2878.289062,2178.176758 
z" data-index="5"></path>
<path fill="#01AAC1" opacity="1.000000" stroke="none" d="
M2805.675537,2553.617920 
	C2888.477051,2532.138672 2969.730469,2511.226807 3050.949219,2490.181152 
	C3154.727783,2463.290039 3258.476074,2436.281006 3362.249268,2409.368652 
	C3367.389404,2408.035400 3372.642822,2407.137939 3379.225342,2405.745117 
	C3379.300049,2410.729980 3380.042725,2415.213867 3379.328613,2419.452393 
	C3369.701172,2476.580078 3359.861328,2533.671875 3350.093750,2590.775879 
	C3340.101318,2649.193604 3330.088867,2707.607422 3320.161133,2766.036133 
	C3310.233643,2824.464600 3300.471680,2882.921143 3290.503418,2941.342773 
	C3281.991455,2991.229004 3272.910645,3041.020996 3264.767822,3090.966797 
	C3254.311035,3155.106445 3215.355713,3193.867432 3155.806152,3213.947021 
	C3136.296631,3220.525391 3115.901611,3224.477295 3095.909912,3229.624023 
	C2997.895020,3254.857178 2899.879395,3280.087891 2801.864258,3305.319824 
	C2783.022949,3310.169922 2764.209961,3312.869141 2744.587402,3309.390869 
	C2685.454590,3298.909424 2651.690918,3253.072998 2660.899658,3194.044434 
	C2666.133545,3160.493652 2672.325684,3127.092285 2678.046387,3093.616943 
	C2688.029785,3035.197266 2698.012939,2976.777588 2707.939697,2918.348389 
	C2717.866455,2859.918457 2727.692871,2801.471680 2737.620605,2743.041748 
	C2746.432129,2691.180908 2755.301270,2639.329590 2764.201660,2587.483643 
	C2765.545654,2579.654785 2767.196533,2571.878418 2768.812012,2563.526855 
	C2781.041748,2560.270020 2792.576904,2557.197998 2805.675537,2553.617920 
z" data-index="6" style="opacity: 1;"></path>
<path fill="#324153" opacity="1.000000" stroke="none" d="
M1720.209961,4483.950684 
	C1716.566772,4480.183105 1713.874878,4477.450195 1711.506836,4475.046387 
	C1709.864502,4475.625000 1709.065796,4475.684082 1708.656250,4476.114746 
	C1708.261841,4476.528809 1708.189575,4477.316895 1708.117920,4477.956543 
	C1707.969971,4479.275391 1707.836792,4480.604492 1707.835815,4481.929688 
	C1707.770630,4567.921875 1707.720093,4653.914062 1707.651123,4739.906250 
	C1707.650635,4740.561035 1707.458496,4741.227539 1707.277710,4741.866699 
	C1707.101929,4742.487793 1706.825195,4743.080566 1706.592529,4743.685547 
	C1693.797363,4749.878906 1551.609253,4787.484863 1526.516479,4791.147461 
	C1525.999878,4788.200195 1525.161377,4785.216309 1525.017578,4782.199219 
	C1524.764038,4776.877930 1524.928101,4771.537109 1524.928101,4766.204102 
	C1524.927002,4489.556152 1524.925537,4212.908203 1524.935791,3936.260498 
	C1524.936035,3928.395752 1525.062744,3920.531250 1525.135986,3912.015137 
	C1530.393555,3911.393555 1534.251953,3910.620605 1538.126831,3910.526367 
	C1608.699463,3908.803711 1688.953979,3909.700195 1707.149658,3912.529785 
	C1708.505859,3925.999268 1707.628174,3939.866211 1707.775635,3953.672119 
	C1707.925049,3967.651367 1707.808594,3981.633301 1707.808594,3995.331787 
	C1712.761719,3997.778076 1714.064819,3993.898682 1716.055176,3991.704834 
	C1719.188599,3988.252441 1722.062012,3984.565918 1725.131470,3981.053711 
	C1775.777710,3923.097656 1839.716675,3896.722412 1916.469971,3898.615479 
	C2018.604736,3901.134766 2126.823486,3961.137451 2175.578613,4086.629883 
	C2190.906494,4126.083008 2198.695068,4167.180664 2200.271484,4209.481934 
	C2202.094727,4258.410156 2198.392090,4306.689453 2183.999023,4353.785156 
	C2172.195312,4392.410156 2154.884033,4428.291504 2129.258057,4459.638184 
	C2070.110840,4531.989746 1993.312012,4566.681641 1900.101074,4565.309570 
	C1828.964966,4564.262695 1769.583984,4536.764648 1720.209961,4483.950684 
M2006.808716,4303.916992 
	C2018.140503,4269.833984 2021.146729,4235.013184 2016.115967,4199.467773 
	C2011.450073,4166.500000 1999.701294,4136.467773 1978.819824,4110.331055 
	C1916.053223,4031.767090 1798.339966,4034.844971 1739.690918,4116.514648 
	C1729.125122,4131.228516 1721.078491,4147.200195 1715.595215,4164.468750 
	C1703.430664,4202.778809 1701.977295,4241.543457 1710.473267,4280.773438 
	C1715.755249,4305.164062 1725.324463,4327.652344 1739.962891,4347.900391 
	C1798.592163,4428.998535 1912.929810,4430.702148 1975.435791,4358.215820 
	C1988.613892,4342.934082 1998.623169,4325.769531 2006.808716,4303.916992 
z" data-index="7" style="opacity: 1;"></path>
<path fill="#324153" opacity="1.000000" stroke="none" d="
M3588.246582,3660.526855 
	C3639.383057,3647.698486 3688.537354,3633.667725 3739.783203,3621.599854 
	C3740.886475,3647.759033 3740.160645,3672.331299 3740.291260,3696.879150 
	C3740.422119,3721.544434 3740.319824,3746.211182 3740.319824,3770.877197 
	C3740.319824,3796.209961 3740.319824,3821.542480 3740.319824,3846.875244 
	C3740.319824,3871.541260 3740.299805,3896.207520 3740.325439,3920.873535 
	C3740.350830,3945.321045 3740.203857,3969.773193 3740.424805,3993.424805 
	C3745.197510,3996.110107 3746.614990,3993.220215 3748.258545,3991.463135 
	C3758.271973,3980.758545 3767.709473,3969.468018 3778.228760,3959.292725 
	C3818.239502,3920.591309 3865.917725,3899.634277 3921.931396,3898.696533 
	C3948.031006,3898.259766 3973.805664,3900.341309 3999.085693,3907.540527 
	C4057.933594,3924.298584 4099.458984,3960.775879 4124.322266,4016.507812 
	C4139.775879,4051.147217 4145.510742,4087.841309 4147.258789,4125.353516 
	C4147.631348,4133.338379 4147.454102,4141.350586 4147.454590,4149.350098 
	C4147.464844,4276.013672 4147.461426,4402.677246 4147.461914,4529.340820 
	C4147.461914,4536.617676 4147.461914,4543.895020 4147.461914,4551.613770 
	C4143.120117,4552.378906 4139.933105,4553.317383 4136.712402,4553.451172 
	C4098.338867,4555.042480 3982.217041,4553.904785 3965.821533,4551.730957 
	C3963.308594,4545.216797 3964.565674,4537.888184 3964.559326,4530.829102 
	C3964.457520,4420.831543 3964.485352,4310.834473 3964.477051,4200.836914 
	C3964.475830,4184.163574 3964.481445,4167.487793 3960.389160,4151.147461 
	C3960.066406,4149.858398 3959.992920,4148.507812 3959.699219,4147.209473 
	C3947.785645,4094.545410 3911.145020,4064.844482 3857.085693,4064.227295 
	C3849.775635,4064.143799 3842.365723,4064.290039 3835.155273,4065.362061 
	C3785.271729,4072.778076 3753.020264,4104.429688 3744.290283,4155.450195 
	C3741.719482,4170.475098 3740.540771,4185.913574 3740.496582,4201.167480 
	C3740.180908,4310.497070 3740.323242,4419.828613 3740.319824,4529.159180 
	C3740.319580,4536.434082 3740.319580,4543.708984 3740.319580,4551.546387 
	C3724.250977,4555.486816 3708.982666,4552.992188 3693.902344,4553.447754 
	C3679.249512,4553.890625 3664.572754,4553.544434 3649.906494,4553.544434 
	C3634.573486,4553.544434 3619.240479,4553.582031 3603.907471,4553.533203 
	C3589.366943,4553.487305 3574.826904,4553.351074 3562.023193,4553.266113 
	C3559.839111,4551.366699 3559.202148,4551.011230 3558.870850,4550.468750 
	C3558.539795,4549.926758 3558.376709,4549.198242 3558.376221,4548.551270 
	C3558.186035,4261.239258 3558.015869,3973.927490 3557.845703,3686.615479 
	C3557.842529,3681.315186 3557.845215,3676.015137 3557.845215,3670.949219 
	C3566.912598,3664.030762 3577.549805,3664.625977 3588.246582,3660.526855 
z" data-index="8" style="opacity: 1;"></path>
<path fill="#324052" opacity="1.000000" stroke="none" d="
M2973.505127,4190.552734 
	C2992.979248,4353.897461 2896.497559,4503.204590 2739.382568,4550.904785 
	C2631.240234,4583.737305 2526.719238,4572.745605 2430.351074,4511.681152 
	C2350.217041,4460.903320 2301.210693,4387.136230 2285.128418,4293.710938 
	C2255.341309,4120.673828 2354.576416,3966.883301 2513.049072,3916.829590 
	C2619.936523,3883.069092 2724.293701,3892.284668 2820.765137,3951.755127 
	C2908.735352,4005.984863 2959.323975,4086.008789 2973.505127,4190.552734 
M2773.684570,4327.220215 
	C2795.056396,4286.115234 2800.634766,4242.754395 2792.442383,4197.353516 
	C2778.085693,4117.790039 2711.824951,4052.165283 2620.374268,4056.024170 
	C2552.144287,4058.903076 2502.970703,4091.182373 2475.421143,4154.158203 
	C2458.342041,4193.198730 2455.348389,4234.179199 2464.788330,4275.481445 
	C2486.045166,4368.483398 2568.601318,4427.184570 2667.842285,4406.708008 
	C2713.954346,4397.192871 2748.867432,4370.953613 2773.684570,4327.220215 
z" data-index="9" style="opacity: 1;"></path>
<path fill="#324153" opacity="1.000000" stroke="none" d="
M4347.884766,3987.887695 
	C4397.566895,3938.979492 4455.986328,3910.261475 4523.443359,3901.478760 
	C4578.280273,3894.339111 4632.624023,3898.438232 4684.978027,3917.795410 
	C4759.582031,3945.379395 4811.585938,3997.260742 4844.733398,4068.751953 
	C4872.460938,4128.552734 4882.675293,4191.855957 4881.121582,4257.352539 
	C4880.838867,4269.264648 4880.095703,4281.165527 4879.599609,4292.282227 
	C4872.507812,4297.721191 4865.606445,4295.700195 4859.193848,4295.713379 
	C4787.214355,4295.860840 4715.235352,4295.806641 4643.255859,4295.806641 
	C4579.940430,4295.806641 4516.625488,4295.790527 4453.310059,4295.831543 
	C4446.781250,4295.835449 4440.251953,4296.179688 4433.623047,4296.369141 
	C4440.157227,4349.681641 4477.823730,4396.207031 4529.528320,4412.079102 
	C4584.060547,4428.820312 4637.666504,4424.679688 4688.205566,4397.156738 
	C4703.298828,4388.937012 4716.753418,4377.684082 4730.839355,4367.652832 
	C4735.646973,4364.229492 4740.089355,4360.292969 4745.397949,4356.029297 
	C4779.808594,4386.496582 4813.644531,4416.455566 4848.423340,4447.248535 
	C4845.378418,4451.479980 4843.062988,4455.332031 4840.145996,4458.656250 
	C4786.857910,4519.389160 4719.781738,4553.967773 4639.877930,4564.487305 
	C4581.490723,4572.174805 4523.945801,4568.741211 4468.280273,4549.204102 
	C4348.165039,4507.045410 4277.688965,4422.067383 4255.617188,4297.139648 
	C4247.073242,4248.778809 4248.654297,4200.291016 4259.314453,4152.203613 
	C4273.204590,4089.545166 4301.889648,4034.858154 4347.884766,3987.887695 
M4552.256348,4045.694336 
	C4518.387695,4049.845947 4490.095215,4064.431152 4468.145508,4090.783447 
	C4447.234863,4115.887207 4431.785645,4154.179688 4432.331055,4180.181641 
	C4435.440430,4180.522949 4438.657227,4181.182617 4441.874512,4181.184570 
	C4525.141602,4181.244629 4608.408691,4181.262207 4691.675781,4181.156250 
	C4695.392090,4181.151367 4699.107910,4179.916504 4703.329590,4179.165039 
	C4699.098633,4148.690918 4690.014648,4121.196289 4672.508301,4096.879395 
	C4652.914551,4069.663818 4626.771484,4052.480469 4593.454590,4047.496338 
	C4581.042480,4045.639648 4568.309570,4045.924316 4552.256348,4045.694336 
z" data-index="10" style="opacity: 1;"></path>
<path fill="#324152" opacity="1.000000" stroke="none" d="
M975.440796,4641.578125 
	C998.994873,4640.320312 1017.024658,4630.975586 1031.618164,4615.278320 
	C1049.861084,4595.656250 1056.055542,4573.846680 1045.541260,4547.439453 
	C1014.763733,4470.138672 984.977112,4392.444824 954.709656,4314.940430 
	C904.828613,4187.213867 854.864014,4059.520752 804.986572,3931.793213 
	C802.636780,3925.775879 800.787659,3919.562988 798.580994,3913.075928 
	C801.442749,3911.972412 803.210632,3910.696777 804.980591,3910.693848 
	C866.224121,3910.590820 927.467712,3910.608154 989.309998,3910.608154 
	C991.739624,3916.923340 994.063232,3922.332031 995.925598,3927.895264 
	C1039.868408,4059.156982 1083.745483,4190.440918 1127.710083,4321.695312 
	C1129.922363,4328.300293 1130.983643,4335.590332 1137.551880,4342.990723 
	C1154.333130,4293.894043 1168.821777,4246.466797 1184.058105,4199.290527 
	C1199.604370,4151.155273 1215.051147,4102.987793 1230.501099,4054.821777 
	C1245.730957,4007.342529 1260.910400,3959.847168 1275.537964,3914.152344 
	C1277.662964,3912.261963 1278.099365,3911.702881 1278.671997,3911.411865 
	C1279.246704,3911.119629 1279.957031,3910.972168 1280.608398,3910.969971 
	C1337.906982,3910.793213 1395.205688,3910.626709 1452.504272,3910.503418 
	C1455.785156,3910.496338 1459.066772,3910.850098 1461.981445,3911.015137 
	C1466.354492,3916.172852 1462.637573,3920.232178 1461.117432,3924.297852 
	C1430.111816,4007.216064 1399.050049,4090.113037 1367.956055,4172.998047 
	C1318.626953,4304.490723 1269.283081,4435.978516 1219.906860,4567.453613 
	C1206.546143,4603.030273 1191.421387,4637.796875 1172.081421,4670.611816 
	C1156.789062,4696.559082 1139.277222,4720.780273 1117.371948,4741.627930 
	C1091.180786,4766.555664 1060.862427,4783.701172 1025.047241,4790.316895 
	C1004.553467,4794.102539 983.841614,4793.336914 963.256042,4791.772461 
	C929.836243,4789.232910 897.696106,4781.315430 867.504456,4767.115234 
	C867.291016,4750.494141 886.446350,4636.332031 892.516968,4618.424805 
	C898.358887,4619.055176 902.750061,4623.558594 908.087891,4625.483398 
	C913.090820,4627.287109 917.865234,4629.737793 922.894165,4631.452148 
	C928.553894,4633.381836 934.354797,4634.927734 940.152405,4636.413574 
	C945.306030,4637.734863 950.496765,4639.028320 955.748657,4639.817871 
	C961.669434,4640.707520 967.676758,4641.021484 975.440796,4641.578125 
z" data-index="11"></path>
<path fill="#324153" opacity="1.000000" stroke="none" d="
M5445.204102,4349.202637 
	C5447.856445,4347.076660 5449.424316,4345.855469 5451.092285,4344.791504 
	C5451.603027,4344.465820 5452.389648,4344.572266 5454.663574,4344.257812 
	C5488.571289,4378.524902 5523.168945,4413.488281 5557.285645,4447.966309 
	C5556.958496,4450.318848 5557.234375,4451.936035 5556.553223,4452.715820 
	C5519.085449,4495.560059 5475.007812,4529.030762 5420.956543,4548.444824 
	C5394.445801,4557.966797 5367.078125,4563.409668 5339.145508,4566.130371 
	C5274.939453,4572.384277 5212.463379,4565.344238 5153.708008,4537.679688 
	C5050.543457,4489.104980 4988.110840,4407.975586 4967.644531,4295.977539 
	C4952.497559,4213.088379 4965.010254,4133.736328 5008.226074,4060.823730 
	C5060.237305,3973.072998 5137.765625,3921.031006 5238.077637,3903.802246 
	C5294.592285,3894.095947 5350.951172,3896.974365 5406.530762,3911.664795 
	C5463.606445,3926.750000 5510.992676,3957.588623 5550.768555,4000.708740 
	C5552.102539,4002.154785 5552.986816,4004.015625 5554.892578,4006.920654 
	C5519.388672,4046.819336 5482.137695,4085.469238 5444.981445,4125.958496 
	C5440.382812,4121.780273 5437.160156,4118.604492 5433.683105,4115.736816 
	C5420.339844,4104.731934 5407.713379,4092.622559 5393.366699,4083.118408 
	C5356.159668,4058.470703 5314.859863,4050.949951 5271.051758,4058.449707 
	C5233.134766,4064.941162 5203.152344,4084.988037 5179.932129,4115.188477 
	C5158.703613,4142.797852 5146.761719,4174.241699 5143.487305,4208.910156 
	C5139.916016,4246.716797 5143.972168,4283.376953 5160.040527,4318.257812 
	C5189.755859,4382.761230 5252.215332,4416.622070 5322.756836,4409.829102 
	C5355.478516,4406.677734 5384.908691,4395.402832 5411.387207,4376.361816 
	C5422.726074,4368.207520 5433.259277,4358.933105 5445.204102,4349.202637 
z" data-index="12" style="opacity: 1;"></path>
<path fill="#324153" opacity="1.000000" stroke="none" d="
M3167.188965,4524.914062 
	C3140.275391,4500.620605 3127.165039,4470.500488 3120.074219,4437.218750 
	C3114.906738,4412.964844 3113.901367,4388.326660 3113.880371,4363.645020 
	C3113.802490,4272.992188 3113.847412,4182.339355 3113.846436,4091.686523 
	C3113.846436,4084.404297 3113.846436,4077.122070 3113.846436,4068.987549 
	C3109.213135,4068.182861 3105.463379,4067.020508 3101.697998,4066.966797 
	C3086.369873,4066.747070 3071.037354,4066.866943 3055.706299,4066.862549 
	C3050.452881,4066.860840 3045.199219,4066.862305 3038.951172,4066.862305 
	C3038.135498,4062.006836 3036.975830,4058.282715 3036.965088,4054.555420 
	C3036.839355,4010.562744 3036.868408,3966.569092 3036.920410,3922.575928 
	C3036.924316,3919.324707 3037.421875,3916.073975 3037.801758,3911.468994 
	C3062.438965,3908.927979 3087.009033,3911.833984 3112.104004,3909.647217 
	C3115.666016,3888.209229 3113.137695,3867.640137 3113.805420,3847.212158 
	C3114.476074,3826.683594 3112.798584,3806.088623 3114.896973,3784.475830 
	C3174.690430,3768.011963 3234.500244,3752.938477 3295.908691,3736.927002 
	C3296.700439,3767.383057 3296.205322,3795.949707 3296.302002,3824.502197 
	C3296.396240,3852.365723 3296.272461,3880.231689 3296.369141,3908.514160 
	C3314.539551,3912.114014 3331.130371,3909.987061 3347.581299,3910.381348 
	C3363.569824,3910.764893 3379.574463,3910.456299 3395.572021,3910.466797 
	C3412.153320,3910.477783 3428.734619,3910.507324 3446.539795,3910.530029 
	C3448.891357,3924.169922 3447.468750,3936.691162 3447.712891,3949.077148 
	C3447.975586,3962.403320 3447.772461,3975.738525 3447.772461,3989.069824 
	C3447.772461,4001.734619 3447.947998,4014.402344 3447.722900,4027.062988 
	C3447.500977,4039.569580 3448.740234,4052.162598 3446.708252,4065.896973 
	C3433.578369,4067.768555 3420.993164,4066.603760 3408.509766,4066.818359 
	C3396.514893,4067.024658 3384.514160,4066.862305 3372.515869,4066.862305 
	C3359.851074,4066.862305 3347.186523,4066.862305 3334.521729,4066.862305 
	C3322.612793,4066.862305 3310.703857,4066.862549 3298.079346,4066.862549 
	C3297.358398,4071.333008 3296.411621,4074.475342 3296.408936,4077.618408 
	C3296.331543,4165.604980 3296.256104,4253.592285 3296.499756,4341.577637 
	C3296.523438,4350.136719 3297.911621,4358.857422 3299.890381,4367.212891 
	C3304.093750,4384.963379 3315.455322,4395.988770 3333.213135,4400.752441 
	C3347.044189,4404.461914 3360.948975,4404.137695 3374.891357,4402.531738 
	C3395.530029,4400.154785 3415.466553,4395.031738 3434.336670,4386.122559 
	C3436.675537,4385.018066 3439.148682,4384.198242 3442.140625,4383.016602 
	C3443.212402,4385.144043 3444.683594,4386.705078 3444.687500,4388.270020 
	C3444.799316,4432.926758 3444.770752,4477.583496 3444.718506,4522.240723 
	C3444.717041,4523.541992 3444.217529,4524.842285 3443.611816,4527.789551 
	C3438.839600,4530.460449 3433.205078,4533.844727 3427.370605,4536.839844 
	C3400.387207,4550.691406 3371.614990,4558.835449 3341.588623,4562.092773 
	C3304.287842,4566.140625 3267.104980,4565.751953 3230.382812,4556.557129 
	C3207.422363,4550.807129 3186.429199,4541.236816 3167.188965,4524.914062 
z" data-index="13" style="opacity: 1;"></path>
<path fill="#414F5F" opacity="1.000000" stroke="none" d="
M4299.915039,4784.063477 
	C4306.533203,4785.620605 4306.701660,4789.713867 4306.720703,4793.729004 
	C4306.794434,4809.034180 4306.776855,4824.339844 4306.783691,4839.645020 
	C4306.790527,4854.950195 4306.862305,4870.256348 4306.745117,4885.560547 
	C4306.699707,4891.538574 4306.465820,4897.537598 4305.893555,4903.485840 
	C4302.092773,4943.010742 4275.270020,4957.651855 4246.970703,4959.804688 
	C4222.446289,4961.670898 4199.504883,4956.789062 4178.038574,4941.811035 
	C4180.373535,4936.726562 4182.479004,4932.142578 4184.669922,4927.372559 
	C4187.434570,4927.785156 4189.665039,4927.509766 4191.144043,4928.434570 
	C4203.211426,4935.984375 4216.226562,4940.601562 4230.428223,4941.750488 
	C4233.737305,4942.018555 4237.080078,4942.294922 4240.384766,4942.125977 
	C4271.936523,4940.511230 4287.571777,4921.003418 4285.311035,4891.044922 
	C4285.236328,4890.054199 4283.900391,4889.158203 4283.149414,4888.220703 
	C4253.206055,4908.387695 4248.032227,4906.972168 4236.780273,4907.926270 
	C4226.610352,4908.788574 4216.903320,4906.441406 4207.649902,4902.425293 
	C4198.354492,4898.391113 4190.459961,4892.365234 4184.113281,4884.400879 
	C4165.330078,4860.831055 4166.509766,4823.664062 4186.849609,4801.598633 
	C4199.761719,4787.591309 4216.118652,4780.940430 4234.901367,4780.877441 
	C4252.943848,4780.816895 4268.283691,4788.313965 4281.422363,4801.487793 
	C4287.160645,4796.909180 4284.168945,4790.530273 4288.318359,4784.975586 
	C4290.741211,4784.725098 4294.490234,4784.337891 4299.915039,4784.063477 
M4268.124023,4809.035645 
	C4262.781250,4806.460449 4257.670410,4803.099121 4252.056641,4801.446777 
	C4228.384766,4794.479980 4204.439941,4805.151855 4195.563477,4826.123535 
	C4185.403320,4850.125977 4197.136719,4877.915527 4221.119141,4886.649902 
	C4245.806152,4895.641113 4275.543457,4882.816895 4283.760254,4859.294922 
	C4290.392578,4840.309082 4285.426758,4824.198242 4268.124023,4809.035645 
z" data-index="14" style="opacity: 1;"></path>
<path fill="#3E4C5D" opacity="1.000000" stroke="none" d="
M2266.088379,4909.088867 
	C2266.209717,4849.459473 2266.347412,4791.523438 2266.574219,4733.588379 
	C2266.578857,4732.399414 2267.611816,4731.214844 2268.335449,4729.662109 
	C2273.851562,4729.662109 2279.516602,4729.662109 2286.669189,4729.662109 
	C2286.669189,4754.524414 2286.669189,4778.303223 2286.669189,4801.310059 
	C2292.290283,4804.178711 2294.110596,4800.559570 2296.240967,4798.506348 
	C2315.014160,4780.417969 2336.827148,4776.108887 2360.687012,4785.679199 
	C2384.336914,4795.165527 2397.241943,4813.740723 2400.653076,4838.784668 
	C2402.467041,4852.104004 2401.746582,4865.309082 2397.131592,4878.178223 
	C2380.855957,4923.562012 2326.758301,4933.111816 2297.769287,4905.982910 
	C2295.455078,4903.816895 2293.046143,4901.752441 2288.810303,4897.970215 
	C2287.565674,4905.737793 2286.697510,4911.154297 2285.686768,4917.462891 
	C2280.419189,4917.733398 2275.857910,4918.460938 2271.403809,4918.043457 
	C2267.637451,4917.691406 2266.194092,4914.448242 2266.088379,4909.088867 
M2327.917236,4902.152832 
	C2361.529053,4902.367676 2380.344727,4884.187012 2380.340088,4851.442871 
	C2380.339600,4848.129395 2380.289307,4844.784668 2379.861084,4841.506836 
	C2376.794922,4818.036621 2358.596191,4800.745117 2336.194092,4799.890625 
	C2313.599609,4799.028809 2293.441162,4814.363281 2287.933350,4836.603027 
	C2280.452637,4866.808594 2294.354248,4891.137207 2327.917236,4902.152832 
z" data-index="15" style="opacity: 1;"></path>
<path fill="#3E4C5D" opacity="1.000000" stroke="none" d="
M4938.407227,4920.393555 
	C4921.634277,4918.720703 4910.644043,4908.889648 4898.212891,4898.754395 
	C4894.978027,4906.582520 4896.462891,4913.178711 4896.221680,4919.494629 
	C4895.993164,4925.484863 4896.255859,4931.491699 4896.151367,4937.488770 
	C4896.036621,4944.046387 4895.748535,4950.600586 4895.536133,4957.174316 
	C4889.213379,4960.783203 4883.624512,4960.085449 4877.649902,4958.189453 
	C4877.007324,4956.254883 4875.883301,4954.426758 4875.869141,4952.590332 
	C4875.706543,4931.263184 4875.691895,4909.935059 4875.676758,4888.606934 
	C4875.656738,4860.612793 4875.671875,4832.618652 4875.672363,4804.624512 
	C4875.672363,4798.704102 4875.672363,4792.783691 4875.672363,4787.055664 
	C4882.068359,4782.572266 4887.782227,4783.870117 4894.080566,4785.168945 
	C4897.965332,4790.250977 4894.790527,4796.739746 4897.260742,4802.707520 
	C4898.691406,4802.441895 4901.066406,4802.731934 4902.127441,4801.687500 
	C4909.799805,4794.131836 4917.959473,4787.441895 4928.396973,4784.013672 
	C4956.819336,4774.677734 4988.939941,4788.021973 5002.894043,4815.432617 
	C5010.335449,4830.051270 5012.882812,4845.756836 5010.502441,4862.041992 
	C5004.973633,4899.855957 4979.819336,4920.631836 4938.407227,4920.393555 
M4989.093750,4860.454102 
	C4988.666016,4851.904297 4989.548340,4843.040039 4987.581543,4834.859863 
	C4979.312988,4800.464844 4938.321289,4788.346680 4912.080566,4812.107422 
	C4890.937012,4831.252930 4889.597656,4866.467285 4909.217285,4887.383789 
	C4925.090332,4904.306152 4950.232422,4907.551270 4969.044434,4894.916016 
	C4980.094238,4887.494141 4986.320312,4876.880371 4989.093750,4860.454102 
z" data-index="16" style="opacity: 1;"></path>
<path fill="#3E4C5D" opacity="1.000000" stroke="none" d="
M2000.012939,4919.849609 
	C1968.633545,4912.565430 1946.746460,4895.606445 1934.663452,4867.281738 
	C1923.421997,4840.929199 1923.673706,4814.233887 1934.792847,4787.778809 
	C1946.327148,4760.335938 1974.749634,4732.085938 2022.473511,4733.491699 
	C2047.294800,4734.222168 2069.288574,4742.547363 2087.487305,4761.489258 
	C2086.128662,4768.268555 2080.691895,4771.916992 2075.005859,4776.821777 
	C2070.714355,4773.763184 2066.574707,4770.752930 2062.375000,4767.829102 
	C2035.850952,4749.362793 2004.589111,4748.155762 1980.046143,4764.626465 
	C1956.262329,4780.587402 1943.710571,4812.356934 1949.572388,4841.886230 
	C1950.089355,4844.491211 1950.879517,4847.045410 1951.614990,4849.602539 
	C1966.945557,4902.904297 2022.265259,4912.508301 2056.910400,4890.849121 
	C2063.589355,4886.673340 2069.778564,4881.715820 2076.834961,4876.658691 
	C2080.978271,4880.616211 2084.675049,4884.146973 2087.983643,4887.307129 
	C2087.550781,4889.509766 2087.729736,4891.114258 2087.012939,4891.880859 
	C2068.228027,4911.964844 2045.054321,4921.723145 2017.542236,4920.999023 
	C2012.227173,4920.858887 2006.920898,4920.391602 2000.012939,4919.849609 
z" data-index="17" style="opacity: 1;"></path>
<path fill="#445162" opacity="1.000000" stroke="none" d="
M4629.232422,4800.325195 
	C4603.266113,4807.607910 4594.173828,4818.438965 4593.503418,4842.708008 
	C4592.988770,4861.329102 4593.435059,4879.976074 4593.346680,4898.611328 
	C4593.318848,4904.500000 4592.944336,4910.386719 4592.740723,4915.926270 
	C4586.245605,4919.661621 4580.612305,4919.100098 4573.690430,4916.382812 
	C4570.977539,4896.452637 4572.860840,4875.954102 4572.529297,4855.560547 
	C4572.183594,4834.268555 4572.349609,4812.966309 4572.481445,4791.668945 
	C4572.607910,4771.194336 4571.858398,4750.680664 4573.093750,4729.368164 
	C4580.332031,4729.368164 4586.034668,4729.368164 4591.986816,4729.368164 
	C4594.549316,4741.285645 4592.906250,4752.618164 4593.361328,4763.847656 
	C4593.803711,4774.771484 4592.392578,4785.866699 4594.558594,4796.186035 
	C4602.063477,4797.497559 4604.438477,4792.527344 4608.025879,4790.092773 
	C4615.979980,4784.695801 4624.740234,4781.642090 4634.115723,4781.027344 
	C4664.990723,4779.001953 4686.040039,4796.990723 4689.281250,4823.890137 
	C4689.836426,4828.504395 4690.411621,4833.152832 4690.435059,4837.788574 
	C4690.553223,4861.082031 4690.515625,4884.376465 4690.454590,4907.670898 
	C4690.448242,4910.257324 4689.952148,4912.842773 4689.624512,4915.994141 
	C4683.236328,4919.808105 4677.175781,4919.395996 4669.870117,4916.181152 
	C4669.630859,4911.503418 4669.219238,4906.982910 4669.199707,4902.460449 
	C4669.121582,4884.490234 4669.201172,4866.520508 4669.146484,4848.550293 
	C4669.130371,4843.230469 4669.208984,4837.875488 4668.654785,4832.598633 
	C4666.715820,4814.130859 4657.104492,4803.852051 4638.785156,4800.476074 
	C4636.201660,4799.999512 4633.477539,4800.283691 4629.232422,4800.325195 
z" data-index="18" style="opacity: 1;"></path>
<path fill="#414F5F" opacity="1.000000" stroke="none" d="
M5760.712891,4853.323730 
	C5772.918457,4840.271484 5787.312988,4835.532715 5803.095703,4835.522461 
	C5817.649414,4835.512695 5832.203613,4836.901855 5847.620117,4837.720703 
	C5852.557617,4832.348145 5849.051758,4825.869629 5846.987305,4819.896973 
	C5844.497559,4812.696777 5838.983887,4807.727051 5831.995117,4804.688965 
	C5820.591797,4799.732422 5808.669922,4799.332031 5796.726074,4801.856934 
	C5788.341309,4803.628906 5780.144531,4806.291504 5770.851562,4808.833496 
	C5769.648926,4806.581055 5768.279785,4804.482422 5767.376953,4802.199707 
	C5766.417480,4799.771484 5765.899902,4797.168457 5764.879395,4793.538574 
	C5788.721191,4781.472656 5813.192871,4778.517090 5838.435059,4786.073730 
	C5855.062988,4791.051270 5865.177246,4803.035156 5868.469727,4820.214355 
	C5869.591797,4826.069824 5870.302246,4832.094238 5870.350586,4838.048340 
	C5870.545898,4862.019043 5870.434570,4885.991699 5870.345215,4909.963867 
	C5870.338379,4911.869141 5869.629395,4913.772461 5868.999023,4916.911621 
	C5864.093262,4917.510742 5859.104980,4918.120605 5853.282227,4918.832031 
	C5851.630859,4913.917969 5850.239746,4909.778320 5848.866699,4905.693359 
	C5847.493164,4905.622070 5845.824707,4905.007324 5845.134277,4905.577148 
	C5830.501465,4917.655273 5813.735840,4923.078613 5795.000977,4920.358398 
	C5787.278809,4919.237305 5779.319336,4916.806152 5772.485840,4913.095703 
	C5755.455566,4903.849121 5748.431152,4885.713867 5753.849121,4867.067871 
	C5755.125488,4862.678223 5757.772949,4858.687500 5760.712891,4853.323730 
M5793.571289,4852.936035 
	C5790.574219,4854.343262 5787.316406,4855.373535 5784.627930,4857.228027 
	C5776.359863,4862.931641 5771.933105,4870.941895 5773.340820,4881.033203 
	C5774.733398,4891.017578 5780.968262,4897.570801 5790.242676,4901.456543 
	C5799.196289,4905.208008 5808.464844,4904.998535 5817.614746,4903.334961 
	C5828.316406,4901.388184 5837.698242,4896.478516 5844.253906,4887.419434 
	C5850.810547,4878.360352 5852.308594,4868.293945 5850.114258,4857.128418 
	C5832.412109,4850.007812 5814.784668,4849.888672 5793.571289,4852.936035 
z" data-index="19" style="opacity: 1;"></path>
<path fill="#3E4C5D" opacity="1.000000" stroke="none" d="
M5331.465820,4852.773438 
	C5331.464844,4874.604492 5331.464844,4894.541992 5331.464844,4914.183105 
	C5325.440430,4920.381836 5319.119141,4918.822754 5312.774902,4916.949219 
	C5310.014160,4901.274902 5309.930664,4746.456543 5312.691895,4729.639648 
	C5318.288574,4729.639648 5323.944824,4729.639648 5330.987305,4729.639648 
	C5330.987305,4753.125000 5330.987305,4775.552246 5330.987305,4797.256836 
	C5337.634766,4800.643066 5339.234863,4795.409668 5341.947266,4793.228027 
	C5354.620605,4783.032227 5368.987793,4779.189941 5384.891113,4781.547852 
	C5408.901855,4785.107910 5424.193359,4800.847168 5427.458008,4825.002930 
	C5427.989746,4828.936523 5427.966797,4832.962891 5427.975098,4836.947266 
	C5428.022461,4859.558594 5428.040039,4882.169922 5427.968262,4904.781250 
	C5427.956055,4908.632324 5427.461914,4912.482422 5427.206055,4916.115723 
	C5420.481445,4919.131836 5414.927734,4919.419434 5408.431152,4915.884277 
	C5408.186523,4911.577148 5407.729004,4907.055664 5407.707520,4902.532227 
	C5407.618652,4883.911133 5407.725098,4865.289551 5407.619141,4846.668945 
	C5407.588867,4841.361328 5407.610352,4835.965332 5406.703125,4830.767578 
	C5403.627441,4813.155762 5392.950684,4802.458496 5376.988770,4800.367676 
	C5358.869141,4797.994141 5342.958984,4805.893555 5335.809082,4821.698730 
	C5333.413086,4826.994141 5332.595703,4833.096680 5331.664551,4838.927734 
	C5331.043457,4842.822754 5331.495117,4846.889648 5331.465820,4852.773438 
z" data-index="20" style="opacity: 1;"></path>
<path fill="#414F5F" opacity="1.000000" stroke="none" d="
M2692.596924,4859.096680 
	C2684.754639,4859.096680 2678.832275,4859.096680 2672.098145,4859.096680 
	C2670.896484,4877.864746 2679.671387,4889.766113 2693.817383,4897.237305 
	C2717.620850,4909.809570 2738.809082,4902.160156 2758.245605,4885.179688 
	C2762.248291,4888.389160 2765.756348,4891.201660 2770.290283,4894.836914 
	C2767.424561,4898.493652 2765.522217,4901.876953 2762.766602,4904.283691 
	C2742.308838,4922.154297 2718.546387,4925.291504 2693.519287,4917.458008 
	C2658.598877,4906.527344 2644.370117,4870.126953 2649.471436,4839.130859 
	C2654.673584,4807.523438 2675.624756,4785.723633 2704.981445,4781.485352 
	C2722.290527,4778.986328 2738.154785,4783.253418 2751.805176,4794.286621 
	C2769.205078,4808.350586 2777.685059,4832.836426 2773.961670,4856.857422 
	C2772.800049,4857.450195 2771.643066,4858.548340 2770.475098,4858.560059 
	C2745.156250,4858.811523 2719.836426,4858.942383 2692.596924,4859.096680 
M2720.312988,4799.521973 
	C2705.491943,4797.296387 2692.424316,4800.873535 2682.687256,4812.554199 
	C2675.611084,4821.042969 2669.249023,4830.288086 2672.600342,4843.491211 
	C2697.104004,4843.491211 2720.930664,4843.525879 2744.756592,4843.440430 
	C2747.275391,4843.431152 2749.791504,4842.715332 2752.987061,4842.223145 
	C2754.347168,4832.763672 2751.255615,4824.882812 2746.735352,4817.558594 
	C2741.336670,4808.811523 2733.750244,4802.609863 2720.312988,4799.521973 
z" data-index="21" style="opacity: 1;"></path>
<path fill="#404E5E" opacity="1.000000" stroke="none" d="
M2199.582031,4787.649414 
	C2217.618652,4796.404297 2225.718750,4810.756348 2226.764404,4828.290039 
	C2228.501953,4857.432617 2227.565430,4886.650391 2227.249268,4916.975586 
	C2220.940918,4917.550781 2215.922852,4918.008789 2210.143555,4918.536133 
	C2208.330322,4913.841309 2206.788330,4909.848633 2205.318115,4906.041504 
	C2203.265869,4906.299805 2201.722656,4906.024902 2200.886719,4906.668945 
	C2185.241211,4918.717773 2167.596924,4923.351562 2148.236328,4920.040527 
	C2130.811523,4917.061035 2116.899414,4908.852539 2111.030518,4890.889160 
	C2105.053467,4872.594238 2111.577881,4853.574707 2128.411133,4844.378418 
	C2136.373047,4840.029297 2145.771729,4836.855957 2154.750977,4836.166992 
	C2167.913574,4835.156738 2181.287109,4836.794434 2194.563965,4837.442383 
	C2197.736084,4837.596680 2200.881592,4838.293457 2204.620605,4838.823242 
	C2208.797119,4831.419434 2206.005371,4825.212891 2203.553467,4819.318848 
	C2200.628662,4812.288574 2195.246582,4807.303711 2188.175293,4804.397461 
	C2176.010254,4799.397949 2163.505371,4799.223633 2150.908691,4802.402344 
	C2143.285400,4804.326172 2135.748047,4806.589355 2126.962402,4809.036621 
	C2125.151611,4803.523438 2123.601074,4798.802246 2121.770508,4793.229004 
	C2147.232910,4781.522949 2172.167725,4778.355469 2199.582031,4787.649414 
M2130.444336,4874.703613 
	C2129.433838,4886.580566 2134.020020,4895.588867 2144.983398,4900.378906 
	C2161.413330,4907.557129 2177.516113,4905.717285 2192.230225,4895.867188 
	C2205.770020,4886.803223 2209.871338,4873.582520 2206.484375,4856.700684 
	C2188.816650,4850.003418 2170.528564,4849.235840 2152.184570,4852.722656 
	C2142.062500,4854.646973 2133.848389,4860.354492 2130.444336,4874.703613 
z" data-index="22" style="opacity: 1;"></path>
<path fill="#404E5E" opacity="1.000000" stroke="none" d="
M4030.992432,4904.690430 
	C4027.344482,4897.544922 4023.622559,4891.748535 4022.255615,4885.442383 
	C4018.676758,4868.931152 4025.956055,4853.132324 4040.360352,4844.333984 
	C4049.638184,4838.668457 4059.867676,4835.447754 4070.730957,4835.614746 
	C4085.911621,4835.848145 4101.081543,4836.803711 4117.488281,4837.502930 
	C4121.077148,4831.657715 4118.511230,4825.510254 4116.045898,4819.514648 
	C4113.122070,4812.403320 4107.793945,4807.457031 4100.780273,4804.496582 
	C4088.648926,4799.376465 4076.121826,4799.264648 4063.525635,4802.375977 
	C4055.871338,4804.266602 4048.322754,4806.584473 4039.562744,4809.036621 
	C4037.680908,4803.679199 4036.027100,4798.972168 4034.113525,4793.525391 
	C4057.421631,4781.701172 4080.850586,4779.112305 4104.804688,4785.093750 
	C4121.399414,4789.237305 4132.708984,4800.262695 4136.989746,4817.397949 
	C4138.114258,4821.900391 4139.401367,4826.529297 4139.438477,4831.109375 
	C4139.664551,4859.062988 4139.550781,4887.019043 4139.550781,4914.233398 
	C4133.955078,4920.706543 4127.970703,4917.697754 4121.671875,4918.059570 
	C4120.475098,4913.043945 4119.476074,4908.856445 4118.158203,4903.332520 
	C4089.478271,4924.104980 4060.905762,4929.741699 4030.992432,4904.690430 
M4087.498291,4903.407715 
	C4090.623535,4902.332031 4093.884521,4901.542480 4096.852051,4900.134766 
	C4116.205566,4890.955078 4121.750000,4879.533203 4117.884766,4856.396484 
	C4101.644531,4850.111328 4084.594971,4849.963379 4067.414062,4852.101074 
	C4063.580811,4852.577637 4059.708008,4854.125000 4056.244873,4855.930176 
	C4045.630615,4861.464844 4041.322510,4870.483887 4043.122314,4882.315918 
	C4044.994629,4894.625977 4053.714111,4900.438965 4064.490234,4903.038086 
	C4070.771484,4904.553223 4077.629883,4903.675293 4087.498291,4903.407715 
z" data-index="23" style="opacity: 1;"></path>
<path fill="#414F5F" opacity="1.000000" stroke="none" d="
M4462.687012,4825.904297 
	C4464.239746,4835.281250 4465.397949,4843.164551 4466.191406,4851.084473 
	C4466.371582,4852.890137 4465.289062,4854.821777 4464.482422,4857.837891 
	C4453.671387,4860.362305 4442.425781,4858.752441 4431.347168,4859.033203 
	C4420.049805,4859.319824 4408.738770,4859.096680 4397.434082,4859.096680 
	C4386.176758,4859.096680 4374.919922,4859.096680 4362.834473,4859.096680 
	C4362.452637,4862.657715 4361.512695,4865.233887 4362.037109,4867.465332 
	C4369.645020,4899.831543 4404.470703,4912.282715 4433.274414,4896.314941 
	C4438.450195,4893.445312 4443.153320,4889.723633 4449.173340,4885.652344 
	C4452.786133,4888.773438 4456.482422,4891.966309 4459.834961,4894.861816 
	C4458.916992,4897.307617 4458.788086,4898.804199 4457.978516,4899.640137 
	C4436.066895,4922.271484 4409.617676,4926.598633 4381.066406,4916.317383 
	C4351.878906,4905.807617 4336.520996,4876.734863 4339.756836,4842.068848 
	C4342.602051,4811.590820 4363.401855,4787.875488 4392.373535,4782.076172 
	C4417.797363,4776.987305 4442.371094,4787.698242 4455.573730,4809.942871 
	C4458.264648,4814.476074 4459.989746,4819.581543 4462.687012,4825.904297 
M4383.088867,4843.529785 
	C4403.008301,4843.529785 4422.927246,4843.529785 4442.774902,4843.529785 
	C4443.398438,4828.971680 4440.484863,4820.112793 4432.704102,4811.456543 
	C4425.671387,4803.632812 4416.906738,4799.577148 4406.387207,4799.010254 
	C4381.637695,4797.676758 4363.924316,4814.695801 4361.908691,4842.798340 
	C4367.746582,4843.041992 4373.586914,4843.285645 4383.088867,4843.529785 
z" data-index="24" style="opacity: 1;"></path>
<path fill="#404E5E" opacity="1.000000" stroke="none" d="
M6185.152832,4823.156250 
	C6188.947266,4835.445801 6190.974609,4846.333496 6187.894531,4858.970703 
	C6153.455078,4858.970703 6119.709473,4858.970703 6085.106445,4858.970703 
	C6085.832031,4877.156250 6093.455566,4889.673828 6107.859375,4897.295410 
	C6131.781738,4909.954102 6152.782715,4901.708496 6172.549316,4885.421875 
	C6176.461426,4888.629395 6179.901855,4891.450684 6183.021484,4894.008301 
	C6182.713379,4896.099609 6182.980469,4897.752441 6182.276855,4898.557617 
	C6163.645508,4919.883301 6139.497070,4924.893555 6113.298828,4919.228027 
	C6090.247559,4914.242676 6074.557617,4899.147461 6067.053223,4876.610840 
	C6060.263672,4856.221680 6061.076172,4835.919434 6070.899902,4816.543457 
	C6082.449707,4793.762207 6101.444336,4781.369629 6126.791016,4781.022461 
	C6151.410156,4780.685547 6170.189941,4791.939453 6181.520020,4814.377930 
	C6182.713379,4816.741211 6183.611328,4819.253906 6185.152832,4823.156250 
M6097.655762,4811.387207 
	C6093.752930,4818.227051 6089.423828,4824.871094 6086.149414,4831.999512 
	C6084.768066,4835.008301 6085.608887,4839.037109 6085.441406,4842.569824 
	C6120.708008,4844.923340 6153.535645,4844.234863 6168.029297,4840.770020 
	C6167.601074,4826.812500 6161.742676,4815.437500 6151.080078,4806.624512 
	C6141.771973,4798.930664 6130.650391,4797.966309 6119.097168,4799.578125 
	C6111.580078,4800.627441 6105.465332,4804.387207 6097.655762,4811.387207 
z" data-index="25" style="opacity: 1;"></path>
<path fill="#414F5F" opacity="1.000000" stroke="none" d="
M3027.038574,4900.186523 
	C3050.832520,4908.064453 3068.782471,4898.929199 3085.830811,4885.300781 
	C3089.612549,4888.662598 3092.985107,4891.660156 3097.230225,4895.433594 
	C3087.201904,4909.888672 3073.629639,4917.223633 3057.579834,4920.024902 
	C3026.104248,4925.518555 2998.521484,4912.948730 2984.494385,4887.364258 
	C2969.756592,4860.483887 2973.839600,4823.733398 2993.901367,4801.557129 
	C3023.452881,4768.890137 3079.990723,4774.898438 3096.864990,4819.842773 
	C3101.286133,4831.618164 3104.718994,4843.709961 3101.648193,4857.548828 
	C3097.679199,4858.077637 3093.881592,4859.002441 3090.079590,4859.022461 
	C3064.815918,4859.156250 3039.551514,4859.028320 3014.287842,4859.156250 
	C3009.189453,4859.182129 3004.094727,4859.939941 2997.718750,4860.465332 
	C2999.737549,4879.854492 3009.016357,4892.213867 3027.038574,4900.186523 
M3051.459717,4800.222656 
	C3045.498291,4799.948730 3039.496582,4799.106445 3033.584229,4799.524902 
	C3022.992432,4800.274414 3014.669434,4805.921875 3008.361816,4814.085449 
	C3001.973877,4822.353027 2996.883301,4831.353027 2998.423096,4842.865234 
	C3026.069580,4842.865234 3052.627441,4842.865234 3079.036865,4842.865234 
	C3082.437012,4834.540039 3078.871826,4827.937500 3075.803467,4821.336426 
	C3071.399170,4811.859863 3064.190918,4805.214844 3051.459717,4800.222656 
z" data-index="26" style="opacity: 1;"></path>
<path fill="#404E5E" opacity="1.000000" stroke="none" d="
M5492.016602,4887.979492 
	C5517.976562,4908.906250 5533.601562,4908.365723 5569.047852,4886.377441 
	C5570.612793,4887.246582 5572.510254,4887.954590 5573.958008,4889.189941 
	C5575.935059,4890.876465 5577.569824,4892.964355 5579.272461,4894.795410 
	C5570.336914,4908.437012 5558.156738,4916.673340 5542.666016,4919.776855 
	C5510.129883,4926.295410 5480.743164,4913.034180 5466.672363,4885.482422 
	C5451.859863,4856.478027 5458.279785,4818.474609 5481.404785,4797.186523 
	C5509.853516,4770.998535 5561.339355,4775.189941 5579.433105,4818.337402 
	C5584.574707,4830.599121 5587.500488,4843.482910 5584.198242,4858.222656 
	C5572.828613,4859.872559 5561.624512,4858.860840 5550.513184,4859.038086 
	C5539.202637,4859.218262 5527.886230,4859.077148 5516.572754,4859.077148 
	C5505.302246,4859.077148 5494.032227,4859.077637 5481.285645,4859.077637 
	C5481.782715,4863.902344 5481.395996,4867.798828 5482.691406,4871.018066 
	C5484.898438,4876.501953 5488.162598,4881.560547 5492.016602,4887.979492 
M5500.772461,4805.268555 
	C5488.627930,4814.520996 5481.256348,4826.251465 5480.931152,4843.387207 
	C5508.640137,4843.585938 5535.596680,4843.681641 5562.508789,4843.376953 
	C5563.610840,4817.686035 5547.766602,4799.606445 5524.539062,4798.977051 
	C5517.168457,4798.777344 5509.997070,4799.716309 5500.772461,4805.268555 
z" data-index="27" style="opacity: 1;"></path>
<path fill="#3E4C5D" opacity="1.000000" stroke="none" d="
M3612.101562,4795.725586 
	C3635.767334,4816.635742 3643.216553,4841.490234 3635.842041,4870.443359 
	C3629.047852,4897.119629 3602.573242,4925.092773 3559.635986,4920.710449 
	C3526.940430,4917.373535 3501.182861,4890.538086 3499.101807,4857.037109 
	C3497.393555,4829.543945 3507.335938,4807.240234 3530.515137,4792.302734 
	C3553.563477,4777.449707 3578.042725,4777.119629 3602.552002,4789.486328 
	C3605.498047,4790.973145 3608.145020,4793.051758 3612.101562,4795.725586 
M3566.685303,4903.017578 
	C3577.667969,4903.111816 3587.807861,4900.286133 3596.760010,4893.863281 
	C3615.543457,4880.387695 3622.647461,4853.547852 3613.547119,4830.957520 
	C3605.530273,4811.056152 3587.974365,4799.270020 3566.943115,4799.669922 
	C3545.970459,4800.068359 3529.076172,4812.603516 3522.554932,4833.618164 
	C3516.380127,4853.516113 3519.780273,4871.833008 3533.861084,4887.654297 
	C3541.770508,4896.541504 3552.176514,4900.671387 3566.685303,4903.017578 
z" data-index="28" style="opacity: 1;"></path>
<path fill="#3E4C5D" opacity="1.000000" stroke="none" d="
M5146.347656,4793.280273 
	C5167.544434,4809.355957 5176.994141,4829.620117 5176.017578,4854.636719 
	C5174.627441,4890.238770 5146.479492,4918.543945 5111.248047,4920.988281 
	C5073.000488,4923.642090 5042.135742,4898.469727 5036.715820,4861.145020 
	C5031.467773,4825.009277 5054.589355,4791.601562 5089.765137,4783.068848 
	C5109.694824,4778.233887 5127.930176,4781.978516 5146.347656,4793.280273 
M5105.895508,4799.679688 
	C5070.471680,4796.826660 5043.517578,4841.113770 5064.356445,4877.871094 
	C5074.433594,4895.645508 5090.478516,4904.429688 5110.661621,4902.601074 
	C5130.812500,4900.775391 5144.753906,4889.334473 5151.898926,4870.071777 
	C5164.229980,4836.825195 5140.695312,4800.319824 5105.895508,4799.679688 
z" data-index="29" style="opacity: 1;"></path>
<path fill="#414F5F" opacity="1.000000" stroke="none" d="
M3727.643066,4902.072266 
	C3738.058105,4900.822266 3746.149658,4898.308594 3752.846191,4892.158203 
	C3762.368896,4883.412109 3765.668213,4872.157715 3765.854004,4859.825684 
	C3766.124756,4841.871094 3765.911621,4823.909180 3766.004639,4805.951172 
	C3766.038574,4799.374023 3766.358398,4792.798340 3766.580322,4785.102539 
	C3773.196533,4785.102539 3778.838379,4785.102539 3784.426514,4785.102539 
	C3787.469971,4799.956543 3788.359131,4875.024902 3786.037598,4914.599121 
	C3778.720703,4918.087402 3778.720703,4918.087402 3768.439453,4917.611328 
	C3766.965332,4913.233398 3765.358887,4908.462402 3763.480957,4902.884766 
	C3760.851074,4904.632812 3758.460205,4905.779297 3756.625732,4907.513184 
	C3744.006348,4919.442871 3728.761230,4922.218262 3712.207764,4920.487305 
	C3692.511475,4918.427734 3677.401611,4906.017578 3672.027832,4886.869141 
	C3670.247559,4880.525879 3669.010986,4873.811523 3668.924072,4867.248535 
	C3668.588623,4841.979980 3668.785400,4816.703613 3668.908691,4791.430664 
	C3668.917725,4789.555176 3669.913818,4787.685059 3670.707520,4784.918945 
	C3676.418945,4784.918945 3682.118896,4784.918945 3688.640381,4784.918945 
	C3688.985107,4790.800781 3689.519531,4796.023926 3689.555420,4801.250488 
	C3689.669678,4817.877930 3689.591309,4834.506836 3689.604492,4851.135254 
	C3689.607666,4855.125488 3689.475830,4859.129395 3689.751465,4863.103027 
	C3691.519775,4888.580566 3699.962402,4897.646484 3727.643066,4902.072266 
z" data-index="30" style="opacity: 1;"></path>
<path fill="#404E5E" opacity="1.000000" stroke="none" d="
M2596.933594,4871.989746 
	C2596.890625,4858.713867 2596.968994,4847.391602 2596.778076,4836.073730 
	C2596.404297,4813.926758 2581.977051,4802.043457 2566.093018,4800.317871 
	C2544.815918,4798.007324 2527.813477,4809.383301 2522.856445,4830.071777 
	C2521.327148,4836.455566 2521.016846,4843.229980 2520.918457,4849.837891 
	C2520.660645,4867.148438 2520.827393,4884.464844 2520.825195,4901.779297 
	C2520.824463,4906.381836 2520.824951,4910.984375 2520.824951,4915.143066 
	C2511.279297,4918.223145 2511.278809,4918.379395 2502.987793,4917.000000 
	C2502.258545,4915.931641 2500.897705,4914.866211 2500.893066,4913.793945 
	C2500.716553,4872.522949 2500.652100,4831.251953 2500.650879,4789.980469 
	C2500.650879,4788.754395 2501.484375,4787.527832 2502.430176,4784.920898 
	C2507.523926,4784.663574 2513.186279,4784.376953 2518.499756,4784.108398 
	C2520.373291,4789.499023 2521.830811,4793.691895 2523.630371,4798.869141 
	C2528.370850,4795.530273 2532.058350,4792.810547 2535.866943,4790.271484 
	C2552.763428,4779.007324 2570.789307,4778.017090 2589.192139,4785.510742 
	C2603.789551,4791.453613 2612.395508,4803.053223 2615.912354,4818.206055 
	C2617.256348,4823.996094 2617.827881,4830.079590 2617.876709,4836.036621 
	C2618.079346,4860.674316 2617.971191,4885.314453 2617.889893,4909.953613 
	C2617.883545,4911.864258 2617.201172,4913.772949 2616.832031,4915.687500 
	C2611.263672,4920.036621 2605.518311,4918.669922 2599.371582,4917.062988 
	C2598.656006,4915.411133 2597.267822,4913.664551 2597.232422,4911.890625 
	C2596.978027,4899.245605 2596.999512,4886.594238 2596.933594,4871.989746 
z" data-index="31" style="opacity: 1;"></path>
<path fill="#3E4C5D" opacity="1.000000" stroke="none" d="
M4758.457031,4886.308594 
	C4742.904785,4852.236816 4728.041016,4819.551758 4712.929199,4786.320312 
	C4720.379395,4782.760742 4726.766113,4783.812988 4734.451172,4785.016602 
	C4751.166992,4818.844727 4764.206055,4855.002930 4782.238281,4891.219238 
	C4792.877930,4873.050781 4797.603027,4854.997070 4804.502441,4837.896973 
	C4811.472168,4820.622559 4818.130859,4803.222168 4825.267578,4785.004883 
	C4831.716309,4785.004883 4838.089844,4785.004883 4845.619141,4785.004883 
	C4844.643066,4788.980469 4844.255371,4792.188477 4843.085449,4795.079590 
	C4825.849121,4837.669922 4808.557129,4880.238770 4791.131836,4922.752441 
	C4788.867188,4928.278320 4786.081543,4933.644531 4783.026367,4938.781250 
	C4773.598633,4954.630371 4759.645020,4962.199707 4741.164062,4959.985352 
	C4734.071289,4959.135254 4727.141602,4956.927734 4718.577148,4954.985352 
	C4720.576660,4948.824707 4722.102051,4944.124512 4723.852539,4938.730469 
	C4728.815918,4939.577148 4732.670898,4940.103027 4736.467285,4940.905273 
	C4751.686035,4944.121094 4762.506836,4938.702637 4768.964355,4924.559082 
	C4769.789062,4922.752441 4770.598145,4920.937988 4772.121582,4917.560547 
	C4768.078125,4908.253418 4763.612305,4897.974121 4758.457031,4886.308594 
z" data-index="32" style="opacity: 1;"></path>
<path fill="#3E4C5D" opacity="1.000000" stroke="none" d="
M3232.601318,4790.922852 
	C3246.364746,4802.449707 3251.634277,4816.508301 3251.814453,4832.437500 
	C3252.115479,4859.041504 3251.846436,4885.652344 3251.731201,4912.259766 
	C3251.725830,4913.461914 3250.874512,4914.659180 3250.280762,4916.217285 
	C3244.987793,4919.705566 3239.376221,4918.826172 3232.459961,4916.555176 
	C3232.145264,4912.809570 3231.567627,4909.002441 3231.548584,4905.192871 
	C3231.451660,4885.898926 3231.585938,4866.604004 3231.446045,4847.310547 
	C3231.402832,4841.346191 3231.402344,4835.258789 3230.258301,4829.449219 
	C3226.977295,4812.789551 3216.600098,4802.660156 3201.465576,4800.444824 
	C3184.272461,4797.927734 3168.732178,4805.155762 3160.610840,4819.276367 
	C3156.484375,4826.451172 3155.295166,4834.227539 3155.288818,4842.313477 
	C3155.273682,4861.607422 3155.297852,4880.901855 3155.223145,4900.195801 
	C3155.202881,4905.391602 3154.885254,4910.586426 3154.723389,4915.228516 
	C3148.239746,4919.775391 3142.531006,4918.814453 3136.786621,4917.002441 
	C3133.915283,4903.356934 3133.281250,4807.995605 3135.960693,4785.268555 
	C3138.331543,4784.863281 3140.874023,4784.114746 3143.428955,4784.070312 
	C3146.640137,4784.015137 3149.861572,4784.535156 3153.529053,4784.844727 
	C3154.625732,4789.949219 3155.572754,4794.357422 3156.625244,4799.256348 
	C3158.446289,4798.502930 3160.533447,4798.212402 3161.774414,4797.031738 
	C3168.635254,4790.506348 3176.220215,4785.509277 3185.536865,4783.017578 
	C3201.937744,4778.629395 3217.115234,4781.159180 3232.601318,4790.922852 
z" data-index="33" style="opacity: 1;"></path>
<path fill="#404E5E" opacity="1.000000" stroke="none" d="
M5644.373047,4887.536133 
	C5666.094727,4908.963867 5694.730957,4905.295898 5712.342773,4889.749023 
	C5714.307617,4888.014648 5716.438965,4886.469727 5719.482422,4884.050781 
	C5723.462402,4887.201660 5727.426758,4890.339844 5730.936035,4893.117676 
	C5729.666992,4904.545898 5705.843262,4918.736816 5686.940918,4920.721680 
	C5645.880859,4925.032227 5620.815918,4899.350586 5612.505859,4873.416016 
	C5602.061523,4840.818848 5616.058594,4805.258789 5645.267090,4789.262207 
	C5673.864746,4773.601074 5708.348145,4780.010742 5730.685059,4805.912109 
	C5726.850098,4809.985840 5722.929199,4814.151367 5718.745117,4818.596191 
	C5713.125977,4814.409668 5708.600586,4810.571289 5703.638672,4807.419922 
	C5675.121094,4789.304688 5639.036133,4804.494141 5632.106934,4837.676270 
	C5628.391113,4855.471680 5631.039551,4872.113281 5644.373047,4887.536133 
z" data-index="34" style="opacity: 1;"></path>
<path fill="#404E5E" opacity="1.000000" stroke="none" d="
M3437.646973,4781.769531 
	C3454.767822,4784.944824 3468.222656,4791.364746 3479.205566,4805.065918 
	C3475.505859,4809.446289 3471.897949,4813.717773 3468.693848,4817.511230 
	C3466.185791,4816.979980 3464.741699,4817.069336 3463.838379,4816.414062 
	C3460.080322,4813.687012 3456.674316,4810.445312 3452.799561,4807.912109 
	C3425.794189,4790.257812 3391.687500,4802.108398 3381.747559,4832.923828 
	C3377.570557,4845.873535 3377.728027,4859.156250 3382.998779,4872.004395 
	C3394.611816,4900.312500 3426.041504,4911.001465 3452.477539,4895.489258 
	C3457.583496,4892.493652 3462.167969,4888.610352 3468.179443,4884.282227 
	C3471.853760,4887.179199 3475.791260,4890.283691 3480.382812,4893.903809 
	C3471.379883,4908.456055 3458.484863,4916.323730 3443.343750,4919.403320 
	C3407.090576,4926.774902 3380.908203,4911.284668 3366.670166,4886.256836 
	C3351.541992,4859.663574 3355.495117,4825.132812 3376.407715,4802.856934 
	C3392.547607,4785.665039 3412.698730,4778.961914 3437.646973,4781.769531 
z" data-index="35" style="opacity: 1;"></path>
<path fill="#404E5E" opacity="1.000000" stroke="none" d="
M3920.131836,4786.079102 
	C3925.614502,4784.148438 3930.129639,4783.496094 3935.724854,4782.687500 
	C3936.261719,4770.148438 3936.792969,4757.739258 3937.357910,4744.542969 
	C3944.315186,4744.542969 3950.037109,4744.542969 3957.196777,4744.542969 
	C3957.196777,4757.252930 3957.196777,4769.096191 3957.196777,4781.259277 
	C3970.991211,4786.799805 3984.635010,4781.552734 3998.220947,4785.353027 
	C4000.445801,4790.094727 4000.314209,4795.061035 3997.850830,4801.630859 
	C3985.458008,4802.206055 3972.430420,4802.811035 3958.414551,4803.461426 
	C3957.978271,4808.532227 3957.388672,4812.333496 3957.368164,4816.137695 
	C3957.267090,4834.781738 3957.291748,4853.427246 3957.335205,4872.071777 
	C3957.344482,4876.060059 3957.219727,4880.110840 3957.842773,4884.023438 
	C3959.602539,4895.073730 3965.405029,4900.321777 3976.561523,4901.125488 
	C3979.848877,4901.361816 3983.203369,4901.034180 3986.498779,4900.694336 
	C3989.779541,4900.355469 3993.025391,4899.675781 3996.249023,4899.151855 
	C4001.252197,4903.799805 3999.524658,4908.831543 3997.849854,4914.733398 
	C3986.100586,4922.199219 3972.959717,4921.854004 3959.912354,4918.337402 
	C3948.923340,4915.375488 3941.304199,4907.896484 3938.843506,4896.463379 
	C3937.458008,4890.025879 3936.718994,4883.342285 3936.615723,4876.755371 
	C3936.323242,4858.115234 3936.508545,4839.467773 3936.505859,4820.823242 
	C3936.505127,4815.564453 3936.505859,4810.305176 3936.505859,4804.354980 
	C3930.427734,4803.180176 3925.451172,4802.218262 3919.164551,4801.002930 
	C3919.164551,4796.250000 3919.164551,4791.803711 3920.131836,4786.079102 
z" data-index="36" style="opacity: 1;"></path>
<path fill="#404E5E" opacity="1.000000" stroke="none" d="
M2874.813477,4800.779297 
	C2861.751709,4802.309570 2849.840088,4802.697266 2837.078369,4803.112793 
	C2836.449219,4807.224609 2835.400146,4811.010742 2835.368164,4814.805176 
	C2835.199951,4834.738770 2835.270752,4854.674316 2835.305908,4874.609375 
	C2835.311768,4877.926270 2835.285156,4881.278809 2835.729004,4884.553223 
	C2837.091553,4894.601074 2842.476074,4900.289551 2852.637939,4900.884766 
	C2859.837402,4901.305664 2867.131836,4900.104980 2875.497559,4899.555664 
	C2875.497559,4904.454102 2875.497559,4909.443359 2875.497559,4914.695312 
	C2863.749512,4922.025879 2851.173828,4921.714355 2838.803711,4918.785645 
	C2826.103760,4915.778320 2817.954346,4907.153809 2815.795410,4894.088379 
	C2814.612305,4886.930176 2814.533691,4879.540527 2814.481445,4872.251953 
	C2814.324463,4850.357422 2814.425049,4828.461914 2814.425049,4805.654297 
	C2808.459229,4803.824219 2802.980469,4802.143066 2796.735352,4800.227051 
	C2796.524414,4795.971191 2796.300537,4791.453613 2796.033936,4786.075195 
	C2802.021973,4784.681152 2807.560303,4783.391602 2814.374023,4781.805176 
	C2814.374023,4769.501953 2814.374023,4757.689941 2814.374023,4744.771484 
	C2821.503174,4744.771484 2827.182373,4744.771484 2833.343994,4744.771484 
	C2837.765869,4756.896484 2833.047363,4769.853027 2836.883057,4782.769043 
	C2849.271240,4785.489258 2861.955322,4782.662598 2874.354004,4784.610352 
	C2878.276855,4789.239746 2877.263184,4794.422363 2874.813477,4800.779297 
z" data-index="37" style="opacity: 1;"></path>
<path fill="#414F5F" opacity="1.000000" stroke="none" d="
M5276.091797,4800.973633 
	C5262.763184,4802.324219 5250.846680,4802.735352 5238.059082,4803.176758 
	C5237.396973,4807.418457 5236.335449,4811.177246 5236.301758,4814.945312 
	C5236.131348,4834.236328 5236.196289,4853.529297 5236.254395,4872.821777 
	C5236.266113,4876.804199 5236.210449,4880.851074 5236.860840,4884.755371 
	C5238.506836,4894.636719 5244.228027,4900.327637 5254.211426,4900.895508 
	C5261.387207,4901.302734 5268.648926,4900.203613 5275.872070,4899.775391 
	C5279.347168,4913.701172 5277.708496,4917.084961 5265.838867,4919.372070 
	C5261.951660,4920.121582 5257.909180,4920.317871 5253.936523,4920.334473 
	C5229.734375,4920.433105 5216.597656,4908.247070 5215.927734,4884.116699 
	C5215.374023,4864.174316 5215.794922,4844.204590 5215.786133,4824.247070 
	C5215.783203,4817.666992 5215.785645,4811.087402 5215.785645,4804.247070 
	C5209.317871,4803.057617 5204.194824,4802.115723 5197.960938,4800.969238 
	C5197.960938,4795.820312 5197.960938,4790.938965 5197.960938,4785.209473 
	C5203.561523,4784.339844 5208.625488,4783.553711 5214.893555,4782.580566 
	C5215.464844,4770.114258 5216.030273,4757.759277 5216.633301,4744.590820 
	C5222.922852,4744.590820 5228.021973,4744.590820 5233.655762,4744.590820 
	C5234.303711,4745.973145 5235.741699,4747.670898 5235.818848,4749.429199 
	C5236.284180,4759.972656 5236.436523,4770.529785 5236.709961,4781.744629 
	C5249.990234,4786.466797 5263.556641,4781.796875 5276.156738,4784.935547 
	C5280.354980,4789.894531 5279.416992,4794.922363 5276.091797,4800.973633 
z" data-index="38" style="opacity: 1;"></path>
<path fill="#3E4C5D" opacity="1.000000" stroke="none" d="
M5980.958008,4784.132324 
	C5985.919434,4784.176270 5989.211914,4784.354004 5993.886230,4784.605469 
	C5994.797852,4792.266602 5995.692383,4799.782715 5996.770020,4808.833496 
	C6004.107422,4805.645020 6006.480957,4798.694336 6011.691406,4795.197754 
	C6016.634766,4791.880859 6021.407715,4788.011230 6026.830566,4785.786133 
	C6032.797363,4783.338867 6039.419922,4782.491211 6045.510254,4781.006348 
	C6049.872070,4790.805176 6050.053711,4790.806641 6047.703613,4802.654297 
	C6045.913086,4803.121094 6044.034180,4803.706543 6042.114746,4804.097168 
	C6013.291504,4809.964844 5998.077148,4826.604492 5996.015625,4855.793457 
	C5995.081543,4869.027344 5995.581543,4882.363770 5995.473633,4895.653809 
	C5995.420410,4902.211914 5995.464355,4908.770508 5995.464355,4914.241699 
	C5989.149902,4920.560547 5983.221191,4917.625000 5978.162598,4917.937988 
	C5976.788574,4915.992676 5975.394531,4914.939453 5975.389648,4913.879395 
	C5975.192383,4873.340332 5975.109863,4832.800293 5975.058594,4792.260742 
	C5975.054199,4788.933594 5975.337402,4785.582031 5980.958008,4784.132324 
z" data-index="39" style="opacity: 1;"></path>
<path fill="#3E4C5D" opacity="1.000000" stroke="none" d="
M3827.827637,4895.223145 
	C3827.938721,4858.771973 3828.034912,4824.216309 3828.223877,4789.661133 
	C3828.230469,4788.471680 3829.166748,4787.288086 3830.114014,4785.053711 
	C3835.246582,4785.053711 3840.827881,4785.053711 3847.465332,4785.053711 
	C3848.006348,4792.782715 3848.497803,4799.808594 3848.968506,4806.533203 
	C3855.020264,4809.164062 3856.222168,4803.938965 3858.527344,4801.400391 
	C3869.749023,4789.041992 3882.922607,4781.355469 3901.226562,4782.122070 
	C3901.866943,4785.583496 3902.761475,4788.665039 3902.924072,4791.785156 
	C3903.092285,4795.005371 3902.548340,4798.262207 3902.258545,4802.302734 
	C3896.661621,4803.522949 3891.540039,4804.343750 3886.593506,4805.771484 
	C3869.307129,4810.758301 3857.557861,4822.047363 3852.591553,4839.128418 
	C3849.854248,4848.541992 3848.976318,4858.664551 3848.493896,4868.528320 
	C3847.721191,4884.325195 3848.695068,4900.196777 3848.036377,4915.434570 
	C3841.215332,4919.593750 3835.630371,4918.977539 3828.668213,4916.262207 
	C3828.395508,4910.046387 3828.111572,4903.582520 3827.827637,4895.223145 
z" data-index="40" style="opacity: 1;"></path>
<path fill="#414F5F" opacity="1.000000" stroke="none" d="
M2436.704590,4844.019531 
	C2436.812744,4823.540527 2436.470459,4805.043457 2436.937988,4785.201660 
	C2443.750000,4784.760742 2449.328857,4784.399902 2454.282471,4784.079590 
	C2455.623535,4786.412109 2456.775635,4787.490723 2456.802246,4788.596680 
	C2457.817627,4830.961914 2457.110352,4873.318359 2457.368652,4914.923828 
	C2450.676270,4919.885742 2445.028076,4918.838379 2438.935059,4916.919434 
	C2438.268555,4915.247559 2436.961182,4913.479004 2436.945801,4911.698730 
	C2436.755615,4889.805176 2436.754395,4867.909180 2436.704590,4844.019531 
z" data-index="41" style="opacity: 1;"></path>
<path fill="#3E4C5D" opacity="1.000000" stroke="none" d="
M5911.311523,4855.989258 
	C5911.311035,4831.549316 5911.311035,4809.104004 5911.311035,4787.084473 
	C5917.936523,4782.666992 5923.600098,4783.794922 5930.218262,4785.416016 
	C5933.648926,4799.466309 5931.334961,4814.010742 5931.749512,4828.370605 
	C5932.169922,4842.940918 5931.841309,4857.532715 5931.841309,4872.114746 
	C5931.841309,4886.611816 5931.841797,4901.108398 5931.841797,4914.727539 
	C5925.272461,4919.885254 5919.598145,4918.654297 5914.100586,4917.193359 
	C5913.200195,4915.758789 5911.954590,4914.693359 5911.937500,4913.607422 
	C5911.639160,4895.067871 5911.491699,4876.525879 5911.311523,4855.989258 
z" data-index="42"></path>
<path fill="#445162" opacity="1.000000" stroke="none" d="
M5523.033203,4750.731934 
	C5528.581543,4742.345703 5533.347656,4735.213867 5537.974121,4728.290527 
	C5546.819824,4727.415527 5552.029297,4732.462402 5559.413086,4736.139160 
	C5551.016113,4746.261230 5542.412598,4753.443848 5534.230469,4761.005859 
	C5530.203613,4764.728027 5529.990234,4764.487305 5516.725586,4762.475098 
	C5518.656250,4758.809082 5520.453125,4755.397461 5523.033203,4750.731934 
z" data-index="43"></path>
<path fill="#445162" opacity="1.000000" stroke="none" d="
M5926.413086,4732.501953 
	C5929.454590,4733.708008 5932.083496,4734.750000 5932.179199,4735.987305 
	C5932.626953,4741.798828 5932.377930,4747.664062 5932.377930,4754.859375 
	C5925.440918,4755.202637 5919.137207,4755.514160 5912.867676,4755.824219 
	C5907.941406,4748.270508 5909.508301,4741.400391 5910.832520,4733.491211 
	C5915.936035,4733.103516 5920.385254,4732.765625 5926.413086,4732.501953 
z" data-index="44"></path>
<path fill="#445162" opacity="1.000000" stroke="none" d="
M2444.181396,4732.458984 
	C2449.668701,4732.729004 2453.456299,4733.042480 2458.228516,4733.437500 
	C2458.228516,4740.674805 2458.228516,4746.917480 2458.228516,4754.608887 
	C2451.512207,4755.071289 2445.219971,4755.503906 2439.362305,4755.907227 
	C2433.760742,4749.337891 2435.324219,4742.694824 2436.593506,4736.438965 
	C2436.926758,4734.796387 2440.432861,4733.797363 2444.181396,4732.458984 
z" data-index="45"></path>

<path fill="#FDFDFE" opacity="1.000000" stroke="none" d="
M2006.158813,4305.354980 
	C1998.623169,4325.769531 1988.613892,4342.934082 1975.435791,4358.215820 
	C1912.929810,4430.702148 1798.592163,4428.998535 1739.962891,4347.900391 
	C1725.324463,4327.652344 1715.755249,4305.164062 1710.473267,4280.773438 
	C1701.977295,4241.543457 1703.430664,4202.778809 1715.595215,4164.468750 
	C1721.078491,4147.200195 1729.125122,4131.228516 1739.690918,4116.514648 
	C1798.339966,4034.844971 1916.053223,4031.767090 1978.819824,4110.331055 
	C1999.701294,4136.467773 2011.450073,4166.500000 2016.115967,4199.467773 
	C2021.146729,4235.013184 2018.140503,4269.833984 2006.158813,4305.354980 
z" data-index="47" style="opacity: 1; visibility: hidden; fill: rgb(121, 40, 202);"></path>

<path fill="#FCFDFD" opacity="1.000000" stroke="none" d="
M4553.989746,4045.463379 
	C4568.309570,4045.924316 4581.042480,4045.639648 4593.454590,4047.496338 
	C4626.771484,4052.480469 4652.914551,4069.663818 4672.508301,4096.879395 
	C4690.014648,4121.196289 4699.098633,4148.690918 4703.329590,4179.165039 
	C4699.107910,4179.916504 4695.392090,4181.151367 4691.675781,4181.156250 
	C4608.408691,4181.262207 4525.141602,4181.244629 4441.874512,4181.184570 
	C4438.657227,4181.182617 4435.440430,4180.522949 4432.331055,4180.181641 
	C4431.785645,4154.179688 4447.234863,4115.887207 4468.145508,4090.783447 
	C4490.095215,4064.431152 4518.387695,4049.845947 4553.989746,4045.463379 
z" data-index="49" style="opacity: 1; visibility: hidden;"></path>

<path fill="#FAFAFB" opacity="1.000000" stroke="none" d="
M2326.436035,4901.772461 
	C2294.354248,4891.137207 2280.452637,4866.808594 2287.933350,4836.603027 
	C2293.441162,4814.363281 2313.599609,4799.028809 2336.194092,4799.890625 
	C2358.596191,4800.745117 2376.794922,4818.036621 2379.861084,4841.506836 
	C2380.289307,4844.784668 2380.339600,4848.129395 2380.340088,4851.442871 
	C2380.344727,4884.187012 2361.529053,4902.367676 2326.436035,4901.772461 
z" data-index="51" style="opacity: 1; visibility: hidden;"></path>

<path fill="#FAFAFB" opacity="1.000000" stroke="none" d="
M5795.240234,4852.564453 
	C5814.784668,4849.888672 5832.412109,4850.007812 5850.114258,4857.128418 
	C5852.308594,4868.293945 5850.810547,4878.360352 5844.253906,4887.419434 
	C5837.698242,4896.478516 5828.316406,4901.388184 5817.614746,4903.334961 
	C5808.464844,4904.998535 5799.196289,4905.208008 5790.242676,4901.456543 
	C5780.968262,4897.570801 5774.733398,4891.017578 5773.340820,4881.033203 
	C5771.933105,4870.941895 5776.359863,4862.931641 5784.627930,4857.228027 
	C5787.316406,4855.373535 5790.574219,4854.343262 5795.240234,4852.564453 
z" data-index="53" style="opacity: 1; visibility: hidden;"></path>

<path fill="#FAFAFB" opacity="1.000000" stroke="none" d="
M2130.798584,4873.068848 
	C2133.848389,4860.354492 2142.062500,4854.646973 2152.184570,4852.722656 
	C2170.528564,4849.235840 2188.816650,4850.003418 2206.484375,4856.700684 
	C2209.871338,4873.582520 2205.770020,4886.803223 2192.230225,4895.867188 
	C2177.516113,4905.717285 2161.413330,4907.557129 2144.983398,4900.378906 
	C2134.020020,4895.588867 2129.433838,4886.580566 2130.798584,4873.068848 
z" data-index="55" style="opacity: 1; visibility: hidden;"></path>

<path fill="#F5F6F7" opacity="1.000000" stroke="none" d="
M4381.257812,4843.529297 
	C4373.586914,4843.285645 4367.746582,4843.041992 4361.908691,4842.798340 
	C4363.924316,4814.695801 4381.637695,4797.676758 4406.387207,4799.010254 
	C4416.906738,4799.577148 4425.671387,4803.632812 4432.704102,4811.456543 
	C4440.484863,4820.112793 4443.398438,4828.971680 4442.774902,4843.529785 
	C4422.927246,4843.529785 4403.008301,4843.529785 4381.257812,4843.529297 
z" data-index="57" style="opacity: 1; visibility: hidden;"></path>

<path fill="#F5F6F7" opacity="1.000000" stroke="none" d="
M3053.034180,4800.666992 
	C3064.190918,4805.214844 3071.399170,4811.859863 3075.803467,4821.336426 
	C3078.871826,4827.937500 3082.437012,4834.540039 3079.036865,4842.865234 
	C3052.627441,4842.865234 3026.069580,4842.865234 2998.423096,4842.865234 
	C2996.883301,4831.353027 3001.973877,4822.353027 3008.361816,4814.085449 
	C3014.669434,4805.921875 3022.992432,4800.274414 3033.584229,4799.524902 
	C3039.496582,4799.106445 3045.498291,4799.948730 3053.034180,4800.666992 
z" data-index="59" style="opacity: 1; visibility: hidden;"></path>

<path fill="#FAFAFB" opacity="1.000000" stroke="none" d="
M3565.143555,4902.859375 
	C3552.176514,4900.671387 3541.770508,4896.541504 3533.861084,4887.654297 
	C3519.780273,4871.833008 3516.380127,4853.516113 3522.554932,4833.618164 
	C3529.076172,4812.603516 3545.970459,4800.068359 3566.943115,4799.669922 
	C3587.974365,4799.270020 3605.530273,4811.056152 3613.547119,4830.957520 
	C3622.647461,4853.547852 3615.543457,4880.387695 3596.760010,4893.863281 
	C3587.807861,4900.286133 3577.667969,4903.111816 3565.143555,4902.859375 
z" data-index="61" style="opacity: 1; visibility: hidden;"></path>

</svg>