<svg viewBox="0 0 1550 883" xmlns="http://www.w3.org/2000/svg" xml:space="preserve" style="fill-rule:evenodd;clip-rule:evenodd;stroke-linejoin:round;stroke-miterlimit:2"><path d="m1033.55 425.463-89.108 22.812c-20.28 4.879-37.517-9.592-34.234-28.65l39.234-228.333c2.258-13.1 13.504-24.55 27.441-27.934l89.142-23c20.3-4.929 37.033 8.992 33.742 28.075l-38.705 229.08c-2.262 13.125-13.545 24.587-27.512 27.95m-461.088-70.765-89.109 22.812c-20.279 4.88-37.516-9.591-34.233-28.65l40.713-233.708c2.258-13.1 13.504-24.55 27.441-27.933l89.142-23c20.3-4.929 37.033 8.991 33.742 28.075l-40.184 234.454c-2.262 13.125-13.546 24.587-27.512 27.95M858.888 192.89l28.609-163.816C890.78 10.02 874.101-3.897 853.826.982l-89.113 22.817c-13.962 3.358-25.25 14.825-27.512 27.95l-31.396 180.187 153.083-39.046ZM689.997 325.328 663.13 483.123c-3.283 19.059 13.4 32.971 33.675 28.092l88.554-22.812c13.963-3.363 26.046-15.513 28.308-28.638l29.655-174.171-153.325 39.734Z" style="fill:#00aac1;fill-rule:nonzero"/><path d="m0 635.914 46.2-12.046v72.196h85.188v-94.225l46.191-12.046v233.155h-46.191V738.66H46.2v84.288H0V635.914Zm696.892 107.547v-.604c0-23.696-17.1-44.392-42.292-44.392-26.1 0-41.7 20.096-41.7 43.796v.596c0 23.7 17.096 44.396 42.292 44.396 26.1 0 41.7-20.096 41.7-43.792m-128.988 0v-.604c0-46.192 37.2-83.684 87.288-83.684 49.796 0 86.696 36.892 86.696 83.088v.596c0 46.196-37.2 83.691-87.288 83.691-49.8 0-86.696-36.895-86.696-83.087M776.4 777.355v-76.191h-19.196v-38.996H776.4v-31.513l45.596-11.912v43.425h37.796v38.996h-37.796v68.691c0 10.5 4.5 15.596 14.7 15.596 8.396 0 15.892-2.1 22.492-5.696v36.592c-9.596 5.704-20.696 9.3-35.996 9.3-27.896 0-46.792-11.096-46.792-48.292M887.403 601.71l45.595-11.917v95.171c10.5-13.496 24-25.792 47.096-25.792 34.496 0 54.592 22.792 54.592 59.692v104.083h-45.592V733.26c0-21.6-10.204-32.696-27.604-32.696-17.392 0-28.492 11.096-28.492 32.696v89.687h-45.596V601.71Zm286.487 128.25c-2.7-20.4-14.696-34.196-33.895-34.196-18.905 0-31.2 13.5-34.796 34.196h68.691Zm-113.387 13.5v-.6c0-45.896 32.7-83.688 79.492-83.688 53.687 0 78.287 41.692 78.287 87.288 0 3.595-.3 7.795-.6 11.995h-111.883c4.491 20.7 18.895 31.496 39.291 31.496 15.3 0 26.4-4.8 38.996-16.5l26.1 23.1c-15 18.596-36.596 30-65.7 30-48.287 0-83.983-33.9-83.983-83.091m177.897.001v-.604c0-45.892 35.1-83.684 84.292-83.684 30.3 0 49.196 10.196 64.196 26.992l-27.9 29.996c-10.196-10.8-20.4-17.696-36.596-17.696-22.792 0-38.996 20.096-38.996 43.796v.596c0 24.6 15.9 44.396 40.796 44.396 15.3 0 25.796-6.596 36.896-17.1l26.696 27c-15.596 17.095-33.596 29.395-65.692 29.395-48.292 0-83.692-37.195-83.692-83.087m268.19 22.794v-8.095c-7.796-3.605-17.992-6.005-29.092-6.005-19.5 0-31.495 7.8-31.495 22.2v.6c0 12.296 10.195 19.5 24.895 19.5 21.296 0 35.692-11.7 35.692-28.2m-104.687 10.5v-.6c0-35.095 26.7-51.295 64.795-51.295 16.196 0 27.896 2.7 39.288 6.6v-2.7c0-18.896-11.692-29.396-34.488-29.396-17.4 0-29.704 3.3-44.4 8.7l-11.391-34.796c17.691-7.796 35.087-12.9 62.383-12.9 24.904 0 42.896 6.6 54.296 18 11.996 11.996 17.4 29.696 17.4 51.292v93.287h-44.092v-17.396c-11.1 12.3-26.4 20.396-48.6 20.396-30.287 0-55.191-17.4-55.191-49.192M502.49 742.858c0 26.996-18 44.392-39.3 44.392-21.295 0-38.987-17.696-38.987-44.392v-.6c0-26.695 17.692-44.395 38.987-44.395 21.3 0 39.3 17.7 39.3 44.395v.6Zm-27.595-83.687c-23.7 0-38.996 11.096-50.096 26.096v-23.096h-45.592v220.642l45.592-11.871v-68.988c10.796 12.896 25.796 23.992 50.096 23.992 38.095 0 73.191-29.392 73.191-83.088v-.6c0-53.691-35.7-83.087-73.191-83.087m-157.819 2.999-35.091 109.483-36.596-109.483h-48.3l62.996 161.375c3.437 11.163-9.063 22.275-19.621 21.475-5.938-.446-14.959-2.846-19.788-6.512l-6.475 37.641c9.279 4.204 19.4 6.667 31.967 6.667 27.296 0 44.217-23.271 56.512-55.971l61.792-164.675h-47.396Z" style="fill:#303f51;fill-rule:nonzero"/></svg>